<svg width="441" height="309" viewBox="0 0 441 309" fill="none" xmlns="http://www.w3.org/2000/svg">
<path d="M328.119 186.25L323.175 202.93H320.079L316.575 190.306L312.855 202.93L309.783 202.954L305.055 186.25H307.959L311.415 199.834L315.159 186.25H318.231L321.711 199.762L325.191 186.25H328.119ZM342.496 195.994C342.496 196.49 342.464 196.938 342.4 197.338H332.296C332.376 198.394 332.768 199.242 333.472 199.882C334.176 200.522 335.04 200.842 336.064 200.842C337.536 200.842 338.576 200.226 339.184 198.994H342.136C341.736 200.21 341.008 201.21 339.952 201.994C338.912 202.762 337.616 203.146 336.064 203.146C334.8 203.146 333.664 202.866 332.656 202.306C331.664 201.73 330.88 200.93 330.304 199.906C329.744 198.866 329.464 197.666 329.464 196.306C329.464 194.946 329.736 193.754 330.28 192.73C330.84 191.69 331.616 190.89 332.608 190.33C333.616 189.77 334.768 189.49 336.064 189.49C337.312 189.49 338.424 189.762 339.4 190.306C340.376 190.85 341.136 191.618 341.68 192.61C342.224 193.586 342.496 194.714 342.496 195.994ZM339.64 195.13C339.624 194.122 339.264 193.314 338.56 192.706C337.856 192.098 336.984 191.794 335.944 191.794C335 191.794 334.192 192.098 333.52 192.706C332.848 193.298 332.448 194.106 332.32 195.13H339.64ZM347.924 191.674C348.388 191.034 349.02 190.514 349.82 190.114C350.636 189.698 351.54 189.49 352.532 189.49C353.7 189.49 354.756 189.77 355.7 190.33C356.644 190.89 357.388 191.69 357.932 192.73C358.476 193.754 358.748 194.93 358.748 196.258C358.748 197.586 358.476 198.778 357.932 199.834C357.388 200.874 356.636 201.69 355.676 202.282C354.732 202.858 353.684 203.146 352.532 203.146C351.508 203.146 350.596 202.946 349.796 202.546C349.012 202.146 348.388 201.634 347.924 201.01V202.93H345.188V185.17H347.924V191.674ZM355.964 196.258C355.964 195.346 355.772 194.562 355.388 193.906C355.02 193.234 354.524 192.73 353.9 192.394C353.292 192.042 352.636 191.866 351.932 191.866C351.244 191.866 350.588 192.042 349.964 192.394C349.356 192.746 348.86 193.258 348.476 193.93C348.108 194.602 347.924 195.394 347.924 196.306C347.924 197.218 348.108 198.018 348.476 198.706C348.86 199.378 349.356 199.89 349.964 200.242C350.588 200.594 351.244 200.77 351.932 200.77C352.636 200.77 353.292 200.594 353.9 200.242C354.524 199.874 355.02 199.346 355.388 198.658C355.772 197.97 355.964 197.17 355.964 196.258ZM366.254 203.146C365.214 203.146 364.278 202.962 363.446 202.594C362.63 202.21 361.982 201.698 361.502 201.058C361.022 200.402 360.766 199.674 360.734 198.874H363.566C363.614 199.434 363.878 199.906 364.358 200.29C364.854 200.658 365.47 200.842 366.206 200.842C366.974 200.842 367.566 200.698 367.982 200.41C368.414 200.106 368.63 199.722 368.63 199.258C368.63 198.762 368.39 198.394 367.91 198.154C367.446 197.914 366.702 197.65 365.678 197.362C364.686 197.09 363.878 196.826 363.254 196.57C362.63 196.314 362.086 195.922 361.622 195.394C361.174 194.866 360.95 194.17 360.95 193.306C360.95 192.602 361.158 191.962 361.574 191.386C361.99 190.794 362.582 190.33 363.35 189.994C364.134 189.658 365.03 189.49 366.038 189.49C367.542 189.49 368.75 189.874 369.662 190.642C370.59 191.394 371.086 192.426 371.15 193.738H368.414C368.366 193.146 368.126 192.674 367.694 192.322C367.262 191.97 366.678 191.794 365.942 191.794C365.222 191.794 364.67 191.93 364.286 192.202C363.902 192.474 363.71 192.834 363.71 193.282C363.71 193.634 363.838 193.93 364.094 194.17C364.35 194.41 364.662 194.602 365.03 194.746C365.398 194.874 365.942 195.042 366.662 195.25C367.622 195.506 368.406 195.77 369.014 196.042C369.638 196.298 370.174 196.682 370.622 197.194C371.07 197.706 371.302 198.386 371.318 199.234C371.318 199.986 371.11 200.658 370.694 201.25C370.278 201.842 369.686 202.306 368.918 202.642C368.166 202.978 367.278 203.146 366.254 203.146ZM375.666 187.954C375.17 187.954 374.754 187.786 374.418 187.45C374.082 187.114 373.914 186.698 373.914 186.202C373.914 185.706 374.082 185.29 374.418 184.954C374.754 184.618 375.17 184.45 375.666 184.45C376.146 184.45 376.554 184.618 376.89 184.954C377.226 185.29 377.394 185.706 377.394 186.202C377.394 186.698 377.226 187.114 376.89 187.45C376.554 187.786 376.146 187.954 375.666 187.954ZM377.01 189.706V202.93H374.274V189.706H377.01ZM383.794 191.938V199.258C383.794 199.754 383.906 200.114 384.13 200.338C384.37 200.546 384.77 200.65 385.33 200.65H387.01V202.93H384.85C383.618 202.93 382.674 202.642 382.018 202.066C381.362 201.49 381.034 200.554 381.034 199.258V191.938H379.474V189.706H381.034V186.418H383.794V189.706H387.01V191.938H383.794ZM401.652 195.994C401.652 196.49 401.62 196.938 401.556 197.338H391.452C391.532 198.394 391.924 199.242 392.628 199.882C393.332 200.522 394.196 200.842 395.22 200.842C396.692 200.842 397.732 200.226 398.34 198.994H401.292C400.892 200.21 400.164 201.21 399.108 201.994C398.068 202.762 396.772 203.146 395.22 203.146C393.956 203.146 392.82 202.866 391.812 202.306C390.82 201.73 390.036 200.93 389.46 199.906C388.9 198.866 388.62 197.666 388.62 196.306C388.62 194.946 388.892 193.754 389.436 192.73C389.996 191.69 390.772 190.89 391.764 190.33C392.772 189.77 393.924 189.49 395.22 189.49C396.468 189.49 397.58 189.762 398.556 190.306C399.532 190.85 400.292 191.618 400.836 192.61C401.38 193.586 401.652 194.714 401.652 195.994ZM398.796 195.13C398.78 194.122 398.42 193.314 397.716 192.706C397.012 192.098 396.14 191.794 395.1 191.794C394.156 191.794 393.348 192.098 392.676 192.706C392.004 193.298 391.604 194.106 391.476 195.13H398.796Z" fill="#949494"/>
<mask id="mask0_3331_8176" style="mask-type:luminance" maskUnits="userSpaceOnUse" x="37" y="96" width="69" height="88">
<path fill-rule="evenodd" clip-rule="evenodd" d="M73.0295 96.9297C63.4033 96.9297 53.4803 99.4438 48.893 101.655V101.655C44.6429 103.573 43.376 106.717 43.376 109.427V109.427C43.376 114.335 47.9415 117.99 54.8951 115.746V115.746C59.3042 114.171 65.6212 112.269 72.0605 112.269V112.269C84.3603 112.269 89.5646 116.868 89.5646 127.62V127.62V132.829C82.2983 131.104 76.9451 130.169 69.5453 130.169V130.169C48.2245 130.169 38.2281 141.837 37.5718 155.032V155.032V157.928C38.2079 171.747 47.5931 182.352 65.8605 183.689V183.689C67.0609 183.809 68.2922 183.876 69.5538 183.882V183.882V158.771L61.6897 163.257C59.842 164.277 57.9342 164.529 55.9679 164.022V164.022C54.0032 163.513 52.5129 162.302 51.5002 160.386V160.386C51.0215 159.489 50.7412 158.56 50.6514 157.605V157.605C50.5604 156.647 50.6514 155.706 50.9194 154.777V154.777C51.1875 153.848 51.6194 152.981 52.215 152.173V152.173C52.8107 151.364 53.5548 150.692 54.4499 150.153V150.153L72.862 139.742C74.1698 139.024 75.5117 138.664 76.8834 138.664V138.664C78.1349 138.664 79.2204 138.921 80.1453 139.429V139.429C81.067 139.938 81.8436 140.565 82.4706 141.313V141.313C83.0956 142.062 83.5562 142.898 83.854 143.827V143.827C84.1518 144.755 84.3008 145.608 84.3008 146.385V146.385V182.273C84.588 182.207 84.8789 182.148 85.1634 182.079V182.079C93.6291 180.106 99.7524 176.925 102.646 174.982V174.982C105.025 173.36 105.642 171.652 105.642 168.795V168.795V127.62C105.642 106.251 93.1855 96.9297 73.0295 96.9297Z" fill="white"/>
</mask>
<g mask="url(#mask0_3331_8176)">
<path d="M72.9073 100.656C64.1062 100.656 55.0337 102.955 50.8396 104.976V104.976C46.9538 106.73 45.7955 109.605 45.7955 112.082V112.082C45.7955 116.569 49.9697 119.911 56.3272 117.859V117.859C60.3585 116.419 66.1339 114.681 72.0213 114.681V114.681C83.2669 114.681 88.0251 118.886 88.0251 128.716V128.716V133.478C81.3816 131.902 76.4872 131.046 69.7217 131.046V131.046C50.2284 131.046 41.0888 141.714 40.4888 153.778V153.778V156.426C41.0704 169.06 49.6512 178.757 66.3528 179.979V179.979C67.4503 180.088 68.576 180.15 69.7295 180.156V180.156V157.197L62.5394 161.299C60.8501 162.231 59.1058 162.461 57.3081 161.997V161.997C55.5118 161.532 54.1492 160.425 53.2233 158.673V158.673C52.7857 157.853 52.5294 157.004 52.4472 156.131V156.131C52.3641 155.255 52.4472 154.395 52.6923 153.545V153.545C52.9374 152.696 53.3323 151.903 53.8769 151.164V151.164C54.4215 150.425 55.1018 149.811 55.9202 149.318V149.318L72.7541 139.799C73.9498 139.143 75.1767 138.813 76.4308 138.813V138.813C77.575 138.813 78.5675 139.048 79.4131 139.512V139.512C80.2559 139.978 80.9658 140.552 81.5391 141.235V141.235C82.1105 141.92 82.5316 142.684 82.8039 143.533V143.533C83.0762 144.382 83.2124 145.162 83.2124 145.873V145.873V178.685C83.475 178.624 83.741 178.57 84.0011 178.507V178.507C91.7412 176.703 97.3397 173.795 99.985 172.019V172.019C102.16 170.536 102.724 168.974 102.724 166.362V166.362V128.716C102.724 109.178 91.3356 100.656 72.9073 100.656Z" fill="url(#paint0_linear_3331_8176)"/>
</g>
<path fill-rule="evenodd" clip-rule="evenodd" d="M308.716 128.406C306.857 127.748 304.838 127.418 302.662 127.418C300.53 127.418 298.534 127.748 296.675 128.406C294.816 129.066 293.196 129.997 291.812 131.201C290.429 132.406 289.306 133.849 288.445 135.529C287.583 137.212 287.084 139.074 286.949 141.119C286.903 141.801 286.869 142.563 286.847 143.403C286.823 144.244 286.813 145.096 286.813 145.959C286.813 146.823 286.823 147.687 286.847 148.549C286.869 149.413 286.903 150.185 286.949 150.867C287.084 152.867 287.583 154.719 288.445 156.423C289.306 158.126 290.429 159.604 291.812 160.853C293.196 162.104 294.816 163.08 296.675 163.785C298.534 164.488 300.53 164.841 302.662 164.841C304.838 164.841 306.857 164.488 308.716 163.785C310.575 163.08 312.197 162.104 313.58 160.853C314.963 159.604 316.073 158.126 316.913 156.423C317.752 154.719 318.24 152.867 318.376 150.867C318.42 150.185 318.454 149.413 318.478 148.549C318.5 147.687 318.512 146.823 318.512 145.959C318.512 145.096 318.5 144.244 318.478 143.403C318.454 142.563 318.42 141.801 318.376 141.119C318.24 139.074 317.752 137.212 316.913 135.529C316.073 133.849 314.963 132.406 313.58 131.201C312.197 129.997 310.575 129.066 308.716 128.406ZM296.621 136.518C298.092 135.086 300.094 134.371 302.629 134.371C305.208 134.371 307.245 135.086 308.737 136.518C310.231 137.95 311.046 139.802 311.181 142.073C311.181 142.619 311.192 143.232 311.215 143.914C311.237 144.596 311.249 145.301 311.249 146.028V148.174C311.249 148.88 311.226 149.481 311.181 149.981C310.954 152.39 310.084 154.31 308.568 155.741C307.051 157.172 305.073 157.888 302.629 157.888C300.185 157.888 298.217 157.172 296.724 155.741C295.23 154.31 294.37 152.39 294.144 149.981C294.098 149.481 294.064 148.88 294.042 148.174C294.019 147.47 294.008 146.755 294.008 146.028C294.008 145.301 294.019 144.596 294.042 143.914C294.064 143.232 294.098 142.619 294.144 142.073C294.324 139.802 295.15 137.95 296.621 136.518Z" fill="#D1D5DB"/>
<path d="M353.196 160.751C353.196 161.797 352.857 162.671 352.178 163.375C351.5 164.081 350.64 164.432 349.599 164.432C348.649 164.432 347.811 164.081 347.088 163.375C346.363 162.671 346.002 161.797 346.002 160.751V142.142C346.002 140.779 345.786 139.609 345.356 138.631C344.926 137.654 344.349 136.848 343.626 136.211C342.901 135.575 342.065 135.11 341.114 134.814C340.164 134.519 339.168 134.371 338.128 134.371C336.453 134.371 334.88 134.565 333.41 134.95C331.939 135.337 330.819 135.779 330.05 136.279V160.751C330.05 161.797 329.71 162.671 329.032 163.375C328.353 164.081 327.493 164.432 326.453 164.432C325.502 164.432 324.664 164.081 323.941 163.375C323.217 162.671 322.855 161.797 322.855 160.751V133.962C322.855 133.235 322.967 132.679 323.194 132.291C323.42 131.906 323.782 131.531 324.28 131.167C324.778 130.804 325.457 130.407 326.317 129.974C327.176 129.543 328.194 129.134 329.372 128.747C330.548 128.361 331.893 128.043 333.41 127.793C334.926 127.543 336.566 127.418 338.331 127.418C343.263 127.418 346.974 128.657 349.463 131.133C351.951 133.61 353.196 137.166 353.196 141.801V160.751Z" fill="#D1D5DB"/>
<mask id="mask1_3331_8176" style="mask-type:luminance" maskUnits="userSpaceOnUse" x="357" y="127" width="31" height="38">
<path fill-rule="evenodd" clip-rule="evenodd" d="M357.201 127.418H387.882V164.841H357.201V127.418Z" fill="white"/>
</mask>
<g mask="url(#mask1_3331_8176)">
<path fill-rule="evenodd" clip-rule="evenodd" d="M386.83 147.731C387.53 146.913 387.882 145.868 387.882 144.596V142.686C387.882 140.415 387.519 138.336 386.796 136.449C386.071 134.564 385.053 132.951 383.741 131.609C382.428 130.27 380.845 129.236 378.99 128.508C377.134 127.782 375.075 127.418 372.813 127.418C370.686 127.418 368.706 127.748 366.874 128.406C365.041 129.065 363.446 130.019 362.088 131.269C360.731 132.52 359.645 134.03 358.83 135.802C358.016 137.575 357.517 139.551 357.337 141.732C357.291 142.278 357.258 142.903 357.235 143.607C357.212 144.312 357.201 145.038 357.201 145.788C357.201 146.538 357.212 147.299 357.235 148.072C357.258 148.845 357.291 149.549 357.337 150.185C357.472 152.321 357.936 154.286 358.728 156.081C359.519 157.878 360.595 159.421 361.953 160.717C363.31 162.012 364.927 163.023 366.805 163.75C368.683 164.476 370.799 164.841 373.152 164.841C374.148 164.841 375.177 164.783 376.241 164.67C377.303 164.556 378.321 164.397 379.296 164.193C380.268 163.989 381.173 163.739 382.011 163.443C382.848 163.148 383.56 162.819 384.149 162.455C384.917 162.001 385.415 161.512 385.642 160.989C385.868 160.467 385.981 159.933 385.981 159.388C385.981 158.888 385.868 158.411 385.642 157.956C385.415 157.502 385.087 157.127 384.658 156.831C384.227 156.536 383.707 156.354 383.097 156.286C382.486 156.217 381.817 156.32 381.094 156.593C379.781 157.093 378.458 157.49 377.123 157.786C375.788 158.082 374.51 158.228 373.288 158.228C370.618 158.228 368.458 157.502 366.805 156.048C365.153 154.594 364.328 152.502 364.328 149.776V148.958H383.538C385.031 148.958 386.128 148.549 386.83 147.731ZM380.89 142.414C380.798 142.959 380.526 143.231 380.075 143.231H364.327C364.236 140.369 364.904 138.085 366.329 136.381C367.755 134.677 369.915 133.825 372.811 133.825C375.436 133.825 377.483 134.609 378.955 136.176C380.424 137.744 381.069 139.824 380.89 142.414Z" fill="#D1D5DB"/>
</g>
<mask id="mask2_3331_8176" style="mask-type:luminance" maskUnits="userSpaceOnUse" x="127" y="115" width="144" height="50">
<path fill-rule="evenodd" clip-rule="evenodd" d="M262.806 119.89C262.806 122.11 264.482 123.992 266.822 123.992V123.992C269.028 123.992 270.775 122.11 270.775 119.89V119.89C270.775 117.675 269.028 115.929 266.822 115.929V115.929C264.482 115.929 262.806 117.675 262.806 119.89M184.12 119.883V129.95C181.923 128.946 178.582 128.018 175.367 128.018V128.018C166.747 128.018 161.796 133.179 161.056 141.513V141.513C160.856 143.935 160.856 148.694 161.056 151.045V151.045C161.796 159.308 167.276 164.89 176.302 164.89V164.89C182.789 164.89 188.204 161.999 189.946 160.707V160.707C191.015 159.984 191.221 159.234 191.221 158.03V158.03V119.883C191.221 117.875 189.675 116.254 187.671 116.254V116.254C185.735 116.254 184.12 117.875 184.12 119.883M168.134 150.171C167.95 148.087 168.003 144.133 168.134 142.315V142.315C168.416 137.416 170.821 134.86 175.903 134.86V134.86C179.383 134.86 182.731 136.064 184.121 136.951V136.951V155.608C182.79 156.626 179.314 158.03 176.439 158.03V158.03C171.283 158.03 168.545 155.336 168.134 150.171M230.054 131.698C229.05 132.379 228.638 133.053 228.638 134.457V134.457V160.85C228.638 162.87 230.316 164.491 232.197 164.491V164.491C234.193 164.491 235.74 162.87 235.74 160.85V160.85V136.748C237.267 135.802 240.412 134.862 243.688 134.862V134.862C247.842 134.862 251.455 137.148 251.455 142.518V142.518V160.85C251.455 162.87 253.121 164.491 254.999 164.491V164.491C257.072 164.491 258.544 162.87 258.544 160.85V160.85V142.183C258.544 133.116 253.588 128.019 243.894 128.019V128.019C236.877 128.019 231.987 130.231 230.054 131.698M199.831 130.021C198.029 130.836 197.486 132.173 197.486 133.322V133.322C197.486 135.402 199.434 136.952 202.38 136.001V136.001C204.248 135.332 206.925 134.529 209.666 134.529V134.529C214.873 134.529 217.091 136.475 217.091 141.043V141.043V143.25C214.012 142.518 211.73 142.118 208.592 142.118V142.118C199.232 142.118 195.019 147.431 195.019 153.266V153.266C195.019 159.854 199.559 164.891 208.724 164.891V164.891C215.678 164.891 220.763 162.4 222.638 161.131V161.131C223.639 160.443 223.909 159.721 223.909 158.509V158.509V141.043C223.909 131.973 218.628 128.019 210.062 128.019V128.019C205.987 128.019 201.772 129.085 199.831 130.021M201.973 153.001C201.973 149.773 204.905 147.95 208.989 147.95V147.95C212.001 147.95 214.143 148.364 217.091 149.101V149.101V156.56C216.42 157.093 213.943 158.642 209.331 158.642V158.642C204.582 158.642 201.973 156.627 201.973 153.001M132.767 130.021C130.966 130.836 130.427 132.173 130.427 133.322V133.322C130.427 135.402 132.364 136.952 135.314 136.001V136.001C137.186 135.332 139.862 134.529 142.601 134.529V134.529C147.818 134.529 150.022 136.475 150.022 141.043V141.043V143.25C146.942 142.518 144.671 142.118 141.529 142.118V142.118C132.485 142.118 128.244 147.072 127.966 152.67V152.67V153.901C128.256 160.172 132.796 164.891 141.661 164.891V164.891C148.617 164.891 153.7 162.4 155.575 161.131V161.131C156.582 160.443 156.843 159.721 156.843 158.509V158.509V141.043C156.843 131.973 151.557 128.019 143.008 128.019V128.019C138.926 128.019 134.714 129.085 132.767 130.021M134.911 153.001C134.911 149.773 137.857 147.95 141.926 147.95V147.95C144.945 147.95 147.086 148.364 150.023 149.101V149.101V156.56C149.357 157.093 146.883 158.642 142.261 158.642V158.642C137.516 158.642 134.911 156.627 134.911 153.001M263.272 132.248V160.988C263.272 163.004 264.947 164.626 266.823 164.626V164.626C268.825 164.626 270.368 163.004 270.368 160.988V160.988V132.248C270.368 130.238 268.766 128.62 266.823 128.62V128.62C264.806 128.62 263.272 130.238 263.272 132.248" fill="white"/>
</mask>
<g mask="url(#mask2_3331_8176)">
<path fill-rule="evenodd" clip-rule="evenodd" d="M262.806 119.89C262.806 122.11 264.482 123.992 266.822 123.992C269.028 123.992 270.775 122.11 270.775 119.89C270.775 117.675 269.028 115.929 266.822 115.929C264.482 115.929 262.806 117.675 262.806 119.89ZM184.12 119.883V129.95C181.923 128.946 178.582 128.018 175.367 128.018C166.747 128.018 161.796 133.179 161.056 141.513C160.856 143.935 160.856 148.694 161.056 151.045C161.796 159.308 167.276 164.89 176.302 164.89C182.789 164.89 188.204 161.999 189.946 160.707C191.015 159.984 191.221 159.234 191.221 158.03V119.883C191.221 117.875 189.675 116.254 187.671 116.254C185.735 116.254 184.12 117.875 184.12 119.883ZM168.134 142.315C168.003 144.133 167.95 148.087 168.134 150.171C168.545 155.336 171.283 158.03 176.439 158.03C179.314 158.03 182.79 156.626 184.121 155.608V136.951C182.731 136.064 179.383 134.86 175.903 134.86C170.821 134.86 168.416 137.416 168.134 142.315ZM230.054 131.698C229.05 132.379 228.638 133.053 228.638 134.457V160.85C228.638 162.87 230.316 164.491 232.197 164.491C234.193 164.491 235.74 162.87 235.74 160.85V136.748C237.267 135.802 240.412 134.862 243.688 134.862C247.842 134.862 251.455 137.148 251.455 142.518V160.85C251.455 162.87 253.121 164.491 254.999 164.491C257.072 164.491 258.544 162.87 258.544 160.85V142.183C258.544 133.116 253.588 128.019 243.894 128.019C236.877 128.019 231.987 130.231 230.054 131.698ZM197.486 133.322C197.486 132.173 198.029 130.836 199.831 130.021C201.772 129.085 205.987 128.019 210.062 128.019C218.628 128.019 223.909 131.973 223.909 141.043V158.509C223.909 159.721 223.639 160.443 222.638 161.131C220.763 162.4 215.678 164.891 208.724 164.891C199.559 164.891 195.019 159.854 195.019 153.266C195.019 147.431 199.232 142.118 208.592 142.118C211.73 142.118 214.012 142.518 217.091 143.25V141.043C217.091 136.475 214.873 134.529 209.666 134.529C206.925 134.529 204.248 135.332 202.38 136.001C199.434 136.952 197.486 135.402 197.486 133.322ZM201.973 153.001C201.973 149.773 204.905 147.95 208.989 147.95C212.001 147.95 214.143 148.364 217.091 149.101V156.56C216.42 157.093 213.943 158.642 209.331 158.642C204.582 158.642 201.973 156.627 201.973 153.001ZM130.427 133.322C130.427 132.173 130.966 130.836 132.767 130.021C134.714 129.085 138.926 128.019 143.008 128.019C151.557 128.019 156.843 131.973 156.843 141.043V158.509C156.843 159.721 156.582 160.443 155.575 161.131C153.7 162.4 148.617 164.891 141.661 164.891C132.796 164.891 128.256 160.172 127.966 153.901V152.67C128.244 147.072 132.485 142.118 141.529 142.118C144.671 142.118 146.942 142.518 150.022 143.25V141.043C150.022 136.475 147.818 134.529 142.601 134.529C139.862 134.529 137.186 135.332 135.314 136.001C132.364 136.952 130.427 135.402 130.427 133.322ZM134.911 153.001C134.911 149.773 137.857 147.95 141.926 147.95C144.945 147.95 147.086 148.364 150.023 149.101V156.56C149.357 157.093 146.883 158.642 142.261 158.642C137.516 158.642 134.911 156.627 134.911 153.001ZM263.272 160.988V132.248C263.272 130.238 264.806 128.62 266.823 128.62C268.766 128.62 270.368 130.238 270.368 132.248V160.988C270.368 163.004 268.825 164.626 266.823 164.626C264.947 164.626 263.272 163.004 263.272 160.988Z" fill="#D1D5DB"/>
</g>
<defs>
<linearGradient id="paint0_linear_3331_8176" x1="23.1992" y1="225.883" x2="137.174" y2="209.826" gradientUnits="userSpaceOnUse">
<stop stop-color="#0FB371"/>
<stop offset="0.35" stop-color="#2073B8"/>
<stop offset="0.49" stop-color="#6B5CA6"/>
<stop offset="0.64" stop-color="#923993"/>
<stop offset="0.89" stop-color="#F05636"/>
<stop offset="1" stop-color="#F05636"/>
</linearGradient>
</defs>
</svg>
