<svg width="440" height="308" viewBox="0 0 440 308" fill="none" xmlns="http://www.w3.org/2000/svg">
<path d="M285.993 198.359H279.009L277.809 201.767H274.953L280.929 185.063H284.097L290.073 201.767H287.193L285.993 198.359ZM285.225 196.127L282.513 188.375L279.777 196.127H285.225ZM295.407 190.487C295.871 189.879 296.503 189.367 297.303 188.951C298.103 188.535 299.007 188.327 300.015 188.327C301.167 188.327 302.215 188.615 303.159 189.191C304.119 189.751 304.871 190.543 305.415 191.567C305.959 192.591 306.231 193.767 306.231 195.095C306.231 196.423 305.959 197.615 305.415 198.671C304.871 199.711 304.119 200.527 303.159 201.119C302.215 201.695 301.167 201.983 300.015 201.983C299.007 201.983 298.111 201.783 297.327 201.383C296.543 200.967 295.903 200.455 295.407 199.847V208.055H292.671V188.543H295.407V190.487ZM303.447 195.095C303.447 194.183 303.255 193.399 302.871 192.743C302.503 192.071 302.007 191.567 301.383 191.231C300.775 190.879 300.119 190.703 299.415 190.703C298.727 190.703 298.071 190.879 297.447 191.231C296.839 191.583 296.343 192.095 295.959 192.767C295.591 193.439 295.407 194.231 295.407 195.143C295.407 196.055 295.591 196.855 295.959 197.543C296.343 198.215 296.839 198.727 297.447 199.079C298.071 199.431 298.727 199.607 299.415 199.607C300.119 199.607 300.775 199.431 301.383 199.079C302.007 198.711 302.503 198.183 302.871 197.495C303.255 196.807 303.447 196.007 303.447 195.095ZM311.673 190.487C312.137 189.879 312.769 189.367 313.569 188.951C314.369 188.535 315.273 188.327 316.281 188.327C317.433 188.327 318.481 188.615 319.425 189.191C320.385 189.751 321.137 190.543 321.681 191.567C322.225 192.591 322.497 193.767 322.497 195.095C322.497 196.423 322.225 197.615 321.681 198.671C321.137 199.711 320.385 200.527 319.425 201.119C318.481 201.695 317.433 201.983 316.281 201.983C315.273 201.983 314.377 201.783 313.593 201.383C312.809 200.967 312.169 200.455 311.673 199.847V208.055H308.937V188.543H311.673V190.487ZM319.713 195.095C319.713 194.183 319.521 193.399 319.137 192.743C318.769 192.071 318.273 191.567 317.649 191.231C317.041 190.879 316.385 190.703 315.681 190.703C314.993 190.703 314.337 190.879 313.713 191.231C313.105 191.583 312.609 192.095 312.225 192.767C311.857 193.439 311.673 194.231 311.673 195.143C311.673 196.055 311.857 196.855 312.225 197.543C312.609 198.215 313.105 198.727 313.713 199.079C314.337 199.431 314.993 199.607 315.681 199.607C316.385 199.607 317.041 199.431 317.649 199.079C318.273 198.711 318.769 198.183 319.137 197.495C319.521 196.807 319.713 196.007 319.713 195.095ZM327.938 184.007V201.767H325.202V184.007H327.938ZM332.922 186.791C332.426 186.791 332.01 186.623 331.674 186.287C331.338 185.951 331.17 185.535 331.17 185.039C331.17 184.543 331.338 184.127 331.674 183.791C332.01 183.455 332.426 183.287 332.922 183.287C333.402 183.287 333.81 183.455 334.146 183.791C334.482 184.127 334.65 184.543 334.65 185.039C334.65 185.535 334.482 185.951 334.146 186.287C333.81 186.623 333.402 186.791 332.922 186.791ZM334.266 188.543V201.767H331.53V188.543H334.266ZM336.947 195.143C336.947 193.783 337.219 192.591 337.763 191.567C338.323 190.527 339.091 189.727 340.067 189.167C341.043 188.607 342.163 188.327 343.427 188.327C345.027 188.327 346.347 188.711 347.387 189.479C348.443 190.231 349.155 191.311 349.523 192.719H346.571C346.331 192.063 345.947 191.551 345.419 191.183C344.891 190.815 344.227 190.631 343.427 190.631C342.307 190.631 341.411 191.031 340.739 191.831C340.083 192.615 339.755 193.719 339.755 195.143C339.755 196.567 340.083 197.679 340.739 198.479C341.411 199.279 342.307 199.679 343.427 199.679C345.011 199.679 346.059 198.983 346.571 197.591H349.523C349.139 198.935 348.419 200.007 347.363 200.807C346.307 201.591 344.995 201.983 343.427 201.983C342.163 201.983 341.043 201.703 340.067 201.143C339.091 200.567 338.323 199.767 337.763 198.743C337.219 197.703 336.947 196.503 336.947 195.143ZM351.337 195.095C351.337 193.767 351.609 192.591 352.153 191.567C352.713 190.543 353.465 189.751 354.409 189.191C355.369 188.615 356.425 188.327 357.577 188.327C358.617 188.327 359.521 188.535 360.289 188.951C361.073 189.351 361.697 189.855 362.161 190.463V188.543H364.921V201.767H362.161V199.799C361.697 200.423 361.065 200.943 360.265 201.359C359.465 201.775 358.553 201.983 357.529 201.983C356.393 201.983 355.353 201.695 354.409 201.119C353.465 200.527 352.713 199.711 352.153 198.671C351.609 197.615 351.337 196.423 351.337 195.095ZM362.161 195.143C362.161 194.231 361.969 193.439 361.585 192.767C361.217 192.095 360.729 191.583 360.121 191.231C359.513 190.879 358.857 190.703 358.153 190.703C357.449 190.703 356.793 190.879 356.185 191.231C355.577 191.567 355.081 192.071 354.697 192.743C354.329 193.399 354.145 194.183 354.145 195.095C354.145 196.007 354.329 196.807 354.697 197.495C355.081 198.183 355.577 198.711 356.185 199.079C356.809 199.431 357.465 199.607 358.153 199.607C358.857 199.607 359.513 199.431 360.121 199.079C360.729 198.727 361.217 198.215 361.585 197.543C361.969 196.855 362.161 196.055 362.161 195.143ZM371.707 190.775V198.095C371.707 198.591 371.819 198.951 372.043 199.175C372.283 199.383 372.683 199.487 373.243 199.487H374.923V201.767H372.763C371.531 201.767 370.587 201.479 369.931 200.903C369.275 200.327 368.947 199.391 368.947 198.095V190.775H367.387V188.543H368.947V185.255H371.707V188.543H374.923V190.775H371.707ZM378.837 186.791C378.341 186.791 377.925 186.623 377.589 186.287C377.253 185.951 377.085 185.535 377.085 185.039C377.085 184.543 377.253 184.127 377.589 183.791C377.925 183.455 378.341 183.287 378.837 183.287C379.317 183.287 379.725 183.455 380.061 183.791C380.397 184.127 380.565 184.543 380.565 185.039C380.565 185.535 380.397 185.951 380.061 186.287C379.725 186.623 379.317 186.791 378.837 186.791ZM380.181 188.543V201.767H377.445V188.543H380.181ZM389.509 201.983C388.261 201.983 387.133 201.703 386.125 201.143C385.117 200.567 384.325 199.767 383.749 198.743C383.173 197.703 382.885 196.503 382.885 195.143C382.885 193.799 383.181 192.607 383.773 191.567C384.365 190.527 385.173 189.727 386.197 189.167C387.221 188.607 388.365 188.327 389.629 188.327C390.893 188.327 392.037 188.607 393.061 189.167C394.085 189.727 394.893 190.527 395.485 191.567C396.077 192.607 396.373 193.799 396.373 195.143C396.373 196.487 396.069 197.679 395.461 198.719C394.853 199.759 394.021 200.567 392.965 201.143C391.925 201.703 390.773 201.983 389.509 201.983ZM389.509 199.607C390.213 199.607 390.869 199.439 391.477 199.103C392.101 198.767 392.605 198.263 392.989 197.591C393.373 196.919 393.565 196.103 393.565 195.143C393.565 194.183 393.381 193.375 393.013 192.719C392.645 192.047 392.157 191.543 391.549 191.207C390.941 190.871 390.285 190.703 389.581 190.703C388.877 190.703 388.221 190.871 387.613 191.207C387.021 191.543 386.549 192.047 386.197 192.719C385.845 193.375 385.669 194.183 385.669 195.143C385.669 196.567 386.029 197.671 386.749 198.455C387.485 199.223 388.405 199.607 389.509 199.607ZM405.749 188.327C406.789 188.327 407.717 188.543 408.533 188.975C409.365 189.407 410.013 190.047 410.477 190.895C410.941 191.743 411.173 192.767 411.173 193.967V201.767H408.461V194.375C408.461 193.191 408.165 192.287 407.573 191.663C406.981 191.023 406.173 190.703 405.149 190.703C404.125 190.703 403.309 191.023 402.701 191.663C402.109 192.287 401.813 193.191 401.813 194.375V201.767H399.077V188.543H401.813V190.055C402.261 189.511 402.829 189.087 403.517 188.783C404.221 188.479 404.965 188.327 405.749 188.327Z" fill="#949494"/>
<mask id="mask0_3331_8218" style="mask-type:luminance" maskUnits="userSpaceOnUse" x="27" y="95" width="69" height="88">
<path fill-rule="evenodd" clip-rule="evenodd" d="M62.4577 95.7671C52.8315 95.7671 42.9086 98.2812 38.3212 100.492V100.492C34.0711 102.41 32.8042 105.554 32.8042 108.264V108.264C32.8042 113.172 37.3697 116.827 44.3233 114.583V114.583C48.7325 113.008 55.0494 111.107 61.4887 111.107V111.107C73.7885 111.107 78.9928 115.706 78.9928 126.458V126.458V131.666C71.7265 129.942 66.3733 129.006 58.9735 129.006V129.006C37.6527 129.006 27.6563 140.674 27 153.869V153.869V156.765C27.6361 170.584 37.0214 181.19 55.2887 182.526V182.526C56.4892 182.646 57.7204 182.713 58.982 182.72V182.72V157.609L51.1179 162.095C49.2702 163.114 47.3624 163.366 45.3961 162.859V162.859C43.4314 162.35 41.9411 161.139 40.9284 159.223V159.223C40.4498 158.326 40.1695 157.398 40.0796 156.442V156.442C39.9886 155.484 40.0796 154.543 40.3476 153.615V153.615C40.6157 152.686 41.0476 151.818 41.6433 151.01V151.01C42.2389 150.201 42.983 149.53 43.8782 148.991V148.991L62.2902 138.579C63.598 137.862 64.9399 137.501 66.3116 137.501V137.501C67.5631 137.501 68.6486 137.759 69.5735 138.266V138.266C70.4953 138.776 71.2718 139.403 71.8988 140.15V140.15C72.5238 140.9 72.9844 141.735 73.2822 142.664V142.664C73.5801 143.592 73.729 144.445 73.729 145.222V145.222V181.111C74.0162 181.045 74.3071 180.986 74.5917 180.916V180.916C83.0573 178.944 89.1807 175.763 92.074 173.82V173.82C94.453 172.198 95.07 170.49 95.07 167.633V167.633V126.458C95.07 105.088 82.6138 95.7671 62.4577 95.7671Z" fill="white"/>
</mask>
<g mask="url(#mask0_3331_8218)">
<path d="M62.3365 99.4937C53.5354 99.4937 44.4629 101.792 40.2688 103.813V103.813C36.383 105.568 35.2247 108.442 35.2247 110.919V110.919C35.2247 115.407 39.3989 118.749 45.7564 116.697V116.697C49.7877 115.257 55.5631 113.518 61.4505 113.518V113.518C72.6961 113.518 77.4543 117.723 77.4543 127.554V127.554V132.316C70.8108 130.739 65.9164 129.883 59.1509 129.883V129.883C39.6576 129.883 30.518 140.552 29.918 152.616V152.616V155.263C30.4996 167.898 39.0804 177.594 55.782 178.816V178.816C56.8795 178.926 58.0052 178.987 59.1587 178.993V178.993V156.035L51.9686 160.136C50.2793 161.068 48.535 161.299 46.7373 160.835V160.835C44.941 160.37 43.5784 159.262 42.6525 157.511V157.511C42.2149 156.69 41.9586 155.842 41.8764 154.968V154.968C41.7933 154.092 41.8764 153.232 42.1215 152.383V152.383C42.3666 151.534 42.7615 150.74 43.3061 150.002V150.002C43.8507 149.262 44.531 148.648 45.3494 148.155V148.155L62.1833 138.636C63.379 137.98 64.6059 137.651 65.86 137.651V137.651C67.0042 137.651 67.9967 137.886 68.8423 138.35V138.35C69.6851 138.816 70.395 139.389 70.9683 140.073V140.073C71.5397 140.758 71.9608 141.522 72.2331 142.371V142.371C72.5054 143.22 72.6416 143.999 72.6416 144.71V144.71V177.522C72.9042 177.462 73.1702 177.408 73.4303 177.344V177.344C81.1704 175.541 86.7689 172.633 89.4142 170.856V170.856C91.5893 169.373 92.1534 167.811 92.1534 165.199V165.199V127.554C92.1534 108.016 80.7648 99.4937 62.3365 99.4937Z" fill="url(#paint0_linear_3331_8218)"/>
</g>
<path fill-rule="evenodd" clip-rule="evenodd" d="M298.144 127.244C296.285 126.585 294.266 126.255 292.09 126.255C289.959 126.255 287.962 126.585 286.103 127.244C284.244 127.903 282.624 128.835 281.24 130.038C279.858 131.243 278.734 132.686 277.873 134.367C277.011 136.049 276.512 137.911 276.377 139.957C276.331 140.638 276.297 141.4 276.275 142.24C276.251 143.081 276.241 143.933 276.241 144.797C276.241 145.66 276.251 146.524 276.275 147.387C276.297 148.251 276.331 149.022 276.377 149.704C276.512 151.705 277.011 153.556 277.873 155.26C278.734 156.964 279.858 158.441 281.24 159.691C282.624 160.941 284.244 161.917 286.103 162.622C287.962 163.326 289.959 163.679 292.09 163.679C294.266 163.679 296.285 163.326 298.144 162.622C300.003 161.917 301.625 160.941 303.008 159.691C304.391 158.441 305.501 156.964 306.341 155.26C307.18 153.556 307.668 151.705 307.804 149.704C307.849 149.022 307.883 148.251 307.906 147.387C307.928 146.524 307.94 145.66 307.94 144.797C307.94 143.933 307.928 143.081 307.906 142.24C307.883 141.4 307.849 140.638 307.804 139.957C307.668 137.911 307.18 136.049 306.341 134.367C305.501 132.686 304.391 131.243 303.008 130.038C301.625 128.835 300.003 127.903 298.144 127.244ZM286.05 135.356C287.52 133.924 289.522 133.208 292.057 133.208C294.636 133.208 296.673 133.924 298.166 135.356C299.659 136.787 300.474 138.639 300.61 140.911C300.61 141.456 300.62 142.069 300.644 142.752C300.665 143.433 300.678 144.139 300.678 144.865V147.012C300.678 147.717 300.654 148.319 300.61 148.818C300.382 151.228 299.512 153.147 297.996 154.579C296.479 156.01 294.501 156.726 292.057 156.726C289.613 156.726 287.645 156.01 286.152 154.579C284.658 153.147 283.798 151.228 283.572 148.818C283.526 148.319 283.492 147.717 283.471 147.012C283.447 146.308 283.437 145.592 283.437 144.865C283.437 144.139 283.447 143.433 283.471 142.752C283.492 142.069 283.526 141.456 283.572 140.911C283.752 138.639 284.578 136.787 286.05 135.356Z" fill="#D1D5DB"/>
<path d="M342.625 159.588C342.625 160.634 342.285 161.508 341.607 162.213C340.928 162.918 340.068 163.269 339.027 163.269C338.077 163.269 337.239 162.918 336.516 162.213C335.792 161.508 335.43 160.634 335.43 159.588V140.979C335.43 139.616 335.214 138.446 334.785 137.469C334.354 136.492 333.777 135.686 333.054 135.048C332.329 134.413 331.493 133.948 330.542 133.651C329.592 133.356 328.596 133.208 327.556 133.208C325.881 133.208 324.308 133.402 322.838 133.787C321.367 134.175 320.248 134.617 319.479 135.117V159.588C319.479 160.634 319.139 161.508 318.46 162.213C317.781 162.918 316.921 163.269 315.881 163.269C314.93 163.269 314.093 162.918 313.369 162.213C312.645 161.508 312.283 160.634 312.283 159.588V132.799C312.283 132.073 312.395 131.516 312.623 131.129C312.849 130.744 313.21 130.368 313.709 130.005C314.206 129.641 314.885 129.244 315.745 128.811C316.604 128.38 317.622 127.971 318.8 127.585C319.976 127.199 321.322 126.88 322.838 126.63C324.354 126.381 325.995 126.255 327.76 126.255C332.691 126.255 336.402 127.494 338.891 129.97C341.38 132.448 342.625 136.003 342.625 140.638V159.588Z" fill="#D1D5DB"/>
<mask id="mask1_3331_8218" style="mask-type:luminance" maskUnits="userSpaceOnUse" x="346" y="126" width="32" height="38">
<path fill-rule="evenodd" clip-rule="evenodd" d="M346.629 126.255H377.31V163.678H346.629V126.255Z" fill="white"/>
</mask>
<g mask="url(#mask1_3331_8218)">
<path fill-rule="evenodd" clip-rule="evenodd" d="M376.258 146.568C376.959 145.751 377.31 144.706 377.31 143.433V141.524C377.31 139.252 376.948 137.173 376.224 135.287C375.499 133.402 374.482 131.789 373.17 130.447C371.856 129.107 370.273 128.073 368.418 127.346C366.562 126.619 364.503 126.255 362.241 126.255C360.114 126.255 358.135 126.585 356.302 127.243C354.469 127.903 352.874 128.857 351.516 130.107C350.159 131.357 349.073 132.867 348.258 134.639C347.444 136.412 346.945 138.388 346.765 140.57C346.719 141.115 346.686 141.74 346.663 142.445C346.64 143.149 346.629 143.876 346.629 144.626C346.629 145.376 346.64 146.137 346.663 146.909C346.686 147.683 346.719 148.386 346.765 149.022C346.901 151.159 347.365 153.124 348.156 154.919C348.947 156.715 350.023 158.259 351.381 159.554C352.739 160.849 354.356 161.861 356.234 162.587C358.111 163.314 360.227 163.678 362.581 163.678C363.576 163.678 364.605 163.621 365.669 163.508C366.732 163.394 367.75 163.235 368.724 163.031C369.696 162.826 370.601 162.577 371.439 162.281C372.276 161.986 372.988 161.657 373.577 161.293C374.346 160.839 374.843 160.35 375.07 159.827C375.296 159.304 375.409 158.77 375.409 158.225C375.409 157.726 375.296 157.248 375.07 156.793C374.843 156.339 374.516 155.964 374.086 155.669C373.655 155.373 373.135 155.191 372.525 155.123C371.914 155.055 371.246 155.157 370.522 155.43C369.209 155.93 367.886 156.328 366.551 156.623C365.216 156.919 363.938 157.066 362.716 157.066C360.046 157.066 357.886 156.339 356.234 154.885C354.582 153.431 353.757 151.34 353.757 148.613V147.796H372.966C374.459 147.796 375.556 147.387 376.258 146.568ZM370.318 141.252C370.226 141.796 369.954 142.069 369.503 142.069H353.755C353.664 139.206 354.332 136.922 355.757 135.218C357.183 133.514 359.343 132.663 362.239 132.663C364.864 132.663 366.912 133.446 368.383 135.014C369.852 136.582 370.498 138.661 370.318 141.252Z" fill="#D1D5DB"/>
</g>
<mask id="mask2_3331_8218" style="mask-type:luminance" maskUnits="userSpaceOnUse" x="117" y="114" width="144" height="50">
<path fill-rule="evenodd" clip-rule="evenodd" d="M252.234 118.727C252.234 120.947 253.91 122.83 256.251 122.83V122.83C258.456 122.83 260.204 120.947 260.204 118.727V118.727C260.204 116.513 258.456 114.766 256.251 114.766V114.766C253.91 114.766 252.234 116.513 252.234 118.727M173.549 118.72V128.787C171.351 127.784 168.01 126.855 164.795 126.855V126.855C156.175 126.855 151.224 132.016 150.484 140.35V140.35C150.284 142.772 150.284 147.531 150.484 149.882V149.882C151.224 158.145 156.704 163.727 165.73 163.727V163.727C172.217 163.727 177.632 160.836 179.374 159.544V159.544C180.444 158.821 180.649 158.072 180.649 156.868V156.868V118.72C180.649 116.712 179.103 115.091 177.1 115.091V115.091C175.163 115.091 173.549 116.712 173.549 118.72M157.562 149.008C157.378 146.924 157.431 142.97 157.562 141.152V141.152C157.844 136.253 160.249 133.698 165.331 133.698V133.698C168.812 133.698 172.159 134.901 173.549 135.788V135.788V154.445C172.218 155.464 168.742 156.867 165.867 156.867V156.867C160.711 156.867 157.973 154.173 157.562 149.008M219.482 130.536C218.478 131.217 218.066 131.89 218.066 133.295V133.295V159.688C218.066 161.707 219.745 163.328 221.625 163.328V163.328C223.621 163.328 225.168 161.707 225.168 159.688V159.688V135.585C226.695 134.639 229.84 133.699 233.116 133.699V133.699C237.27 133.699 240.883 135.986 240.883 141.355V141.355V159.688C240.883 161.707 242.549 163.328 244.427 163.328V163.328C246.501 163.328 247.972 161.707 247.972 159.688V159.688V141.02C247.972 131.953 243.016 126.856 233.322 126.856V126.856C226.305 126.856 221.415 129.068 219.482 130.536M189.259 128.858C187.457 129.673 186.914 131.01 186.914 132.159V132.159C186.914 134.239 188.862 135.79 191.809 134.838V134.838C193.676 134.169 196.353 133.366 199.094 133.366V133.366C204.301 133.366 206.519 135.313 206.519 139.88V139.88V142.088C203.44 141.355 201.158 140.956 198.02 140.956V140.956C188.66 140.956 184.447 146.268 184.447 152.103V152.103C184.447 158.691 188.987 163.728 198.152 163.728V163.728C205.106 163.728 210.191 161.237 212.067 159.969V159.969C213.067 159.281 213.337 158.558 213.337 157.346V157.346V139.88C213.337 130.81 208.056 126.856 199.49 126.856V126.856C195.415 126.856 191.2 127.922 189.259 128.858M191.401 151.838C191.401 148.61 194.333 146.788 198.417 146.788V146.788C201.43 146.788 203.571 147.201 206.52 147.939V147.939V155.397C205.848 155.931 203.371 157.48 198.759 157.48V157.48C194.01 157.48 191.401 155.465 191.401 151.838M122.195 128.858C120.394 129.673 119.856 131.01 119.856 132.159V132.159C119.856 134.239 121.792 135.79 124.743 134.838V134.838C126.614 134.169 129.291 133.366 132.029 133.366V133.366C137.246 133.366 139.45 135.313 139.45 139.88V139.88V142.088C136.371 141.355 134.099 140.956 130.957 140.956V140.956C121.913 140.956 117.672 145.909 117.395 151.507V151.507V152.738C117.684 159.009 122.225 163.728 131.09 163.728V163.728C138.046 163.728 143.128 161.237 145.004 159.969V159.969C146.011 159.281 146.271 158.558 146.271 157.346V157.346V139.88C146.271 130.81 140.985 126.856 132.436 126.856V126.856C128.354 126.856 124.143 127.922 122.195 128.858M124.338 151.838C124.338 148.61 127.285 146.788 131.353 146.788V146.788C134.372 146.788 136.513 147.201 139.45 147.939V147.939V155.397C138.784 155.931 136.31 157.48 131.689 157.48V157.48C126.944 157.48 124.338 155.465 124.338 151.838M252.7 131.085V159.826C252.7 161.841 254.375 163.463 256.251 163.463V163.463C258.254 163.463 259.797 161.841 259.797 159.826V159.826V131.085C259.797 129.075 258.195 127.458 256.251 127.458V127.458C254.235 127.458 252.7 129.075 252.7 131.085" fill="white"/>
</mask>
<g mask="url(#mask2_3331_8218)">
<path fill-rule="evenodd" clip-rule="evenodd" d="M252.234 118.727C252.234 120.947 253.91 122.83 256.251 122.83C258.456 122.83 260.204 120.947 260.204 118.727C260.204 116.513 258.456 114.766 256.251 114.766C253.91 114.766 252.234 116.513 252.234 118.727ZM173.549 118.72V128.787C171.351 127.784 168.01 126.855 164.795 126.855C156.175 126.855 151.224 132.016 150.484 140.35C150.284 142.772 150.284 147.531 150.484 149.882C151.224 158.145 156.704 163.727 165.73 163.727C172.217 163.727 177.632 160.836 179.374 159.544C180.444 158.821 180.649 158.072 180.649 156.868V118.72C180.649 116.712 179.103 115.091 177.1 115.091C175.163 115.091 173.549 116.712 173.549 118.72ZM157.562 141.152C157.431 142.97 157.378 146.924 157.562 149.008C157.973 154.173 160.711 156.867 165.867 156.867C168.742 156.867 172.218 155.464 173.549 154.445V135.788C172.159 134.901 168.812 133.698 165.331 133.698C160.249 133.698 157.844 136.253 157.562 141.152ZM219.482 130.536C218.478 131.217 218.066 131.89 218.066 133.295V159.688C218.066 161.707 219.745 163.328 221.625 163.328C223.621 163.328 225.168 161.707 225.168 159.688V135.585C226.695 134.639 229.84 133.699 233.116 133.699C237.27 133.699 240.883 135.986 240.883 141.355V159.688C240.883 161.707 242.549 163.328 244.427 163.328C246.501 163.328 247.972 161.707 247.972 159.688V141.02C247.972 131.953 243.016 126.856 233.322 126.856C226.305 126.856 221.415 129.068 219.482 130.536ZM186.914 132.159C186.914 131.01 187.457 129.673 189.259 128.858C191.2 127.922 195.415 126.856 199.49 126.856C208.056 126.856 213.337 130.81 213.337 139.88V157.346C213.337 158.558 213.067 159.281 212.067 159.969C210.191 161.237 205.106 163.728 198.152 163.728C188.987 163.728 184.447 158.691 184.447 152.103C184.447 146.268 188.66 140.956 198.02 140.956C201.158 140.956 203.44 141.355 206.519 142.088V139.88C206.519 135.313 204.301 133.366 199.094 133.366C196.353 133.366 193.676 134.169 191.809 134.838C188.862 135.79 186.914 134.239 186.914 132.159ZM191.401 151.838C191.401 148.61 194.333 146.788 198.417 146.788C201.43 146.788 203.571 147.201 206.52 147.939V155.397C205.848 155.931 203.371 157.48 198.759 157.48C194.01 157.48 191.401 155.465 191.401 151.838ZM119.856 132.159C119.856 131.01 120.394 129.673 122.195 128.858C124.143 127.922 128.354 126.856 132.436 126.856C140.985 126.856 146.271 130.81 146.271 139.88V157.346C146.271 158.558 146.011 159.281 145.004 159.969C143.128 161.237 138.046 163.728 131.09 163.728C122.225 163.728 117.684 159.009 117.395 152.738V151.507C117.672 145.909 121.913 140.956 130.957 140.956C134.099 140.956 136.371 141.355 139.45 142.088V139.88C139.45 135.313 137.246 133.366 132.029 133.366C129.291 133.366 126.614 134.169 124.743 134.838C121.792 135.79 119.856 134.239 119.856 132.159ZM124.338 151.838C124.338 148.61 127.285 146.788 131.353 146.788C134.372 146.788 136.513 147.201 139.45 147.939V155.397C138.784 155.931 136.31 157.48 131.689 157.48C126.944 157.48 124.338 155.465 124.338 151.838ZM252.7 159.826V131.085C252.7 129.075 254.235 127.458 256.251 127.458C258.195 127.458 259.797 129.075 259.797 131.085V159.826C259.797 161.841 258.254 163.463 256.251 163.463C254.375 163.463 252.7 161.841 252.7 159.826Z" fill="#D1D5DB"/>
</g>
<defs>
<linearGradient id="paint0_linear_3331_8218" x1="12.6284" y1="224.721" x2="126.604" y2="208.663" gradientUnits="userSpaceOnUse">
<stop stop-color="#0FB371"/>
<stop offset="0.35" stop-color="#2073B8"/>
<stop offset="0.49" stop-color="#6B5CA6"/>
<stop offset="0.64" stop-color="#923993"/>
<stop offset="0.89" stop-color="#F05636"/>
<stop offset="1" stop-color="#F05636"/>
</linearGradient>
</defs>
</svg>
