<svg width="662" height="173" viewBox="0 0 662 173" fill="none" xmlns="http://www.w3.org/2000/svg">
<g opacity="0.4">
<path d="M95.8223 37.0131C92.6341 30.8737 88.2061 26.2692 82.5382 23.1996C76.8704 20.0119 70.3169 18.418 62.8778 18.418C54.7303 18.418 47.4683 20.248 41.092 23.908C34.7157 27.5679 29.6972 32.7628 26.0367 39.4924C22.4943 46.2221 20.7231 54.0143 20.7231 62.8691C20.7231 71.7239 22.4943 79.5752 26.0367 86.4229C29.6972 93.1525 34.7157 98.3473 41.092 102.007C47.4683 105.667 54.7303 107.497 62.8778 107.497C73.8593 107.497 82.7744 104.428 89.6231 98.2883C96.4717 92.149 100.664 83.8255 102.199 73.3178H55.9701V57.202H123.807V72.9636C122.508 82.5268 119.084 91.3225 113.534 99.3509C108.103 107.379 100.959 113.814 92.1028 118.654C83.3648 123.377 73.6232 125.738 62.8778 125.738C51.306 125.738 40.7378 123.082 31.1732 117.769C21.6087 112.338 13.9925 104.841 8.32467 95.2777C2.77489 85.7145 0 74.9116 0 62.8691C0 50.8266 2.77489 40.0237 8.32467 30.4605C13.9925 20.8973 21.6087 13.4593 31.1732 8.14642C40.8558 2.71547 51.424 0 62.8778 0C75.9848 0 87.6157 3.24676 97.7706 9.74028C108.044 16.1157 115.483 25.2067 120.088 37.0131H95.8223Z" fill="url(#paint0_linear_3455_13911)"/>
<path d="M325.01 75.4429C325.01 65.6436 327.017 56.9659 331.032 49.4098C335.164 41.8537 340.714 36.0095 347.681 31.8773C354.766 27.627 362.559 25.5018 371.061 25.5018C378.736 25.5018 385.408 27.0367 391.076 30.1063C396.862 33.0579 401.467 36.7769 404.891 41.2634V27.0957H425.26V124.676H404.891V110.154C401.467 114.758 396.802 118.595 390.898 121.665C384.994 124.735 378.264 126.269 370.707 126.269C362.323 126.269 354.648 124.144 347.681 119.894C340.714 115.526 335.164 109.504 331.032 101.83C327.017 94.038 325.01 85.2422 325.01 75.4429ZM404.891 75.7971C404.891 69.0675 403.474 63.2233 400.64 58.2646C397.924 53.3059 394.323 49.5279 389.836 46.9305C385.349 44.333 380.507 43.0343 375.312 43.0343C370.116 43.0343 365.275 44.333 360.788 46.9305C356.301 49.4098 352.64 53.1288 349.806 58.0875C347.091 62.9281 345.733 68.7133 345.733 75.4429C345.733 82.1726 347.091 88.0758 349.806 93.1525C352.64 98.2293 356.301 102.125 360.788 104.841C365.393 107.438 370.234 108.737 375.312 108.737C380.507 108.737 385.349 107.438 389.836 104.841C394.323 102.243 397.924 98.4654 400.64 93.5067C403.474 88.43 404.891 82.5267 404.891 75.7971Z" fill="url(#paint1_linear_3455_13911)"/>
<path d="M491.102 25.5018C498.659 25.5018 505.33 27.0367 511.116 30.1063C517.02 33.0579 521.625 36.7769 524.932 41.2634V27.0957H545.301V126.269C545.301 135.242 543.411 143.212 539.633 150.177C535.854 157.261 530.363 162.81 523.161 166.824C516.076 170.839 507.574 172.846 497.655 172.846C484.43 172.846 473.449 169.717 464.711 163.46C455.973 157.32 451.013 148.938 449.833 138.312H469.847C471.382 143.389 474.629 147.462 479.589 150.532C484.666 153.719 490.688 155.313 497.655 155.313C505.803 155.313 512.356 152.834 517.316 147.875C522.393 142.917 524.932 135.715 524.932 126.269V109.977C521.507 114.581 516.843 118.477 510.939 121.665C505.153 124.735 498.541 126.269 491.102 126.269C482.6 126.269 474.807 124.144 467.722 119.894C460.755 115.526 455.205 109.504 451.072 101.83C447.058 94.038 445.05 85.2422 445.05 75.4429C445.05 65.6436 447.058 56.9659 451.072 49.4098C455.205 41.8537 460.755 36.0095 467.722 31.8773C474.807 27.627 482.6 25.5018 491.102 25.5018ZM524.932 75.7971C524.932 69.0675 523.515 63.2233 520.681 58.2646C517.965 53.3059 514.364 49.5279 509.876 46.9305C505.389 44.333 500.548 43.0343 495.353 43.0343C490.157 43.0343 485.316 44.333 480.829 46.9305C476.342 49.4098 472.681 53.1288 469.847 58.0875C467.131 62.9281 465.773 68.7133 465.773 75.4429C465.773 82.1726 467.131 88.0758 469.847 93.1525C472.681 98.2293 476.342 102.125 480.829 104.841C485.434 107.438 490.275 108.737 495.353 108.737C500.548 108.737 505.389 107.438 509.876 104.841C514.364 102.243 517.965 98.4654 520.681 93.5067C523.515 88.43 524.932 82.5267 524.932 75.7971Z" fill="url(#paint2_linear_3455_13911)"/>
<path d="M661.268 73.4949C661.268 77.1548 661.031 80.4606 660.559 83.4122H585.991C586.582 91.2045 589.475 97.4619 594.67 102.184C599.866 106.907 606.242 109.268 613.799 109.268C624.663 109.268 632.338 104.723 636.825 95.6319H658.611C655.659 104.605 650.286 111.984 642.493 117.769C634.818 123.436 625.253 126.269 613.799 126.269C604.471 126.269 596.087 124.203 588.648 120.071C581.327 115.821 575.541 109.918 571.29 102.362C567.158 94.6873 565.091 85.8325 565.091 75.7971C565.091 65.7617 567.098 56.9659 571.113 49.4098C575.246 41.7356 580.973 35.8324 588.294 31.7002C595.733 27.568 604.235 25.5018 613.799 25.5018C623.01 25.5018 631.216 27.5089 638.419 31.5231C645.622 35.5373 651.231 41.2043 655.246 48.5243C659.26 55.7262 661.268 64.0497 661.268 73.4949ZM640.19 67.1194C640.072 59.6814 637.415 53.7191 632.22 49.2327C627.024 44.7463 620.589 42.5031 612.914 42.5031C605.947 42.5031 599.984 44.7463 595.024 49.2327C590.065 53.6011 587.113 59.5633 586.168 67.1194H640.19Z" fill="url(#paint3_linear_3455_13911)"/>
<path d="M136.992 76.1188C136.992 66.3195 139 57.6418 143.014 50.0857C147.147 42.5296 152.697 36.6854 159.664 32.5532C166.748 28.3029 174.542 26.1777 183.044 26.1777C190.719 26.1777 197.39 27.7126 203.058 30.7822C208.844 33.7338 213.449 37.4528 216.874 41.9393V27.7716H237.243V125.352H216.874V110.83C213.449 115.434 208.785 119.271 202.881 122.341C196.977 125.411 190.246 126.945 182.689 126.945C174.306 126.945 166.63 124.82 159.664 120.57C152.697 116.202 147.147 110.18 143.014 102.506C139 94.7139 136.992 85.9181 136.992 76.1188ZM216.874 76.473C216.874 69.7433 215.457 63.8992 212.623 58.9405C209.907 53.9818 206.305 50.2038 201.818 47.6063C197.331 45.0089 192.49 43.7102 187.294 43.7102C182.099 43.7102 177.258 45.0089 172.771 47.6063C168.284 50.0857 164.623 53.8047 161.789 58.7634C159.073 63.604 157.715 69.3892 157.715 76.1188C157.715 82.8485 159.073 88.7517 161.789 93.8284C164.623 98.9052 168.284 102.801 172.771 105.517C177.376 108.114 182.217 109.413 187.294 109.413C192.49 109.413 197.331 108.114 201.818 105.517C206.305 102.919 209.907 99.1413 212.623 94.1826C215.457 89.1058 216.874 83.2026 216.874 76.473Z" fill="#34568A"/>
<path d="M136.992 76.1188C136.992 66.3195 139 57.6418 143.014 50.0857C147.147 42.5296 152.697 36.6854 159.664 32.5532C166.748 28.3029 174.542 26.1777 183.044 26.1777C190.719 26.1777 197.39 27.7126 203.058 30.7822C208.844 33.7338 213.449 37.4528 216.874 41.9393V27.7716H237.243V125.352H216.874V110.83C213.449 115.434 208.785 119.271 202.881 122.341C196.977 125.411 190.246 126.945 182.689 126.945C174.306 126.945 166.63 124.82 159.664 120.57C152.697 116.202 147.147 110.18 143.014 102.506C139 94.7139 136.992 85.9181 136.992 76.1188ZM216.874 76.473C216.874 69.7433 215.457 63.8992 212.623 58.9405C209.907 53.9818 206.305 50.2038 201.818 47.6063C197.331 45.0089 192.49 43.7102 187.294 43.7102C182.099 43.7102 177.258 45.0089 172.771 47.6063C168.284 50.0857 164.623 53.8047 161.789 58.7634C159.073 63.604 157.715 69.3892 157.715 76.1188C157.715 82.8485 159.073 88.7517 161.789 93.8284C164.623 98.9052 168.284 102.801 172.771 105.517C177.376 108.114 182.217 109.413 187.294 109.413C192.49 109.413 197.331 108.114 201.818 105.517C206.305 102.919 209.907 99.1413 212.623 94.1826C215.457 89.1058 216.874 83.2026 216.874 76.473Z" fill="url(#paint4_linear_3455_13911)"/>
<path d="M283.955 41.9393C286.907 36.9806 290.804 33.1435 295.645 30.428C300.605 27.5945 306.45 26.1777 313.18 26.1777V47.0751H308.044C300.132 47.0751 294.11 49.0821 289.977 53.0963C285.963 57.1105 283.955 64.0763 283.955 73.9937C283.955 94.0501 283.955 105.295 283.955 125.352H263.764V27.7716H283.955V41.9393Z" fill="#34568A"/>
<path d="M283.955 41.9393C286.907 36.9806 290.804 33.1435 295.645 30.428C300.605 27.5945 306.45 26.1777 313.18 26.1777V47.0751H308.044C300.132 47.0751 294.11 49.0821 289.977 53.0963C285.963 57.1105 283.955 64.0763 283.955 73.9937C283.955 94.0501 283.955 105.295 283.955 125.352H263.764V27.7716H283.955V41.9393Z" fill="url(#paint5_linear_3455_13911)"/>
</g>
<defs>
<linearGradient id="paint0_linear_3455_13911" x1="796.885" y1="-8.47699" x2="684.357" y2="402.55" gradientUnits="userSpaceOnUse">
<stop stop-color="#BFBFBF"/>
<stop offset="1" stop-color="#606060"/>
<stop offset="1" stop-color="#CACACA"/>
</linearGradient>
<linearGradient id="paint1_linear_3455_13911" x1="796.885" y1="-8.47699" x2="684.357" y2="402.55" gradientUnits="userSpaceOnUse">
<stop stop-color="#BFBFBF"/>
<stop offset="1" stop-color="#606060"/>
<stop offset="1" stop-color="#CACACA"/>
</linearGradient>
<linearGradient id="paint2_linear_3455_13911" x1="796.885" y1="-8.47699" x2="684.357" y2="402.55" gradientUnits="userSpaceOnUse">
<stop stop-color="#BFBFBF"/>
<stop offset="1" stop-color="#606060"/>
<stop offset="1" stop-color="#CACACA"/>
</linearGradient>
<linearGradient id="paint3_linear_3455_13911" x1="796.885" y1="-8.47699" x2="684.357" y2="402.55" gradientUnits="userSpaceOnUse">
<stop stop-color="#BFBFBF"/>
<stop offset="1" stop-color="#606060"/>
<stop offset="1" stop-color="#CACACA"/>
</linearGradient>
<linearGradient id="paint4_linear_3455_13911" x1="284.446" y1="29.6219" x2="228.75" y2="158.466" gradientUnits="userSpaceOnUse">
<stop stop-color="#385B92"/>
<stop offset="1" stop-color="#6B98DE"/>
</linearGradient>
<linearGradient id="paint5_linear_3455_13911" x1="284.446" y1="29.6219" x2="228.75" y2="158.466" gradientUnits="userSpaceOnUse">
<stop stop-color="#385B92"/>
<stop offset="1" stop-color="#6B98DE"/>
</linearGradient>
</defs>
</svg>
