<svg width="1286" height="464" viewBox="0 0 1286 464" fill="none" xmlns="http://www.w3.org/2000/svg">
<path d="M289.862 40.25V128H268.487V40.25H289.862ZM513.016 93.125C513.016 85.875 514.474 79.5417 517.391 74.125C520.391 68.7083 524.516 64.5417 529.766 61.625C535.099 58.7083 541.183 57.25 548.016 57.25C556.766 57.25 564.058 59.5417 569.891 64.125C575.808 68.7083 579.683 75.1667 581.516 83.5H558.766C556.849 78.1667 553.141 75.5 547.641 75.5C543.724 75.5 540.599 77.0417 538.266 80.125C535.933 83.125 534.766 87.4583 534.766 93.125C534.766 98.7917 535.933 103.167 538.266 106.25C540.599 109.25 543.724 110.75 547.641 110.75C553.141 110.75 556.849 108.083 558.766 102.75H581.516C579.683 110.917 575.808 117.333 569.891 122C563.974 126.667 556.683 129 548.016 129C541.183 129 535.099 127.542 529.766 124.625C524.516 121.708 520.391 117.542 517.391 112.125C514.474 106.708 513.016 100.375 513.016 93.125ZM614.325 69.875C616.825 66.0417 619.95 63.0417 623.7 60.875C627.45 58.625 631.616 57.5 636.2 57.5V80.125H630.325C624.991 80.125 620.991 81.2917 618.325 83.625C615.658 85.875 614.325 89.875 614.325 95.625V128H592.95V58.25H614.325V69.875ZM642.167 93C642.167 85.8333 643.5 79.5417 646.167 74.125C648.917 68.7083 652.625 64.5417 657.292 61.625C661.958 58.7083 667.167 57.25 672.917 57.25C677.833 57.25 682.125 58.25 685.792 60.25C689.542 62.25 692.417 64.875 694.417 68.125V58.25H715.792V128H694.417V118.125C692.333 121.375 689.417 124 685.667 126C682 128 677.708 129 672.792 129C667.125 129 661.958 127.542 657.292 124.625C652.625 121.625 648.917 117.417 646.167 112C643.5 106.5 642.167 100.167 642.167 93ZM694.417 93.125C694.417 87.7917 692.917 83.5833 689.917 80.5C687 77.4167 683.417 75.875 679.167 75.875C674.917 75.875 671.292 77.4167 668.292 80.5C665.375 83.5 663.917 87.6667 663.917 93C663.917 98.3333 665.375 102.583 668.292 105.75C671.292 108.833 674.917 110.375 679.167 110.375C683.417 110.375 687 108.833 689.917 105.75C692.917 102.667 694.417 98.4583 694.417 93.125ZM766.255 76H754.755V128H733.38V76H725.63V58.25H733.38V56.25C733.38 47.6667 735.839 41.1667 740.755 36.75C745.672 32.25 752.88 30 762.38 30C763.964 30 765.13 30.0417 765.88 30.125V48.25C761.797 48 758.922 48.5833 757.255 50C755.589 51.4167 754.755 53.9583 754.755 57.625V58.25H766.255V76ZM815.174 109.875V128H804.299C796.549 128 790.508 126.125 786.174 122.375C781.841 118.542 779.674 112.333 779.674 103.75V76H771.174V58.25H779.674V41.25H801.049V58.25H815.049V76H801.049V104C801.049 106.083 801.549 107.583 802.549 108.5C803.549 109.417 805.216 109.875 807.549 109.875H815.174ZM837.831 51C834.081 51 830.997 49.9167 828.581 47.75C826.247 45.5 825.081 42.75 825.081 39.5C825.081 36.1667 826.247 33.4167 828.581 31.25C830.997 29 834.081 27.875 837.831 27.875C841.497 27.875 844.497 29 846.831 31.25C849.247 33.4167 850.456 36.1667 850.456 39.5C850.456 42.75 849.247 45.5 846.831 47.75C844.497 49.9167 841.497 51 837.831 51ZM848.456 58.25V128H827.081V58.25H848.456ZM906.446 57.5C914.612 57.5 921.112 60.1667 925.946 65.5C930.862 70.75 933.321 78 933.321 87.25V128H912.071V90.125C912.071 85.4583 910.862 81.8333 908.446 79.25C906.029 76.6667 902.779 75.375 898.696 75.375C894.612 75.375 891.362 76.6667 888.946 79.25C886.529 81.8333 885.321 85.4583 885.321 90.125V128H863.946V58.25H885.321V67.5C887.487 64.4167 890.404 62 894.071 60.25C897.737 58.4167 901.862 57.5 906.446 57.5ZM974.674 57.25C979.591 57.25 983.883 58.25 987.549 60.25C991.299 62.25 994.174 64.875 996.174 68.125V58.25H1017.55V127.875C1017.55 134.292 1016.26 140.083 1013.67 145.25C1011.17 150.5 1007.3 154.667 1002.05 157.75C996.883 160.833 990.424 162.375 982.674 162.375C972.341 162.375 963.966 159.917 957.549 155C951.133 150.167 947.466 143.583 946.549 135.25H967.674C968.341 137.917 969.924 140 972.424 141.5C974.924 143.083 978.008 143.875 981.674 143.875C986.091 143.875 989.591 142.583 992.174 140C994.841 137.5 996.174 133.458 996.174 127.875V118C994.091 121.25 991.216 123.917 987.549 126C983.883 128 979.591 129 974.674 129C968.924 129 963.716 127.542 959.049 124.625C954.383 121.625 950.674 117.417 947.924 112C945.258 106.5 943.924 100.167 943.924 93C943.924 85.8333 945.258 79.5417 947.924 74.125C950.674 68.7083 954.383 64.5417 959.049 61.625C963.716 58.7083 968.924 57.25 974.674 57.25ZM996.174 93.125C996.174 87.7917 994.674 83.5833 991.674 80.5C988.758 77.4167 985.174 75.875 980.924 75.875C976.674 75.875 973.049 77.4167 970.049 80.5C967.133 83.5 965.674 87.6667 965.674 93C965.674 98.3333 967.133 102.583 970.049 105.75C973.049 108.833 976.674 110.375 980.924 110.375C985.174 110.375 988.758 108.833 991.674 105.75C994.674 102.667 996.174 98.4583 996.174 93.125ZM44.9888 220.125C47.0721 216.875 49.9471 214.25 53.6138 212.25C57.2804 210.25 61.5721 209.25 66.4888 209.25C72.2388 209.25 77.4471 210.708 82.1138 213.625C86.7804 216.542 90.4471 220.708 93.1138 226.125C95.8638 231.542 97.2388 237.833 97.2388 245C97.2388 252.167 95.8638 258.5 93.1138 264C90.4471 269.417 86.7804 273.625 82.1138 276.625C77.4471 279.542 72.2388 281 66.4888 281C61.6554 281 57.3638 280 53.6138 278C49.9471 276 47.0721 273.417 44.9888 270.25V313.25H23.6138V210.25H44.9888V220.125ZM75.4888 245C75.4888 239.667 73.9888 235.5 70.9888 232.5C68.0721 229.417 64.4471 227.875 60.1138 227.875C55.8638 227.875 52.2388 229.417 49.2388 232.5C46.3221 235.583 44.8638 239.792 44.8638 245.125C44.8638 250.458 46.3221 254.667 49.2388 257.75C52.2388 260.833 55.8638 262.375 60.1138 262.375C64.3638 262.375 67.9888 260.833 70.9888 257.75C73.9888 254.583 75.4888 250.333 75.4888 245ZM129.828 221.875C132.328 218.042 135.453 215.042 139.203 212.875C142.953 210.625 147.119 209.5 151.703 209.5V232.125H145.828C140.494 232.125 136.494 233.292 133.828 235.625C131.161 237.875 129.828 241.875 129.828 247.625V280H108.453V210.25H129.828V221.875ZM193.669 281C186.836 281 180.669 279.542 175.169 276.625C169.753 273.708 165.461 269.542 162.294 264.125C159.211 258.708 157.669 252.375 157.669 245.125C157.669 237.958 159.253 231.667 162.419 226.25C165.586 220.75 169.919 216.542 175.419 213.625C180.919 210.708 187.086 209.25 193.919 209.25C200.753 209.25 206.919 210.708 212.419 213.625C217.919 216.542 222.253 220.75 225.419 226.25C228.586 231.667 230.169 237.958 230.169 245.125C230.169 252.292 228.544 258.625 225.294 264.125C222.128 269.542 217.753 273.708 212.169 276.625C206.669 279.542 200.503 281 193.669 281ZM193.669 262.5C197.753 262.5 201.211 261 204.044 258C206.961 255 208.419 250.708 208.419 245.125C208.419 239.542 207.003 235.25 204.169 232.25C201.419 229.25 198.003 227.75 193.919 227.75C189.753 227.75 186.294 229.25 183.544 232.25C180.794 235.167 179.419 239.458 179.419 245.125C179.419 250.708 180.753 255 183.419 258C186.169 261 189.586 262.5 193.669 262.5ZM237.259 245C237.259 237.833 238.593 231.542 241.259 226.125C244.009 220.708 247.718 216.542 252.384 213.625C257.051 210.708 262.259 209.25 268.009 209.25C272.593 209.25 276.759 210.208 280.509 212.125C284.343 214.042 287.343 216.625 289.509 219.875V187.5H310.884V280H289.509V270C287.509 273.333 284.634 276 280.884 278C277.218 280 272.926 281 268.009 281C262.259 281 257.051 279.542 252.384 276.625C247.718 273.625 244.009 269.417 241.259 264C238.593 258.5 237.259 252.167 237.259 245ZM289.509 245.125C289.509 239.792 288.009 235.583 285.009 232.5C282.093 229.417 278.509 227.875 274.259 227.875C270.009 227.875 266.384 229.417 263.384 232.5C260.468 235.5 259.009 239.667 259.009 245C259.009 250.333 260.468 254.583 263.384 257.75C266.384 260.833 270.009 262.375 274.259 262.375C278.509 262.375 282.093 260.833 285.009 257.75C288.009 254.667 289.509 250.458 289.509 245.125ZM395.223 210.25V280H373.848V270.5C371.681 273.583 368.723 276.083 364.973 278C361.306 279.833 357.223 280.75 352.723 280.75C347.39 280.75 342.681 279.583 338.598 277.25C334.515 274.833 331.348 271.375 329.098 266.875C326.848 262.375 325.723 257.083 325.723 251V210.25H346.973V248.125C346.973 252.792 348.181 256.417 350.598 259C353.015 261.583 356.265 262.875 360.348 262.875C364.515 262.875 367.806 261.583 370.223 259C372.64 256.417 373.848 252.792 373.848 248.125V210.25H395.223ZM406.327 245.125C406.327 237.875 407.785 231.542 410.702 226.125C413.702 220.708 417.827 216.542 423.077 213.625C428.41 210.708 434.493 209.25 441.327 209.25C450.077 209.25 457.368 211.542 463.202 216.125C469.118 220.708 472.993 227.167 474.827 235.5H452.077C450.16 230.167 446.452 227.5 440.952 227.5C437.035 227.5 433.91 229.042 431.577 232.125C429.243 235.125 428.077 239.458 428.077 245.125C428.077 250.792 429.243 255.167 431.577 258.25C433.91 261.25 437.035 262.75 440.952 262.75C446.452 262.75 450.16 260.083 452.077 254.75H474.827C472.993 262.917 469.118 269.333 463.202 274C457.285 278.667 449.993 281 441.327 281C434.493 281 428.41 279.542 423.077 276.625C417.827 273.708 413.702 269.542 410.702 264.125C407.785 258.708 406.327 252.375 406.327 245.125ZM525.135 261.875V280H514.26C506.51 280 500.469 278.125 496.135 274.375C491.802 270.542 489.635 264.333 489.635 255.75V228H481.135V210.25H489.635V193.25H511.01V210.25H525.01V228H511.01V256C511.01 258.083 511.51 259.583 512.51 260.5C513.51 261.417 515.177 261.875 517.51 261.875H525.135ZM584.906 192.25V280H563.531V192.25H584.906ZM642.896 209.5C651.063 209.5 657.563 212.167 662.396 217.5C667.313 222.75 669.771 230 669.771 239.25V280H648.521V242.125C648.521 237.458 647.313 233.833 644.896 231.25C642.479 228.667 639.229 227.375 635.146 227.375C631.063 227.375 627.813 228.667 625.396 231.25C622.979 233.833 621.771 237.458 621.771 242.125V280H600.396V210.25H621.771V219.5C623.938 216.417 626.854 214 630.521 212.25C634.188 210.417 638.313 209.5 642.896 209.5ZM723.5 261.875V280H712.625C704.875 280 698.833 278.125 694.5 274.375C690.166 270.542 688 264.333 688 255.75V228H679.5V210.25H688V193.25H709.375V210.25H723.375V228H709.375V256C709.375 258.083 709.875 259.583 710.875 260.5C711.875 261.417 713.541 261.875 715.875 261.875H723.5ZM801.156 244C801.156 246 801.031 248.083 800.781 250.25H752.406C752.739 254.583 754.114 257.917 756.531 260.25C759.031 262.5 762.072 263.625 765.656 263.625C770.989 263.625 774.697 261.375 776.781 256.875H799.531C798.364 261.458 796.239 265.583 793.156 269.25C790.156 272.917 786.364 275.792 781.781 277.875C777.197 279.958 772.072 281 766.406 281C759.572 281 753.489 279.542 748.156 276.625C742.822 273.708 738.656 269.542 735.656 264.125C732.656 258.708 731.156 252.375 731.156 245.125C731.156 237.875 732.614 231.542 735.531 226.125C738.531 220.708 742.697 216.542 748.031 213.625C753.364 210.708 759.489 209.25 766.406 209.25C773.156 209.25 779.156 210.667 784.406 213.5C789.656 216.333 793.739 220.375 796.656 225.625C799.656 230.875 801.156 237 801.156 244ZM779.281 238.375C779.281 234.708 778.031 231.792 775.531 229.625C773.031 227.458 769.906 226.375 766.156 226.375C762.572 226.375 759.531 227.417 757.031 229.5C754.614 231.583 753.114 234.542 752.531 238.375H779.281ZM833.807 221.875C836.307 218.042 839.432 215.042 843.182 212.875C846.932 210.625 851.099 209.5 855.682 209.5V232.125H849.807C844.474 232.125 840.474 233.292 837.807 235.625C835.14 237.875 833.807 241.875 833.807 247.625V280H812.432V210.25H833.807V221.875ZM861.649 245C861.649 237.833 862.982 231.542 865.649 226.125C868.399 220.708 872.107 216.542 876.774 213.625C881.441 210.708 886.649 209.25 892.399 209.25C897.316 209.25 901.607 210.25 905.274 212.25C909.024 214.25 911.899 216.875 913.899 220.125V210.25H935.274V280H913.899V270.125C911.816 273.375 908.899 276 905.149 278C901.482 280 897.191 281 892.274 281C886.607 281 881.441 279.542 876.774 276.625C872.107 273.625 868.399 269.417 865.649 264C862.982 258.5 861.649 252.167 861.649 245ZM913.899 245.125C913.899 239.792 912.399 235.583 909.399 232.5C906.482 229.417 902.899 227.875 898.649 227.875C894.399 227.875 890.774 229.417 887.774 232.5C884.857 235.5 883.399 239.667 883.399 245C883.399 250.333 884.857 254.583 887.774 257.75C890.774 260.833 894.399 262.375 898.649 262.375C902.899 262.375 906.482 260.833 909.399 257.75C912.399 254.667 913.899 250.458 913.899 245.125ZM946.488 245.125C946.488 237.875 947.946 231.542 950.863 226.125C953.863 220.708 957.988 216.542 963.238 213.625C968.571 210.708 974.654 209.25 981.488 209.25C990.238 209.25 997.529 211.542 1003.36 216.125C1009.28 220.708 1013.15 227.167 1014.99 235.5H992.238C990.321 230.167 986.613 227.5 981.113 227.5C977.196 227.5 974.071 229.042 971.738 232.125C969.404 235.125 968.238 239.458 968.238 245.125C968.238 250.792 969.404 255.167 971.738 258.25C974.071 261.25 977.196 262.75 981.113 262.75C986.613 262.75 990.321 260.083 992.238 254.75H1014.99C1013.15 262.917 1009.28 269.333 1003.36 274C997.446 278.667 990.154 281 981.488 281C974.654 281 968.571 279.542 963.238 276.625C957.988 273.708 953.863 269.542 950.863 264.125C947.946 258.708 946.488 252.375 946.488 245.125ZM1065.3 261.875V280H1054.42C1046.67 280 1040.63 278.125 1036.3 274.375C1031.96 270.542 1029.8 264.333 1029.8 255.75V228H1021.3V210.25H1029.8V193.25H1051.17V210.25H1065.17V228H1051.17V256C1051.17 258.083 1051.67 259.583 1052.67 260.5C1053.67 261.417 1055.34 261.875 1057.67 261.875H1065.3ZM1087.95 203C1084.2 203 1081.12 201.917 1078.7 199.75C1076.37 197.5 1075.2 194.75 1075.2 191.5C1075.2 188.167 1076.37 185.417 1078.7 183.25C1081.12 181 1084.2 179.875 1087.95 179.875C1091.62 179.875 1094.62 181 1096.95 183.25C1099.37 185.417 1100.58 188.167 1100.58 191.5C1100.58 194.75 1099.37 197.5 1096.95 199.75C1094.62 201.917 1091.62 203 1087.95 203ZM1098.58 210.25V280H1077.2V210.25H1098.58ZM1145.82 281C1138.98 281 1132.82 279.542 1127.32 276.625C1121.9 273.708 1117.61 269.542 1114.44 264.125C1111.36 258.708 1109.82 252.375 1109.82 245.125C1109.82 237.958 1111.4 231.667 1114.57 226.25C1117.73 220.75 1122.07 216.542 1127.57 213.625C1133.07 210.708 1139.23 209.25 1146.07 209.25C1152.9 209.25 1159.07 210.708 1164.57 213.625C1170.07 216.542 1174.4 220.75 1177.57 226.25C1180.73 231.667 1182.32 237.958 1182.32 245.125C1182.32 252.292 1180.69 258.625 1177.44 264.125C1174.28 269.542 1169.9 273.708 1164.32 276.625C1158.82 279.542 1152.65 281 1145.82 281ZM1145.82 262.5C1149.9 262.5 1153.36 261 1156.19 258C1159.11 255 1160.57 250.708 1160.57 245.125C1160.57 239.542 1159.15 235.25 1156.32 232.25C1153.57 229.25 1150.15 227.75 1146.07 227.75C1141.9 227.75 1138.44 229.25 1135.69 232.25C1132.94 235.167 1131.57 239.458 1131.57 245.125C1131.57 250.708 1132.9 255 1135.57 258C1138.32 261 1141.73 262.5 1145.82 262.5ZM1236.16 209.5C1244.32 209.5 1250.82 212.167 1255.66 217.5C1260.57 222.75 1263.03 230 1263.03 239.25V280H1241.78V242.125C1241.78 237.458 1240.57 233.833 1238.16 231.25C1235.74 228.667 1232.49 227.375 1228.41 227.375C1224.32 227.375 1221.07 228.667 1218.66 231.25C1216.24 233.833 1215.03 237.458 1215.03 242.125V280H1193.66V210.25H1215.03V219.5C1217.2 216.417 1220.12 214 1223.78 212.25C1227.45 210.417 1231.57 209.5 1236.16 209.5ZM287.735 396C287.735 388.833 289.069 382.542 291.735 377.125C294.485 371.708 298.194 367.542 302.86 364.625C307.527 361.708 312.735 360.25 318.485 360.25C323.402 360.25 327.694 361.25 331.36 363.25C335.11 365.25 337.985 367.875 339.985 371.125V361.25H361.36V431H339.985V421.125C337.902 424.375 334.985 427 331.235 429C327.569 431 323.277 432 318.36 432C312.694 432 307.527 430.542 302.86 427.625C298.194 424.625 294.485 420.417 291.735 415C289.069 409.5 287.735 403.167 287.735 396ZM339.985 396.125C339.985 390.792 338.485 386.583 335.485 383.5C332.569 380.417 328.985 378.875 324.735 378.875C320.485 378.875 316.86 380.417 313.86 383.5C310.944 386.5 309.485 390.667 309.485 396C309.485 401.333 310.944 405.583 313.86 408.75C316.86 411.833 320.485 413.375 324.735 413.375C328.985 413.375 332.569 411.833 335.485 408.75C338.485 405.667 339.985 401.458 339.985 396.125ZM419.324 360.5C427.491 360.5 433.991 363.167 438.824 368.5C443.741 373.75 446.199 381 446.199 390.25V431H424.949V393.125C424.949 388.458 423.741 384.833 421.324 382.25C418.908 379.667 415.658 378.375 411.574 378.375C407.491 378.375 404.241 379.667 401.824 382.25C399.408 384.833 398.199 388.458 398.199 393.125V431H376.824V361.25H398.199V370.5C400.366 367.417 403.283 365 406.949 363.25C410.616 361.417 414.741 360.5 419.324 360.5ZM456.803 396C456.803 388.833 458.136 382.542 460.803 377.125C463.553 371.708 467.261 367.542 471.928 364.625C476.594 361.708 481.803 360.25 487.553 360.25C492.136 360.25 496.303 361.208 500.053 363.125C503.886 365.042 506.886 367.625 509.053 370.875V338.5H530.428V431H509.053V421C507.053 424.333 504.178 427 500.428 429C496.761 431 492.469 432 487.553 432C481.803 432 476.594 430.542 471.928 427.625C467.261 424.625 463.553 420.417 460.803 415C458.136 409.5 456.803 403.167 456.803 396ZM509.053 396.125C509.053 390.792 507.553 386.583 504.553 383.5C501.636 380.417 498.053 378.875 493.803 378.875C489.553 378.875 485.928 380.417 482.928 383.5C480.011 386.5 478.553 390.667 478.553 396C478.553 401.333 480.011 405.583 482.928 408.75C485.928 411.833 489.553 413.375 493.803 413.375C498.053 413.375 501.636 411.833 504.553 408.75C507.553 405.667 509.053 401.458 509.053 396.125ZM600.756 432C594.673 432 589.256 430.958 584.506 428.875C579.756 426.792 576.006 423.958 573.256 420.375C570.506 416.708 568.964 412.625 568.631 408.125H589.756C590.006 410.542 591.131 412.5 593.131 414C595.131 415.5 597.589 416.25 600.506 416.25C603.173 416.25 605.214 415.75 606.631 414.75C608.131 413.667 608.881 412.292 608.881 410.625C608.881 408.625 607.839 407.167 605.756 406.25C603.673 405.25 600.298 404.167 595.631 403C590.631 401.833 586.464 400.625 583.131 399.375C579.798 398.042 576.923 396 574.506 393.25C572.089 390.417 570.881 386.625 570.881 381.875C570.881 377.875 571.964 374.25 574.131 371C576.381 367.667 579.631 365.042 583.881 363.125C588.214 361.208 593.339 360.25 599.256 360.25C608.006 360.25 614.881 362.417 619.881 366.75C624.964 371.083 627.881 376.833 628.631 384H608.881C608.548 381.583 607.464 379.667 605.631 378.25C603.881 376.833 601.548 376.125 598.631 376.125C596.131 376.125 594.214 376.625 592.881 377.625C591.548 378.542 590.881 379.833 590.881 381.5C590.881 383.5 591.923 385 594.006 386C596.173 387 599.506 388 604.006 389C609.173 390.333 613.381 391.667 616.631 393C619.881 394.25 622.714 396.333 625.131 399.25C627.631 402.083 628.923 405.917 629.006 410.75C629.006 414.833 627.839 418.5 625.506 421.75C623.256 424.917 619.964 427.417 615.631 429.25C611.381 431.083 606.423 432 600.756 432ZM680.958 412.875V431H670.083C662.333 431 656.291 429.125 651.958 425.375C647.625 421.542 645.458 415.333 645.458 406.75V379H636.958V361.25H645.458V344.25H666.833V361.25H680.833V379H666.833V407C666.833 409.083 667.333 410.583 668.333 411.5C669.333 412.417 671 412.875 673.333 412.875H680.958ZM724.614 432C717.781 432 711.614 430.542 706.114 427.625C700.698 424.708 696.406 420.542 693.239 415.125C690.156 409.708 688.614 403.375 688.614 396.125C688.614 388.958 690.198 382.667 693.364 377.25C696.531 371.75 700.864 367.542 706.364 364.625C711.864 361.708 718.031 360.25 724.864 360.25C731.698 360.25 737.864 361.708 743.364 364.625C748.864 367.542 753.198 371.75 756.364 377.25C759.531 382.667 761.114 388.958 761.114 396.125C761.114 403.292 759.489 409.625 756.239 415.125C753.073 420.542 748.698 424.708 743.114 427.625C737.614 430.542 731.448 432 724.614 432ZM724.614 413.5C728.698 413.5 732.156 412 734.989 409C737.906 406 739.364 401.708 739.364 396.125C739.364 390.542 737.948 386.25 735.114 383.25C732.364 380.25 728.948 378.75 724.864 378.75C720.698 378.75 717.239 380.25 714.489 383.25C711.739 386.167 710.364 390.458 710.364 396.125C710.364 401.708 711.698 406 714.364 409C717.114 412 720.531 413.5 724.614 413.5ZM793.829 372.875C796.329 369.042 799.454 366.042 803.204 363.875C806.954 361.625 811.121 360.5 815.704 360.5V383.125H809.829C804.496 383.125 800.496 384.292 797.829 386.625C795.162 388.875 793.829 392.875 793.829 398.625V431H772.454V361.25H793.829V372.875ZM836.671 354C832.921 354 829.838 352.917 827.421 350.75C825.088 348.5 823.921 345.75 823.921 342.5C823.921 339.167 825.088 336.417 827.421 334.25C829.838 332 832.921 330.875 836.671 330.875C840.338 330.875 843.338 332 845.671 334.25C848.088 336.417 849.296 339.167 849.296 342.5C849.296 345.75 848.088 348.5 845.671 350.75C843.338 352.917 840.338 354 836.671 354ZM847.296 361.25V431H825.921V361.25H847.296ZM928.536 395C928.536 397 928.411 399.083 928.161 401.25H879.786C880.119 405.583 881.494 408.917 883.911 411.25C886.411 413.5 889.453 414.625 893.036 414.625C898.369 414.625 902.078 412.375 904.161 407.875H926.911C925.744 412.458 923.619 416.583 920.536 420.25C917.536 423.917 913.744 426.792 909.161 428.875C904.578 430.958 899.453 432 893.786 432C886.953 432 880.869 430.542 875.536 427.625C870.203 424.708 866.036 420.542 863.036 415.125C860.036 409.708 858.536 403.375 858.536 396.125C858.536 388.875 859.994 382.542 862.911 377.125C865.911 371.708 870.078 367.542 875.411 364.625C880.744 361.708 886.869 360.25 893.786 360.25C900.536 360.25 906.536 361.667 911.786 364.5C917.036 367.333 921.119 371.375 924.036 376.625C927.036 381.875 928.536 388 928.536 395ZM906.661 389.375C906.661 385.708 905.411 382.792 902.911 380.625C900.411 378.458 897.286 377.375 893.536 377.375C889.953 377.375 886.911 378.417 884.411 380.5C881.994 382.583 880.494 385.542 879.911 389.375H906.661ZM968.188 432C962.104 432 956.688 430.958 951.938 428.875C947.188 426.792 943.438 423.958 940.688 420.375C937.938 416.708 936.396 412.625 936.063 408.125H957.188C957.438 410.542 958.563 412.5 960.563 414C962.563 415.5 965.021 416.25 967.938 416.25C970.604 416.25 972.646 415.75 974.063 414.75C975.563 413.667 976.313 412.292 976.313 410.625C976.313 408.625 975.271 407.167 973.188 406.25C971.104 405.25 967.729 404.167 963.063 403C958.063 401.833 953.896 400.625 950.563 399.375C947.229 398.042 944.354 396 941.938 393.25C939.521 390.417 938.313 386.625 938.313 381.875C938.313 377.875 939.396 374.25 941.563 371C943.813 367.667 947.063 365.042 951.313 363.125C955.646 361.208 960.771 360.25 966.688 360.25C975.438 360.25 982.313 362.417 987.313 366.75C992.396 371.083 995.313 376.833 996.063 384H976.313C975.979 381.583 974.896 379.667 973.063 378.25C971.313 376.833 968.979 376.125 966.063 376.125C963.563 376.125 961.646 376.625 960.313 377.625C958.979 378.542 958.313 379.833 958.313 381.5C958.313 383.5 959.354 385 961.438 386C963.604 387 966.938 388 971.438 389C976.604 390.333 980.813 391.667 984.063 393C987.313 394.25 990.146 396.333 992.563 399.25C995.063 402.083 996.354 405.917 996.438 410.75C996.438 414.833 995.271 418.5 992.938 421.75C990.688 424.917 987.396 427.417 983.063 429.25C978.813 431.083 973.854 432 968.188 432Z" fill="url(#paint0_linear_2955_12968)"/>
<path d="M435.017 28.667C457.735 28.667 473 50.0237 473 69.947C473 110.295 409.647 143.334 408.5 143.334C407.353 143.334 344 110.295 344 69.947C344 50.0237 359.265 28.667 381.983 28.667C395.027 28.667 403.555 35.1887 408.5 40.922C413.445 35.1887 421.973 28.667 435.017 28.667Z" stroke="#CB4444" stroke-width="20" stroke-linecap="round" stroke-linejoin="round"/>
<defs>
<linearGradient id="paint0_linear_2955_12968" x1="-676.168" y1="237.014" x2="2505.62" y2="237.015" gradientUnits="userSpaceOnUse">
<stop stop-color="white"/>
<stop offset="0.0001" stop-color="#F8F8F8"/>
<stop offset="0.281751" stop-color="#606060"/>
<stop offset="0.631731" stop-color="#232323"/>
<stop offset="1" stop-color="#888888" stop-opacity="0"/>
</linearGradient>
</defs>
</svg>
