<svg width="382" height="300" viewBox="0 0 382 300" fill="none" xmlns="http://www.w3.org/2000/svg">
<path d="M33.9273 16.88V59H23.6673V16.88H33.9273ZM115.612 42.26C115.612 38.78 116.312 35.74 117.712 33.14C119.152 30.54 121.132 28.54 123.652 27.14C126.212 25.74 129.132 25.04 132.412 25.04C136.612 25.04 140.112 26.14 142.912 28.34C145.752 30.54 147.612 33.64 148.492 37.64H137.572C136.652 35.08 134.872 33.8 132.232 33.8C130.352 33.8 128.852 34.54 127.732 36.02C126.612 37.46 126.052 39.54 126.052 42.26C126.052 44.98 126.612 47.08 127.732 48.56C128.852 50 130.352 50.72 132.232 50.72C134.872 50.72 136.652 49.44 137.572 46.88H148.492C147.612 50.8 145.752 53.88 142.912 56.12C140.072 58.36 136.572 59.48 132.412 59.48C129.132 59.48 126.212 58.78 123.652 57.38C121.132 55.98 119.152 53.98 117.712 51.38C116.312 48.78 115.612 45.74 115.612 42.26ZM164.24 31.1C165.44 29.26 166.94 27.82 168.74 26.78C170.54 25.7 172.54 25.16 174.74 25.16V36.02H171.92C169.36 36.02 167.44 36.58 166.16 37.7C164.88 38.78 164.24 40.7 164.24 43.46V59H153.98V25.52H164.24V31.1ZM177.604 42.2C177.604 38.76 178.244 35.74 179.524 33.14C180.844 30.54 182.624 28.54 184.864 27.14C187.104 25.74 189.604 25.04 192.364 25.04C194.724 25.04 196.784 25.52 198.544 26.48C200.344 27.44 201.724 28.7 202.684 30.26V25.52H212.944V59H202.684V54.26C201.684 55.82 200.284 57.08 198.484 58.04C196.724 59 194.664 59.48 192.304 59.48C189.584 59.48 187.104 58.78 184.864 57.38C182.624 55.94 180.844 53.92 179.524 51.32C178.244 48.68 177.604 45.64 177.604 42.2ZM202.684 42.26C202.684 39.7 201.964 37.68 200.524 36.2C199.124 34.72 197.404 33.98 195.364 33.98C193.324 33.98 191.584 34.72 190.144 36.2C188.744 37.64 188.044 39.64 188.044 42.2C188.044 44.76 188.744 46.8 190.144 48.32C191.584 49.8 193.324 50.54 195.364 50.54C197.404 50.54 199.124 49.8 200.524 48.32C201.964 46.84 202.684 44.82 202.684 42.26ZM237.166 34.04H231.646V59H221.386V34.04H217.666V25.52H221.386V24.56C221.386 20.44 222.566 17.32 224.926 15.2C227.286 13.04 230.746 11.96 235.306 11.96C236.066 11.96 236.626 11.98 236.986 12.02V20.72C235.026 20.6 233.646 20.88 232.846 21.56C232.046 22.24 231.646 23.46 231.646 25.22V25.52H237.166V34.04ZM260.648 50.3V59H255.428C251.708 59 248.808 58.1 246.728 56.3C244.648 54.46 243.608 51.48 243.608 47.36V34.04H239.528V25.52H243.608V17.36H253.868V25.52H260.588V34.04H253.868V47.48C253.868 48.48 254.108 49.2 254.588 49.64C255.068 50.08 255.868 50.3 256.988 50.3H260.648ZM271.523 22.04C269.723 22.04 268.243 21.52 267.083 20.48C265.963 19.4 265.403 18.08 265.403 16.52C265.403 14.92 265.963 13.6 267.083 12.56C268.243 11.48 269.723 10.94 271.523 10.94C273.283 10.94 274.723 11.48 275.843 12.56C277.003 13.6 277.583 14.92 277.583 16.52C277.583 18.08 277.003 19.4 275.843 20.48C274.723 21.52 273.283 22.04 271.523 22.04ZM276.623 25.52V59H266.363V25.52H276.623ZM304.458 25.16C308.378 25.16 311.498 26.44 313.818 29C316.178 31.52 317.358 35 317.358 39.44V59H307.158V40.82C307.158 38.58 306.578 36.84 305.418 35.6C304.258 34.36 302.698 33.74 300.738 33.74C298.778 33.74 297.218 34.36 296.058 35.6C294.898 36.84 294.318 38.58 294.318 40.82V59H284.058V25.52H294.318V29.96C295.358 28.48 296.758 27.32 298.518 26.48C300.278 25.6 302.258 25.16 304.458 25.16ZM337.208 25.04C339.568 25.04 341.628 25.52 343.388 26.48C345.188 27.44 346.568 28.7 347.528 30.26V25.52H357.788V58.94C357.788 62.02 357.168 64.8 355.928 67.28C354.728 69.8 352.868 71.8 350.348 73.28C347.868 74.76 344.768 75.5 341.048 75.5C336.088 75.5 332.068 74.32 328.988 71.96C325.908 69.64 324.148 66.48 323.708 62.48H333.848C334.168 63.76 334.928 64.76 336.128 65.48C337.328 66.24 338.808 66.62 340.568 66.62C342.688 66.62 344.368 66 345.608 64.76C346.888 63.56 347.528 61.62 347.528 58.94V54.2C346.528 55.76 345.148 57.04 343.388 58.04C341.628 59 339.568 59.48 337.208 59.48C334.448 59.48 331.948 58.78 329.708 57.38C327.468 55.94 325.688 53.92 324.368 51.32C323.088 48.68 322.448 45.64 322.448 42.2C322.448 38.76 323.088 35.74 324.368 33.14C325.688 30.54 327.468 28.54 329.708 27.14C331.948 25.74 334.448 25.04 337.208 25.04ZM347.528 42.26C347.528 39.7 346.808 37.68 345.368 36.2C343.968 34.72 342.248 33.98 340.208 33.98C338.168 33.98 336.428 34.72 334.988 36.2C333.588 37.64 332.888 39.64 332.888 42.2C332.888 44.76 333.588 46.8 334.988 48.32C336.428 49.8 338.168 50.54 340.208 50.54C342.248 50.54 343.968 49.8 345.368 48.32C346.808 46.84 347.528 44.82 347.528 42.26ZM81.4761 105.26C82.4761 103.7 83.8561 102.44 85.6161 101.48C87.3761 100.52 89.4361 100.04 91.7961 100.04C94.5561 100.04 97.0561 100.74 99.2961 102.14C101.536 103.54 103.296 105.54 104.576 108.14C105.896 110.74 106.556 113.76 106.556 117.2C106.556 120.64 105.896 123.68 104.576 126.32C103.296 128.92 101.536 130.94 99.2961 132.38C97.0561 133.78 94.5561 134.48 91.7961 134.48C89.4761 134.48 87.4161 134 85.6161 133.04C83.8561 132.08 82.4761 130.84 81.4761 129.32V149.96H71.2161V100.52H81.4761V105.26ZM96.1161 117.2C96.1161 114.64 95.3961 112.64 93.9561 111.2C92.5561 109.72 90.8161 108.98 88.7361 108.98C86.6961 108.98 84.9561 109.72 83.5161 111.2C82.1161 112.68 81.4161 114.7 81.4161 117.26C81.4161 119.82 82.1161 121.84 83.5161 123.32C84.9561 124.8 86.6961 125.54 88.7361 125.54C90.7761 125.54 92.5161 124.8 93.9561 123.32C95.3961 121.8 96.1161 119.76 96.1161 117.2ZM122.199 106.1C123.399 104.26 124.899 102.82 126.699 101.78C128.499 100.7 130.499 100.16 132.699 100.16V111.02H129.879C127.319 111.02 125.399 111.58 124.119 112.7C122.839 113.78 122.199 115.7 122.199 118.46V134H111.939V100.52H122.199V106.1ZM152.843 134.48C149.563 134.48 146.603 133.78 143.963 132.38C141.363 130.98 139.303 128.98 137.783 126.38C136.303 123.78 135.563 120.74 135.563 117.26C135.563 113.82 136.323 110.8 137.843 108.2C139.363 105.56 141.443 103.54 144.083 102.14C146.723 100.74 149.683 100.04 152.963 100.04C156.243 100.04 159.203 100.74 161.843 102.14C164.483 103.54 166.563 105.56 168.083 108.2C169.603 110.8 170.363 113.82 170.363 117.26C170.363 120.7 169.583 123.74 168.023 126.38C166.503 128.98 164.403 130.98 161.723 132.38C159.083 133.78 156.123 134.48 152.843 134.48ZM152.843 125.6C154.803 125.6 156.463 124.88 157.823 123.44C159.223 122 159.923 119.94 159.923 117.26C159.923 114.58 159.243 112.52 157.883 111.08C156.563 109.64 154.923 108.92 152.963 108.92C150.963 108.92 149.303 109.64 147.983 111.08C146.663 112.48 146.003 114.54 146.003 117.26C146.003 119.94 146.643 122 147.923 123.44C149.243 124.88 150.883 125.6 152.843 125.6ZM173.766 117.2C173.766 113.76 174.406 110.74 175.686 108.14C177.006 105.54 178.786 103.54 181.026 102.14C183.266 100.74 185.766 100.04 188.526 100.04C190.726 100.04 192.726 100.5 194.526 101.42C196.366 102.34 197.806 103.58 198.846 105.14V89.6H209.106V134H198.846V129.2C197.886 130.8 196.506 132.08 194.706 133.04C192.946 134 190.886 134.48 188.526 134.48C185.766 134.48 183.266 133.78 181.026 132.38C178.786 130.94 177.006 128.92 175.686 126.32C174.406 123.68 173.766 120.64 173.766 117.2ZM198.846 117.26C198.846 114.7 198.126 112.68 196.686 111.2C195.286 109.72 193.566 108.98 191.526 108.98C189.486 108.98 187.746 109.72 186.306 111.2C184.906 112.64 184.206 114.64 184.206 117.2C184.206 119.76 184.906 121.8 186.306 123.32C187.746 124.8 189.486 125.54 191.526 125.54C193.566 125.54 195.286 124.8 196.686 123.32C198.126 121.84 198.846 119.82 198.846 117.26ZM249.589 100.52V134H239.329V129.44C238.289 130.92 236.869 132.12 235.069 133.04C233.309 133.92 231.349 134.36 229.189 134.36C226.629 134.36 224.369 133.8 222.409 132.68C220.449 131.52 218.929 129.86 217.849 127.7C216.769 125.54 216.229 123 216.229 120.08V100.52H226.429V118.7C226.429 120.94 227.009 122.68 228.169 123.92C229.329 125.16 230.889 125.78 232.849 125.78C234.849 125.78 236.429 125.16 237.589 123.92C238.749 122.68 239.329 120.94 239.329 118.7V100.52H249.589ZM254.918 117.26C254.918 113.78 255.618 110.74 257.018 108.14C258.458 105.54 260.438 103.54 262.958 102.14C265.518 100.74 268.438 100.04 271.718 100.04C275.918 100.04 279.418 101.14 282.218 103.34C285.058 105.54 286.918 108.64 287.798 112.64H276.878C275.958 110.08 274.178 108.8 271.538 108.8C269.658 108.8 268.158 109.54 267.038 111.02C265.918 112.46 265.358 114.54 265.358 117.26C265.358 119.98 265.918 122.08 267.038 123.56C268.158 125 269.658 125.72 271.538 125.72C274.178 125.72 275.958 124.44 276.878 121.88H287.798C286.918 125.8 285.058 128.88 282.218 131.12C279.378 133.36 275.878 134.48 271.718 134.48C268.438 134.48 265.518 133.78 262.958 132.38C260.438 130.98 258.458 128.98 257.018 126.38C255.618 123.78 254.918 120.74 254.918 117.26ZM311.946 125.3V134H306.726C303.006 134 300.106 133.1 298.026 131.3C295.946 129.46 294.906 126.48 294.906 122.36V109.04H290.826V100.52H294.906V92.36H305.166V100.52H311.886V109.04H305.166V122.48C305.166 123.48 305.406 124.2 305.886 124.64C306.366 125.08 307.166 125.3 308.286 125.3H311.946ZM33.2534 166.88V209H22.9934V166.88H33.2534ZM61.0888 175.16C65.0088 175.16 68.1288 176.44 70.4488 179C72.8088 181.52 73.9888 185 73.9888 189.44V209H63.7888V190.82C63.7888 188.58 63.2088 186.84 62.0488 185.6C60.8888 184.36 59.3288 183.74 57.3688 183.74C55.4088 183.74 53.8488 184.36 52.6888 185.6C51.5288 186.84 50.9488 188.58 50.9488 190.82V209H40.6888V175.52H50.9488V179.96C51.9888 178.48 53.3888 177.32 55.1488 176.48C56.9088 175.6 58.8888 175.16 61.0888 175.16ZM99.7784 200.3V209H94.5584C90.8384 209 87.9384 208.1 85.8584 206.3C83.7784 204.46 82.7384 201.48 82.7384 197.36V184.04H78.6584V175.52H82.7384V167.36H92.9984V175.52H99.7184V184.04H92.9984V197.48C92.9984 198.48 93.2384 199.2 93.7184 199.64C94.1984 200.08 94.9984 200.3 96.1184 200.3H99.7784ZM137.053 191.72C137.053 192.68 136.993 193.68 136.873 194.72H113.653C113.813 196.8 114.473 198.4 115.633 199.52C116.833 200.6 118.293 201.14 120.013 201.14C122.573 201.14 124.353 200.06 125.353 197.9H136.273C135.713 200.1 134.693 202.08 133.213 203.84C131.773 205.6 129.953 206.98 127.753 207.98C125.553 208.98 123.093 209.48 120.373 209.48C117.093 209.48 114.173 208.78 111.613 207.38C109.053 205.98 107.053 203.98 105.613 201.38C104.173 198.78 103.453 195.74 103.453 192.26C103.453 188.78 104.153 185.74 105.553 183.14C106.993 180.54 108.993 178.54 111.553 177.14C114.113 175.74 117.053 175.04 120.373 175.04C123.613 175.04 126.493 175.72 129.013 177.08C131.533 178.44 133.493 180.38 134.893 182.9C136.333 185.42 137.053 188.36 137.053 191.72ZM126.553 189.02C126.553 187.26 125.953 185.86 124.753 184.82C123.553 183.78 122.053 183.26 120.253 183.26C118.533 183.26 117.073 183.76 115.873 184.76C114.713 185.76 113.993 187.18 113.713 189.02H126.553ZM152.726 181.1C153.926 179.26 155.426 177.82 157.226 176.78C159.026 175.7 161.026 175.16 163.226 175.16V186.02H160.406C157.846 186.02 155.926 186.58 154.646 187.7C153.366 188.78 152.726 190.7 152.726 193.46V209H142.466V175.52H152.726V181.1ZM166.09 192.2C166.09 188.76 166.73 185.74 168.01 183.14C169.33 180.54 171.11 178.54 173.35 177.14C175.59 175.74 178.09 175.04 180.85 175.04C183.21 175.04 185.27 175.52 187.03 176.48C188.83 177.44 190.21 178.7 191.17 180.26V175.52H201.43V209H191.17V204.26C190.17 205.82 188.77 207.08 186.97 208.04C185.21 209 183.15 209.48 180.79 209.48C178.07 209.48 175.59 208.78 173.35 207.38C171.11 205.94 169.33 203.92 168.01 201.32C166.73 198.68 166.09 195.64 166.09 192.2ZM191.17 192.26C191.17 189.7 190.45 187.68 189.01 186.2C187.61 184.72 185.89 183.98 183.85 183.98C181.81 183.98 180.07 184.72 178.63 186.2C177.23 187.64 176.53 189.64 176.53 192.2C176.53 194.76 177.23 196.8 178.63 198.32C180.07 199.8 181.81 200.54 183.85 200.54C185.89 200.54 187.61 199.8 189.01 198.32C190.45 196.84 191.17 194.82 191.17 192.26ZM206.813 192.26C206.813 188.78 207.513 185.74 208.913 183.14C210.353 180.54 212.333 178.54 214.853 177.14C217.413 175.74 220.333 175.04 223.613 175.04C227.813 175.04 231.313 176.14 234.113 178.34C236.953 180.54 238.813 183.64 239.693 187.64H228.773C227.853 185.08 226.073 183.8 223.433 183.8C221.553 183.8 220.053 184.54 218.933 186.02C217.813 187.46 217.253 189.54 217.253 192.26C217.253 194.98 217.813 197.08 218.933 198.56C220.053 200 221.553 200.72 223.433 200.72C226.073 200.72 227.853 199.44 228.773 196.88H239.693C238.813 200.8 236.953 203.88 234.113 206.12C231.273 208.36 227.773 209.48 223.613 209.48C220.333 209.48 217.413 208.78 214.853 207.38C212.333 205.98 210.353 203.98 208.913 201.38C207.513 198.78 206.813 195.74 206.813 192.26ZM263.841 200.3V209H258.621C254.901 209 252.001 208.1 249.921 206.3C247.841 204.46 246.801 201.48 246.801 197.36V184.04H242.721V175.52H246.801V167.36H257.061V175.52H263.781V184.04H257.061V197.48C257.061 198.48 257.301 199.2 257.781 199.64C258.261 200.08 259.061 200.3 260.181 200.3H263.841ZM274.716 172.04C272.916 172.04 271.436 171.52 270.276 170.48C269.156 169.4 268.596 168.08 268.596 166.52C268.596 164.92 269.156 163.6 270.276 162.56C271.436 161.48 272.916 160.94 274.716 160.94C276.476 160.94 277.916 161.48 279.036 162.56C280.196 163.6 280.776 164.92 280.776 166.52C280.776 168.08 280.196 169.4 279.036 170.48C277.916 171.52 276.476 172.04 274.716 172.04ZM279.816 175.52V209H269.556V175.52H279.816ZM302.491 209.48C299.211 209.48 296.251 208.78 293.611 207.38C291.011 205.98 288.951 203.98 287.431 201.38C285.951 198.78 285.211 195.74 285.211 192.26C285.211 188.82 285.971 185.8 287.491 183.2C289.011 180.56 291.091 178.54 293.731 177.14C296.371 175.74 299.331 175.04 302.611 175.04C305.891 175.04 308.851 175.74 311.491 177.14C314.131 178.54 316.211 180.56 317.731 183.2C319.251 185.8 320.011 188.82 320.011 192.26C320.011 195.7 319.231 198.74 317.671 201.38C316.151 203.98 314.051 205.98 311.371 207.38C308.731 208.78 305.771 209.48 302.491 209.48ZM302.491 200.6C304.451 200.6 306.111 199.88 307.471 198.44C308.871 197 309.571 194.94 309.571 192.26C309.571 189.58 308.891 187.52 307.531 186.08C306.211 184.64 304.571 183.92 302.611 183.92C300.611 183.92 298.951 184.64 297.631 186.08C296.311 187.48 295.651 189.54 295.651 192.26C295.651 194.94 296.291 197 297.571 198.44C298.891 199.88 300.531 200.6 302.491 200.6ZM345.854 175.16C349.774 175.16 352.894 176.44 355.214 179C357.574 181.52 358.754 185 358.754 189.44V209H348.554V190.82C348.554 188.58 347.974 186.84 346.814 185.6C345.654 184.36 344.094 183.74 342.134 183.74C340.174 183.74 338.614 184.36 337.454 185.6C336.294 186.84 335.714 188.58 335.714 190.82V209H325.454V175.52H335.714V179.96C336.754 178.48 338.154 177.32 339.914 176.48C341.674 175.6 343.654 175.16 345.854 175.16ZM20.1917 267.2C20.1917 263.76 20.8317 260.74 22.1117 258.14C23.4317 255.54 25.2117 253.54 27.4517 252.14C29.6917 250.74 32.1917 250.04 34.9517 250.04C37.3117 250.04 39.3717 250.52 41.1317 251.48C42.9317 252.44 44.3117 253.7 45.2717 255.26V250.52H55.5317V284H45.2717V279.26C44.2717 280.82 42.8717 282.08 41.0717 283.04C39.3117 284 37.2517 284.48 34.8917 284.48C32.1717 284.48 29.6917 283.78 27.4517 282.38C25.2117 280.94 23.4317 278.92 22.1117 276.32C20.8317 273.68 20.1917 270.64 20.1917 267.2ZM45.2717 267.26C45.2717 264.7 44.5517 262.68 43.1117 261.2C41.7117 259.72 39.9917 258.98 37.9517 258.98C35.9117 258.98 34.1717 259.72 32.7317 261.2C31.3317 262.64 30.6317 264.64 30.6317 267.2C30.6317 269.76 31.3317 271.8 32.7317 273.32C34.1717 274.8 35.9117 275.54 37.9517 275.54C39.9917 275.54 41.7117 274.8 43.1117 273.32C44.5517 271.84 45.2717 269.82 45.2717 267.26ZM83.3544 250.16C87.2744 250.16 90.3944 251.44 92.7144 254C95.0744 256.52 96.2544 260 96.2544 264.44V284H86.0544V265.82C86.0544 263.58 85.4744 261.84 84.3144 260.6C83.1544 259.36 81.5944 258.74 79.6344 258.74C77.6744 258.74 76.1144 259.36 74.9544 260.6C73.7944 261.84 73.2144 263.58 73.2144 265.82V284H62.9544V250.52H73.2144V254.96C74.2544 253.48 75.6544 252.32 77.4144 251.48C79.1744 250.6 81.1544 250.16 83.3544 250.16ZM101.344 267.2C101.344 263.76 101.984 260.74 103.264 258.14C104.584 255.54 106.364 253.54 108.604 252.14C110.844 250.74 113.344 250.04 116.104 250.04C118.304 250.04 120.304 250.5 122.104 251.42C123.944 252.34 125.384 253.58 126.424 255.14V239.6H136.684V284H126.424V279.2C125.464 280.8 124.084 282.08 122.284 283.04C120.524 284 118.464 284.48 116.104 284.48C113.344 284.48 110.844 283.78 108.604 282.38C106.364 280.94 104.584 278.92 103.264 276.32C101.984 273.68 101.344 270.64 101.344 267.2ZM126.424 267.26C126.424 264.7 125.704 262.68 124.264 261.2C122.864 259.72 121.144 258.98 119.104 258.98C117.064 258.98 115.324 259.72 113.884 261.2C112.484 262.64 111.784 264.64 111.784 267.2C111.784 269.76 112.484 271.8 113.884 273.32C115.324 274.8 117.064 275.54 119.104 275.54C121.144 275.54 122.864 274.8 124.264 273.32C125.704 271.84 126.424 269.82 126.424 267.26ZM170.442 284.48C167.522 284.48 164.922 283.98 162.642 282.98C160.362 281.98 158.562 280.62 157.242 278.9C155.922 277.14 155.182 275.18 155.022 273.02H165.162C165.282 274.18 165.822 275.12 166.782 275.84C167.742 276.56 168.922 276.92 170.322 276.92C171.602 276.92 172.582 276.68 173.262 276.2C173.982 275.68 174.342 275.02 174.342 274.22C174.342 273.26 173.842 272.56 172.842 272.12C171.842 271.64 170.222 271.12 167.982 270.56C165.582 270 163.582 269.42 161.982 268.82C160.382 268.18 159.002 267.2 157.842 265.88C156.682 264.52 156.102 262.7 156.102 260.42C156.102 258.5 156.622 256.76 157.662 255.2C158.742 253.6 160.302 252.34 162.342 251.42C164.422 250.5 166.882 250.04 169.722 250.04C173.922 250.04 177.222 251.08 179.622 253.16C182.062 255.24 183.462 258 183.822 261.44H174.342C174.182 260.28 173.662 259.36 172.782 258.68C171.942 258 170.822 257.66 169.422 257.66C168.222 257.66 167.302 257.9 166.662 258.38C166.022 258.82 165.702 259.44 165.702 260.24C165.702 261.2 166.202 261.92 167.202 262.4C168.242 262.88 169.842 263.36 172.002 263.84C174.482 264.48 176.502 265.12 178.062 265.76C179.622 266.36 180.982 267.36 182.142 268.76C183.342 270.12 183.962 271.96 184.002 274.28C184.002 276.24 183.442 278 182.322 279.56C181.242 281.08 179.662 282.28 177.582 283.16C175.542 284.04 173.162 284.48 170.442 284.48ZM208.939 275.3V284H203.719C199.999 284 197.099 283.1 195.019 281.3C192.939 279.46 191.899 276.48 191.899 272.36V259.04H187.819V250.52H191.899V242.36H202.159V250.52H208.879V259.04H202.159V272.48C202.159 273.48 202.399 274.2 202.879 274.64C203.359 275.08 204.159 275.3 205.279 275.3H208.939ZM229.894 284.48C226.614 284.48 223.654 283.78 221.014 282.38C218.414 280.98 216.354 278.98 214.834 276.38C213.354 273.78 212.614 270.74 212.614 267.26C212.614 263.82 213.374 260.8 214.894 258.2C216.414 255.56 218.494 253.54 221.134 252.14C223.774 250.74 226.734 250.04 230.014 250.04C233.294 250.04 236.254 250.74 238.894 252.14C241.534 253.54 243.614 255.56 245.134 258.2C246.654 260.8 247.414 263.82 247.414 267.26C247.414 270.7 246.634 273.74 245.074 276.38C243.554 278.98 241.454 280.98 238.774 282.38C236.134 283.78 233.174 284.48 229.894 284.48ZM229.894 275.6C231.854 275.6 233.514 274.88 234.874 273.44C236.274 272 236.974 269.94 236.974 267.26C236.974 264.58 236.294 262.52 234.934 261.08C233.614 259.64 231.974 258.92 230.014 258.92C228.014 258.92 226.354 259.64 225.034 261.08C223.714 262.48 223.054 264.54 223.054 267.26C223.054 269.94 223.694 272 224.974 273.44C226.294 274.88 227.934 275.6 229.894 275.6ZM263.117 256.1C264.317 254.26 265.817 252.82 267.617 251.78C269.417 250.7 271.417 250.16 273.617 250.16V261.02H270.797C268.237 261.02 266.317 261.58 265.037 262.7C263.757 263.78 263.117 265.7 263.117 268.46V284H252.857V250.52H263.117V256.1ZM283.681 247.04C281.881 247.04 280.401 246.52 279.241 245.48C278.121 244.4 277.561 243.08 277.561 241.52C277.561 239.92 278.121 238.6 279.241 237.56C280.401 236.48 281.881 235.94 283.681 235.94C285.441 235.94 286.881 236.48 288.001 237.56C289.161 238.6 289.741 239.92 289.741 241.52C289.741 243.08 289.161 244.4 288.001 245.48C286.881 246.52 285.441 247.04 283.681 247.04ZM288.781 250.52V284H278.521V250.52H288.781ZM327.776 266.72C327.776 267.68 327.716 268.68 327.596 269.72H304.376C304.536 271.8 305.196 273.4 306.356 274.52C307.556 275.6 309.016 276.14 310.736 276.14C313.296 276.14 315.076 275.06 316.076 272.9H326.996C326.436 275.1 325.416 277.08 323.936 278.84C322.496 280.6 320.676 281.98 318.476 282.98C316.276 283.98 313.816 284.48 311.096 284.48C307.816 284.48 304.896 283.78 302.336 282.38C299.776 280.98 297.776 278.98 296.336 276.38C294.896 273.78 294.176 270.74 294.176 267.26C294.176 263.78 294.876 260.74 296.276 258.14C297.716 255.54 299.716 253.54 302.276 252.14C304.836 250.74 307.776 250.04 311.096 250.04C314.336 250.04 317.216 250.72 319.736 252.08C322.256 253.44 324.216 255.38 325.616 257.9C327.056 260.42 327.776 263.36 327.776 266.72ZM317.276 264.02C317.276 262.26 316.676 260.86 315.476 259.82C314.276 258.78 312.776 258.26 310.976 258.26C309.256 258.26 307.796 258.76 306.596 259.76C305.436 260.76 304.716 262.18 304.436 264.02H317.276ZM346.809 284.48C343.889 284.48 341.289 283.98 339.009 282.98C336.729 281.98 334.929 280.62 333.609 278.9C332.289 277.14 331.549 275.18 331.389 273.02H341.529C341.649 274.18 342.189 275.12 343.149 275.84C344.109 276.56 345.289 276.92 346.689 276.92C347.969 276.92 348.949 276.68 349.629 276.2C350.349 275.68 350.709 275.02 350.709 274.22C350.709 273.26 350.209 272.56 349.209 272.12C348.209 271.64 346.589 271.12 344.349 270.56C341.949 270 339.949 269.42 338.349 268.82C336.749 268.18 335.369 267.2 334.209 265.88C333.049 264.52 332.469 262.7 332.469 260.42C332.469 258.5 332.989 256.76 334.029 255.2C335.109 253.6 336.669 252.34 338.709 251.42C340.789 250.5 343.249 250.04 346.089 250.04C350.289 250.04 353.589 251.08 355.989 253.16C358.429 255.24 359.829 258 360.189 261.44H350.709C350.549 260.28 350.029 259.36 349.149 258.68C348.309 258 347.189 257.66 345.789 257.66C344.589 257.66 343.669 257.9 343.029 258.38C342.389 258.82 342.069 259.44 342.069 260.24C342.069 261.2 342.569 261.92 343.569 262.4C344.609 262.88 346.209 263.36 348.369 263.84C350.849 264.48 352.869 265.12 354.429 265.76C355.989 266.36 357.349 267.36 358.509 268.76C359.709 270.12 360.329 271.96 360.369 274.28C360.369 276.24 359.809 278 358.689 279.56C357.609 281.08 356.029 282.28 353.949 283.16C351.909 284.04 349.529 284.48 346.809 284.48Z" fill="url(#paint0_linear_3455_13121)"/>
<path d="M86.6875 19.4536C94.6125 19.4536 99.9375 26.9036 99.9375 33.8536C99.9375 47.9286 77.8375 59.4536 77.4375 59.4536C77.0375 59.4536 54.9375 47.9286 54.9375 33.8536C54.9375 26.9036 60.2625 19.4536 68.1875 19.4536C72.7375 19.4536 75.7125 21.7286 77.4375 23.7286C79.1625 21.7286 82.1375 19.4536 86.6875 19.4536Z" stroke="#CB4444" stroke-width="7" stroke-linecap="round" stroke-linejoin="round"/>
<defs>
<linearGradient id="paint0_linear_3455_13121" x1="-200.861" y1="150.667" x2="743.617" y2="150.667" gradientUnits="userSpaceOnUse">
<stop stop-color="white"/>
<stop offset="0.0001" stop-color="#F8F8F8"/>
<stop offset="0.281751" stop-color="#606060"/>
<stop offset="0.631731" stop-color="#232323"/>
<stop offset="1" stop-color="#888888" stop-opacity="0"/>
</linearGradient>
</defs>
</svg>
