<svg width="677" height="529" viewBox="0 0 677 529" fill="none" xmlns="http://www.w3.org/2000/svg">
<path d="M388.903 279V268.289H392.912C393.819 268.289 394.6 268.437 395.253 268.733C395.906 269.019 396.405 269.437 396.752 269.988C397.109 270.528 397.288 271.186 397.288 271.962C397.288 272.716 397.109 273.369 396.752 273.92C396.405 274.461 395.906 274.879 395.253 275.175C394.6 275.471 393.819 275.618 392.912 275.618H389.53L390.035 275.083V279H388.903ZM390.035 275.175L389.53 274.624H392.881C393.952 274.624 394.763 274.394 395.314 273.935C395.875 273.466 396.155 272.808 396.155 271.962C396.155 271.105 395.875 270.442 395.314 269.972C394.763 269.503 393.952 269.269 392.881 269.269H389.53L390.035 268.733V275.175ZM402.736 279.077C401.961 279.077 401.262 278.903 400.64 278.556C400.028 278.199 399.543 277.715 399.186 277.103C398.829 276.48 398.651 275.771 398.651 274.976C398.651 274.17 398.829 273.461 399.186 272.849C399.543 272.237 400.028 271.758 400.64 271.411C401.252 271.064 401.951 270.89 402.736 270.89C403.532 270.89 404.236 271.064 404.848 271.411C405.47 271.758 405.954 272.237 406.301 272.849C406.658 273.461 406.837 274.17 406.837 274.976C406.837 275.771 406.658 276.48 406.301 277.103C405.954 277.715 405.47 278.199 404.848 278.556C404.225 278.903 403.521 279.077 402.736 279.077ZM402.736 278.113C403.317 278.113 403.833 277.985 404.281 277.73C404.73 277.465 405.082 277.098 405.337 276.628C405.602 276.149 405.735 275.598 405.735 274.976C405.735 274.343 405.602 273.793 405.337 273.323C405.082 272.854 404.73 272.492 404.281 272.237C403.833 271.972 403.323 271.839 402.751 271.839C402.18 271.839 401.67 271.972 401.221 272.237C400.772 272.492 400.415 272.854 400.15 273.323C399.885 273.793 399.752 274.343 399.752 274.976C399.752 275.598 399.885 276.149 400.15 276.628C400.415 277.098 400.772 277.465 401.221 277.73C401.67 277.985 402.175 278.113 402.736 278.113ZM410.468 279L407.438 270.967H408.479L411.233 278.419H410.758L413.589 270.967H414.522L417.323 278.419H416.848L419.648 270.967H420.643L417.598 279H416.573L413.88 271.992H414.201L411.493 279H410.468ZM425.467 279.077C424.63 279.077 423.896 278.903 423.263 278.556C422.631 278.199 422.136 277.715 421.779 277.103C421.422 276.48 421.244 275.771 421.244 274.976C421.244 274.18 421.412 273.476 421.748 272.864C422.095 272.252 422.564 271.773 423.156 271.426C423.758 271.069 424.431 270.89 425.176 270.89C425.931 270.89 426.599 271.064 427.18 271.411C427.772 271.747 428.236 272.227 428.573 272.849C428.909 273.461 429.078 274.17 429.078 274.976C429.078 275.027 429.073 275.083 429.062 275.144C429.062 275.195 429.062 275.251 429.062 275.312H422.07V274.502H428.481L428.052 274.823C428.052 274.241 427.925 273.726 427.67 273.277C427.425 272.818 427.088 272.461 426.66 272.206C426.232 271.951 425.737 271.824 425.176 271.824C424.625 271.824 424.13 271.951 423.692 272.206C423.253 272.461 422.911 272.818 422.667 273.277C422.422 273.736 422.299 274.262 422.299 274.853V275.022C422.299 275.634 422.432 276.174 422.697 276.644C422.973 277.103 423.35 277.465 423.829 277.73C424.319 277.985 424.875 278.113 425.497 278.113C425.987 278.113 426.441 278.026 426.859 277.852C427.287 277.679 427.655 277.414 427.961 277.057L428.573 277.761C428.216 278.189 427.767 278.515 427.226 278.74C426.696 278.964 426.109 279.077 425.467 279.077ZM431.289 279V270.967H432.329V273.155L432.222 272.773C432.447 272.16 432.824 271.696 433.354 271.38C433.885 271.054 434.543 270.89 435.328 270.89V271.946C435.287 271.946 435.247 271.946 435.206 271.946C435.165 271.936 435.124 271.931 435.083 271.931C434.237 271.931 433.574 272.191 433.094 272.711C432.615 273.221 432.375 273.951 432.375 274.899V279H431.289ZM440.648 279.077C439.812 279.077 439.077 278.903 438.445 278.556C437.812 278.199 437.318 277.715 436.96 277.103C436.603 276.48 436.425 275.771 436.425 274.976C436.425 274.18 436.593 273.476 436.93 272.864C437.277 272.252 437.746 271.773 438.338 271.426C438.939 271.069 439.613 270.89 440.357 270.89C441.112 270.89 441.78 271.064 442.362 271.411C442.953 271.747 443.417 272.227 443.754 272.849C444.091 273.461 444.259 274.17 444.259 274.976C444.259 275.027 444.254 275.083 444.244 275.144C444.244 275.195 444.244 275.251 444.244 275.312H437.251V274.502H443.662L443.234 274.823C443.234 274.241 443.106 273.726 442.851 273.277C442.607 272.818 442.27 272.461 441.841 272.206C441.413 271.951 440.918 271.824 440.357 271.824C439.806 271.824 439.312 271.951 438.873 272.206C438.434 272.461 438.093 272.818 437.848 273.277C437.603 273.736 437.481 274.262 437.481 274.853V275.022C437.481 275.634 437.613 276.174 437.879 276.644C438.154 277.103 438.531 277.465 439.011 277.73C439.5 277.985 440.056 278.113 440.679 278.113C441.168 278.113 441.622 278.026 442.04 277.852C442.469 277.679 442.836 277.414 443.142 277.057L443.754 277.761C443.397 278.189 442.948 278.515 442.408 278.74C441.877 278.964 441.291 279.077 440.648 279.077ZM449.668 279.077C448.903 279.077 448.215 278.903 447.603 278.556C447.001 278.209 446.526 277.73 446.18 277.118C445.833 276.496 445.659 275.782 445.659 274.976C445.659 274.16 445.833 273.446 446.18 272.834C446.526 272.222 447.001 271.747 447.603 271.411C448.215 271.064 448.903 270.89 449.668 270.89C450.372 270.89 450.999 271.049 451.55 271.365C452.111 271.681 452.555 272.145 452.881 272.757C453.218 273.359 453.386 274.099 453.386 274.976C453.386 275.843 453.223 276.582 452.897 277.194C452.57 277.807 452.127 278.276 451.565 278.602C451.015 278.918 450.382 279.077 449.668 279.077ZM449.745 278.113C450.316 278.113 450.826 277.985 451.275 277.73C451.734 277.465 452.091 277.098 452.346 276.628C452.611 276.149 452.744 275.598 452.744 274.976C452.744 274.343 452.611 273.793 452.346 273.323C452.091 272.854 451.734 272.492 451.275 272.237C450.826 271.972 450.316 271.839 449.745 271.839C449.184 271.839 448.679 271.972 448.23 272.237C447.781 272.492 447.424 272.854 447.159 273.323C446.894 273.793 446.761 274.343 446.761 274.976C446.761 275.598 446.894 276.149 447.159 276.628C447.424 277.098 447.781 277.465 448.23 277.73C448.679 277.985 449.184 278.113 449.745 278.113ZM452.774 279V276.582L452.881 274.961L452.728 273.339V267.647H453.815V279H452.774ZM464.991 279.077C464.288 279.077 463.655 278.918 463.094 278.602C462.533 278.276 462.089 277.807 461.763 277.194C461.436 276.582 461.273 275.843 461.273 274.976C461.273 274.099 461.436 273.359 461.763 272.757C462.099 272.145 462.548 271.681 463.109 271.365C463.67 271.049 464.298 270.89 464.991 270.89C465.756 270.89 466.44 271.064 467.042 271.411C467.654 271.747 468.133 272.222 468.48 272.834C468.827 273.446 469 274.16 469 274.976C469 275.782 468.827 276.496 468.48 277.118C468.133 277.73 467.654 278.209 467.042 278.556C466.44 278.903 465.756 279.077 464.991 279.077ZM460.845 279V267.647H461.931V273.339L461.778 274.961L461.885 276.582V279H460.845ZM464.915 278.113C465.486 278.113 465.996 277.985 466.445 277.73C466.894 277.465 467.251 277.098 467.516 276.628C467.781 276.149 467.914 275.598 467.914 274.976C467.914 274.343 467.781 273.793 467.516 273.323C467.251 272.854 466.894 272.492 466.445 272.237C465.996 271.972 465.486 271.839 464.915 271.839C464.344 271.839 463.829 271.972 463.369 272.237C462.921 272.492 462.564 272.854 462.298 273.323C462.043 273.793 461.916 274.343 461.916 274.976C461.916 275.598 462.043 276.149 462.298 276.628C462.564 277.098 462.921 277.465 463.369 277.73C463.829 277.985 464.344 278.113 464.915 278.113ZM471.052 282.045C470.674 282.045 470.312 281.984 469.966 281.861C469.629 281.739 469.338 281.555 469.093 281.31L469.598 280.499C469.802 280.693 470.022 280.841 470.256 280.943C470.501 281.055 470.771 281.112 471.067 281.112C471.424 281.112 471.73 281.01 471.985 280.806C472.25 280.612 472.5 280.265 472.735 279.765L473.255 278.587L473.378 278.419L476.683 270.967H477.754L473.73 279.964C473.505 280.484 473.255 280.897 472.98 281.203C472.715 281.509 472.424 281.724 472.108 281.846C471.791 281.979 471.44 282.045 471.052 282.045ZM473.194 279.23L469.491 270.967H470.623L473.898 278.342L473.194 279.23ZM485.599 279V269.269H481.835V268.289H490.495V269.269H486.731V279H485.599ZM491.865 279V270.967H492.906V273.155L492.799 272.773C493.023 272.16 493.4 271.696 493.931 271.38C494.461 271.054 495.119 270.89 495.905 270.89V271.946C495.864 271.946 495.823 271.946 495.782 271.946C495.741 271.936 495.701 271.931 495.66 271.931C494.813 271.931 494.15 272.191 493.671 272.711C493.191 273.221 492.952 273.951 492.952 274.899V279H491.865ZM502.323 279V277.225L502.277 276.934V273.966C502.277 273.283 502.084 272.757 501.696 272.39C501.318 272.023 500.752 271.839 499.997 271.839C499.477 271.839 498.983 271.926 498.513 272.099C498.044 272.273 497.646 272.502 497.32 272.788L496.83 271.977C497.238 271.63 497.728 271.365 498.299 271.181C498.87 270.987 499.472 270.89 500.105 270.89C501.145 270.89 501.946 271.151 502.507 271.671C503.078 272.181 503.364 272.961 503.364 274.012V279H502.323ZM499.554 279.077C498.952 279.077 498.427 278.98 497.978 278.786C497.539 278.582 497.203 278.306 496.968 277.96C496.733 277.603 496.616 277.194 496.616 276.735C496.616 276.317 496.713 275.94 496.907 275.603C497.111 275.256 497.437 274.981 497.886 274.777C498.345 274.563 498.957 274.456 499.722 274.456H502.492V275.267H499.753C498.977 275.267 498.437 275.404 498.131 275.68C497.835 275.955 497.687 276.297 497.687 276.705C497.687 277.164 497.866 277.531 498.223 277.807C498.58 278.082 499.079 278.22 499.722 278.22C500.334 278.22 500.859 278.082 501.298 277.807C501.747 277.521 502.073 277.113 502.277 276.582L502.522 277.332C502.318 277.863 501.961 278.286 501.451 278.602C500.951 278.918 500.319 279.077 499.554 279.077ZM506.314 279V270.967H507.401V279H506.314ZM506.865 269.192C506.641 269.192 506.452 269.116 506.299 268.963C506.146 268.81 506.07 268.626 506.07 268.412C506.07 268.198 506.146 268.019 506.299 267.876C506.452 267.723 506.641 267.647 506.865 267.647C507.09 267.647 507.278 267.718 507.431 267.861C507.584 268.004 507.661 268.182 507.661 268.396C507.661 268.621 507.584 268.81 507.431 268.963C507.289 269.116 507.1 269.192 506.865 269.192ZM514.524 270.89C515.177 270.89 515.748 271.018 516.238 271.273C516.738 271.518 517.125 271.895 517.401 272.405C517.686 272.915 517.829 273.558 517.829 274.333V279H516.743V274.44C516.743 273.594 516.529 272.956 516.1 272.528C515.682 272.089 515.09 271.87 514.325 271.87C513.754 271.87 513.254 271.987 512.826 272.222C512.408 272.446 512.081 272.778 511.847 273.216C511.622 273.645 511.51 274.165 511.51 274.777V279H510.424V270.967H511.464V273.17L511.296 272.757C511.551 272.176 511.959 271.722 512.52 271.395C513.081 271.059 513.749 270.89 514.524 270.89ZM530.801 270.89C531.454 270.89 532.02 271.018 532.499 271.273C532.989 271.518 533.367 271.895 533.632 272.405C533.907 272.915 534.045 273.558 534.045 274.333V279H532.959V274.44C532.959 273.594 532.755 272.956 532.346 272.528C531.949 272.089 531.383 271.87 530.648 271.87C530.097 271.87 529.618 271.987 529.21 272.222C528.812 272.446 528.501 272.778 528.276 273.216C528.062 273.645 527.955 274.165 527.955 274.777V279H526.869V274.44C526.869 273.594 526.665 272.956 526.257 272.528C525.849 272.089 525.277 271.87 524.543 271.87C524.002 271.87 523.528 271.987 523.12 272.222C522.712 272.446 522.396 272.778 522.171 273.216C521.957 273.645 521.85 274.165 521.85 274.777V279H520.764V270.967H521.804V273.14L521.636 272.757C521.881 272.176 522.273 271.722 522.814 271.395C523.365 271.059 524.013 270.89 524.757 270.89C525.543 270.89 526.211 271.089 526.762 271.487C527.312 271.875 527.669 272.461 527.833 273.247L527.404 273.079C527.639 272.426 528.052 271.9 528.644 271.503C529.245 271.094 529.965 270.89 530.801 270.89ZM542.025 279V277.225L541.979 276.934V273.966C541.979 273.283 541.785 272.757 541.398 272.39C541.02 272.023 540.454 271.839 539.699 271.839C539.179 271.839 538.684 271.926 538.215 272.099C537.746 272.273 537.348 272.502 537.022 272.788L536.532 271.977C536.94 271.63 537.43 271.365 538.001 271.181C538.572 270.987 539.174 270.89 539.806 270.89C540.847 270.89 541.648 271.151 542.209 271.671C542.78 272.181 543.066 272.961 543.066 274.012V279H542.025ZM539.256 279.077C538.654 279.077 538.128 278.98 537.68 278.786C537.241 278.582 536.904 278.306 536.67 277.96C536.435 277.603 536.318 277.194 536.318 276.735C536.318 276.317 536.415 275.94 536.609 275.603C536.813 275.256 537.139 274.981 537.588 274.777C538.047 274.563 538.659 274.456 539.424 274.456H542.193V275.267H539.455C538.679 275.267 538.139 275.404 537.833 275.68C537.537 275.955 537.389 276.297 537.389 276.705C537.389 277.164 537.567 277.531 537.924 277.807C538.281 278.082 538.781 278.22 539.424 278.22C540.036 278.22 540.561 278.082 541 277.807C541.449 277.521 541.775 277.113 541.979 276.582L542.224 277.332C542.02 277.863 541.663 278.286 541.153 278.602C540.653 278.918 540.021 279.077 539.256 279.077ZM550.117 270.89C550.77 270.89 551.341 271.018 551.831 271.273C552.33 271.518 552.718 271.895 552.993 272.405C553.279 272.915 553.422 273.558 553.422 274.333V279H552.336V274.44C552.336 273.594 552.121 272.956 551.693 272.528C551.275 272.089 550.683 271.87 549.918 271.87C549.347 271.87 548.847 271.987 548.418 272.222C548 272.446 547.674 272.778 547.439 273.216C547.215 273.645 547.103 274.165 547.103 274.777V279H546.016V270.967H547.057V273.17L546.888 272.757C547.143 272.176 547.551 271.722 548.112 271.395C548.673 271.059 549.342 270.89 550.117 270.89Z" fill="#D1D5DB"/>
<path d="M86.6372 441.12C86.1732 440.144 85.5012 439.392 84.6212 438.864C83.7412 438.32 82.7172 438.048 81.5492 438.048C80.3812 438.048 79.3252 438.32 78.3812 438.864C77.4532 439.392 76.7172 440.16 76.1732 441.168C75.6452 442.16 75.3812 443.312 75.3812 444.624C75.3812 445.936 75.6452 447.088 76.1732 448.08C76.7172 449.072 77.4532 449.84 78.3812 450.384C79.3252 450.912 80.3812 451.176 81.5492 451.176C83.1812 451.176 84.5252 450.688 85.5812 449.712C86.6372 448.736 87.2532 447.416 87.4292 445.752H80.7572V443.976H89.7572V445.656C89.6292 447.032 89.1972 448.296 88.4612 449.448C87.7252 450.584 86.7572 451.488 85.5572 452.16C84.3572 452.816 83.0212 453.144 81.5492 453.144C79.9972 453.144 78.5812 452.784 77.3012 452.064C76.0212 451.328 75.0052 450.312 74.2532 449.016C73.5172 447.72 73.1492 446.256 73.1492 444.624C73.1492 442.992 73.5172 441.528 74.2532 440.232C75.0052 438.92 76.0212 437.904 77.3012 437.184C78.5812 436.448 79.9972 436.08 81.5492 436.08C83.3252 436.08 84.8932 436.52 86.2532 437.4C87.6292 438.28 88.6292 439.52 89.2532 441.12H86.6372ZM104.645 445.92C104.645 446.336 104.621 446.776 104.573 447.24H94.0609C94.1409 448.536 94.5809 449.552 95.3809 450.288C96.1969 451.008 97.1809 451.368 98.3329 451.368C99.2769 451.368 100.061 451.152 100.685 450.72C101.325 450.272 101.773 449.68 102.029 448.944H104.381C104.029 450.208 103.325 451.24 102.269 452.04C101.213 452.824 99.9009 453.216 98.3329 453.216C97.0849 453.216 95.9649 452.936 94.9729 452.376C93.9969 451.816 93.2289 451.024 92.6689 450C92.1089 448.96 91.8289 447.76 91.8289 446.4C91.8289 445.04 92.1009 443.848 92.6449 442.824C93.1889 441.8 93.9489 441.016 94.9249 440.472C95.9169 439.912 97.0529 439.632 98.3329 439.632C99.5809 439.632 100.685 439.904 101.645 440.448C102.605 440.992 103.341 441.744 103.853 442.704C104.381 443.648 104.645 444.72 104.645 445.92ZM102.389 445.464C102.389 444.632 102.205 443.92 101.837 443.328C101.469 442.72 100.965 442.264 100.325 441.96C99.7009 441.64 99.0049 441.48 98.2369 441.48C97.1329 441.48 96.1889 441.832 95.4049 442.536C94.6369 443.24 94.1969 444.216 94.0849 445.464H102.389ZM110.192 441.648V449.4C110.192 450.04 110.328 450.496 110.6 450.768C110.872 451.024 111.344 451.152 112.016 451.152H113.624V453H111.656C110.44 453 109.528 452.72 108.92 452.16C108.312 451.6 108.008 450.68 108.008 449.4V441.648H106.304V439.848H108.008V436.536H110.192V439.848H113.624V441.648H110.192ZM128.02 441.648H125.26V453H123.076V441.648H121.372V439.848H123.076V438.912C123.076 437.44 123.452 436.368 124.204 435.696C124.972 435.008 126.196 434.664 127.876 434.664V436.488C126.916 436.488 126.236 436.68 125.836 437.064C125.452 437.432 125.26 438.048 125.26 438.912V439.848H128.02V441.648ZM132.751 441.984C133.135 441.232 133.679 440.648 134.383 440.232C135.103 439.816 135.975 439.608 136.999 439.608V441.864H136.423C133.975 441.864 132.751 443.192 132.751 445.848V453H130.567V439.848H132.751V441.984ZM151.52 445.92C151.52 446.336 151.496 446.776 151.448 447.24H140.936C141.016 448.536 141.456 449.552 142.256 450.288C143.072 451.008 144.056 451.368 145.208 451.368C146.152 451.368 146.936 451.152 147.56 450.72C148.2 450.272 148.648 449.68 148.904 448.944H151.256C150.904 450.208 150.2 451.24 149.144 452.04C148.088 452.824 146.776 453.216 145.208 453.216C143.96 453.216 142.84 452.936 141.848 452.376C140.872 451.816 140.104 451.024 139.544 450C138.984 448.96 138.704 447.76 138.704 446.4C138.704 445.04 138.976 443.848 139.52 442.824C140.064 441.8 140.824 441.016 141.8 440.472C142.792 439.912 143.928 439.632 145.208 439.632C146.456 439.632 147.56 439.904 148.52 440.448C149.48 440.992 150.216 441.744 150.728 442.704C151.256 443.648 151.52 444.72 151.52 445.92ZM149.264 445.464C149.264 444.632 149.08 443.92 148.712 443.328C148.344 442.72 147.84 442.264 147.2 441.96C146.576 441.64 145.88 441.48 145.112 441.48C144.008 441.48 143.064 441.832 142.28 442.536C141.512 443.24 141.072 444.216 140.96 445.464H149.264ZM166.403 445.92C166.403 446.336 166.379 446.776 166.331 447.24H155.819C155.899 448.536 156.339 449.552 157.139 450.288C157.955 451.008 158.939 451.368 160.091 451.368C161.035 451.368 161.819 451.152 162.443 450.72C163.083 450.272 163.531 449.68 163.787 448.944H166.139C165.787 450.208 165.083 451.24 164.027 452.04C162.971 452.824 161.659 453.216 160.091 453.216C158.843 453.216 157.723 452.936 156.731 452.376C155.755 451.816 154.987 451.024 154.427 450C153.867 448.96 153.587 447.76 153.587 446.4C153.587 445.04 153.859 443.848 154.403 442.824C154.947 441.8 155.707 441.016 156.683 440.472C157.675 439.912 158.811 439.632 160.091 439.632C161.339 439.632 162.443 439.904 163.403 440.448C164.363 440.992 165.099 441.744 165.611 442.704C166.139 443.648 166.403 444.72 166.403 445.92ZM164.147 445.464C164.147 444.632 163.963 443.92 163.595 443.328C163.227 442.72 162.723 442.264 162.083 441.96C161.459 441.64 160.763 441.48 159.995 441.48C158.891 441.48 157.947 441.832 157.163 442.536C156.395 443.24 155.955 444.216 155.843 445.464H164.147ZM181.036 441.648H178.276V453H176.092V441.648H174.388V439.848H176.092V438.912C176.092 437.44 176.468 436.368 177.22 435.696C177.988 435.008 179.212 434.664 180.892 434.664V436.488C179.932 436.488 179.252 436.68 178.852 437.064C178.468 437.432 178.276 438.048 178.276 438.912V439.848H181.036V441.648ZM185.766 435.24V453H183.582V435.24H185.766ZM190.617 437.712C190.201 437.712 189.849 437.568 189.561 437.28C189.273 436.992 189.129 436.64 189.129 436.224C189.129 435.808 189.273 435.456 189.561 435.168C189.849 434.88 190.201 434.736 190.617 434.736C191.017 434.736 191.353 434.88 191.625 435.168C191.913 435.456 192.057 435.808 192.057 436.224C192.057 436.64 191.913 436.992 191.625 437.28C191.353 437.568 191.017 437.712 190.617 437.712ZM191.673 439.848V453H189.489V439.848H191.673ZM200.819 439.632C201.955 439.632 202.947 439.88 203.795 440.376C204.659 440.872 205.299 441.496 205.715 442.248V439.848H207.923V453.288C207.923 454.488 207.667 455.552 207.155 456.48C206.643 457.424 205.907 458.16 204.947 458.688C204.003 459.216 202.899 459.48 201.635 459.48C199.907 459.48 198.467 459.072 197.315 458.256C196.163 457.44 195.483 456.328 195.275 454.92H197.435C197.675 455.72 198.171 456.36 198.923 456.84C199.675 457.336 200.579 457.584 201.635 457.584C202.835 457.584 203.811 457.208 204.563 456.456C205.331 455.704 205.715 454.648 205.715 453.288V450.528C205.283 451.296 204.643 451.936 203.795 452.448C202.947 452.96 201.955 453.216 200.819 453.216C199.651 453.216 198.587 452.928 197.627 452.352C196.683 451.776 195.939 450.968 195.395 449.928C194.851 448.888 194.579 447.704 194.579 446.376C194.579 445.032 194.851 443.856 195.395 442.848C195.939 441.824 196.683 441.032 197.627 440.472C198.587 439.912 199.651 439.632 200.819 439.632ZM205.715 446.4C205.715 445.408 205.515 444.544 205.115 443.808C204.715 443.072 204.171 442.512 203.483 442.128C202.811 441.728 202.067 441.528 201.251 441.528C200.435 441.528 199.691 441.72 199.019 442.104C198.347 442.488 197.811 443.048 197.411 443.784C197.011 444.52 196.811 445.384 196.811 446.376C196.811 447.384 197.011 448.264 197.411 449.016C197.811 449.752 198.347 450.32 199.019 450.72C199.691 451.104 200.435 451.296 201.251 451.296C202.067 451.296 202.811 451.104 203.483 450.72C204.171 450.32 204.715 449.752 205.115 449.016C205.515 448.264 205.715 447.392 205.715 446.4ZM218.142 439.608C219.134 439.608 220.03 439.824 220.83 440.256C221.63 440.672 222.254 441.304 222.702 442.152C223.166 443 223.398 444.032 223.398 445.248V453H221.238V445.56C221.238 444.248 220.91 443.248 220.254 442.56C219.598 441.856 218.702 441.504 217.566 441.504C216.414 441.504 215.494 441.864 214.806 442.584C214.134 443.304 213.798 444.352 213.798 445.728V453H211.614V435.24H213.798V441.72C214.23 441.048 214.822 440.528 215.574 440.16C216.342 439.792 217.198 439.608 218.142 439.608ZM229.629 441.648V449.4C229.629 450.04 229.765 450.496 230.037 450.768C230.309 451.024 230.781 451.152 231.453 451.152H233.061V453H231.093C229.877 453 228.965 452.72 228.357 452.16C227.749 451.6 227.445 450.68 227.445 449.4V441.648H225.741V439.848H227.445V436.536H229.629V439.848H233.061V441.648H229.629ZM244.77 441.648V449.4C244.77 450.04 244.906 450.496 245.178 450.768C245.45 451.024 245.922 451.152 246.594 451.152H248.202V453H246.234C245.018 453 244.106 452.72 243.498 452.16C242.89 451.6 242.586 450.68 242.586 449.4V441.648H240.882V439.848H242.586V436.536H244.77V439.848H248.202V441.648H244.77ZM251.976 437.712C251.56 437.712 251.208 437.568 250.92 437.28C250.632 436.992 250.488 436.64 250.488 436.224C250.488 435.808 250.632 435.456 250.92 435.168C251.208 434.88 251.56 434.736 251.976 434.736C252.376 434.736 252.712 434.88 252.984 435.168C253.272 435.456 253.416 435.808 253.416 436.224C253.416 436.64 253.272 436.992 252.984 437.28C252.712 437.568 252.376 437.712 251.976 437.712ZM253.032 439.848V453H250.848V439.848H253.032ZM255.938 446.4C255.938 445.04 256.21 443.856 256.754 442.848C257.298 441.824 258.05 441.032 259.01 440.472C259.986 439.912 261.098 439.632 262.346 439.632C263.962 439.632 265.29 440.024 266.33 440.808C267.386 441.592 268.082 442.68 268.418 444.072H266.066C265.842 443.272 265.402 442.64 264.746 442.176C264.106 441.712 263.306 441.48 262.346 441.48C261.098 441.48 260.09 441.912 259.322 442.776C258.554 443.624 258.17 444.832 258.17 446.4C258.17 447.984 258.554 449.208 259.322 450.072C260.09 450.936 261.098 451.368 262.346 451.368C263.306 451.368 264.106 451.144 264.746 450.696C265.386 450.248 265.826 449.608 266.066 448.776H268.418C268.066 450.12 267.362 451.2 266.306 452.016C265.25 452.816 263.93 453.216 262.346 453.216C261.098 453.216 259.986 452.936 259.01 452.376C258.05 451.816 257.298 451.024 256.754 450C256.21 448.976 255.938 447.776 255.938 446.4ZM278.676 453L273.516 447.192V453H271.332V435.24H273.516V445.68L278.58 439.848H281.628L275.436 446.4L281.652 453H278.676ZM295.684 445.92C295.684 446.336 295.66 446.776 295.612 447.24H285.1C285.18 448.536 285.62 449.552 286.42 450.288C287.236 451.008 288.22 451.368 289.372 451.368C290.316 451.368 291.1 451.152 291.724 450.72C292.364 450.272 292.812 449.68 293.068 448.944H295.42C295.068 450.208 294.364 451.24 293.308 452.04C292.252 452.824 290.94 453.216 289.372 453.216C288.124 453.216 287.004 452.936 286.012 452.376C285.036 451.816 284.268 451.024 283.708 450C283.148 448.96 282.868 447.76 282.868 446.4C282.868 445.04 283.14 443.848 283.684 442.824C284.228 441.8 284.988 441.016 285.964 440.472C286.956 439.912 288.092 439.632 289.372 439.632C290.62 439.632 291.724 439.904 292.684 440.448C293.644 440.992 294.38 441.744 294.892 442.704C295.42 443.648 295.684 444.72 295.684 445.92ZM293.428 445.464C293.428 444.632 293.244 443.92 292.876 443.328C292.508 442.72 292.004 442.264 291.364 441.96C290.74 441.64 290.044 441.48 289.276 441.48C288.172 441.48 287.228 441.832 286.444 442.536C285.676 443.24 285.236 444.216 285.124 445.464H293.428ZM301.231 441.648V449.4C301.231 450.04 301.367 450.496 301.639 450.768C301.911 451.024 302.383 451.152 303.055 451.152H304.663V453H302.695C301.479 453 300.567 452.72 299.959 452.16C299.351 451.6 299.047 450.68 299.047 449.4V441.648H297.343V439.848H299.047V436.536H301.231V439.848H304.663V441.648H301.231ZM319.443 453.216C318.211 453.216 317.091 452.936 316.083 452.376C315.091 451.816 314.307 451.024 313.731 450C313.171 448.96 312.891 447.76 312.891 446.4C312.891 445.056 313.179 443.872 313.755 442.848C314.347 441.808 315.147 441.016 316.155 440.472C317.163 439.912 318.291 439.632 319.539 439.632C320.787 439.632 321.915 439.912 322.923 440.472C323.931 441.016 324.723 441.8 325.299 442.824C325.891 443.848 326.187 445.04 326.187 446.4C326.187 447.76 325.883 448.96 325.275 450C324.683 451.024 323.875 451.816 322.851 452.376C321.827 452.936 320.691 453.216 319.443 453.216ZM319.443 451.296C320.227 451.296 320.963 451.112 321.651 450.744C322.339 450.376 322.891 449.824 323.307 449.088C323.739 448.352 323.955 447.456 323.955 446.4C323.955 445.344 323.747 444.448 323.331 443.712C322.915 442.976 322.371 442.432 321.699 442.08C321.027 441.712 320.299 441.528 319.515 441.528C318.715 441.528 317.979 441.712 317.307 442.08C316.651 442.432 316.123 442.976 315.723 443.712C315.323 444.448 315.123 445.344 315.123 446.4C315.123 447.472 315.315 448.376 315.699 449.112C316.099 449.848 316.627 450.4 317.283 450.768C317.939 451.12 318.659 451.296 319.443 451.296ZM335.467 439.608C337.067 439.608 338.363 440.096 339.355 441.072C340.347 442.032 340.843 443.424 340.843 445.248V453H338.683V445.56C338.683 444.248 338.355 443.248 337.699 442.56C337.043 441.856 336.147 441.504 335.011 441.504C333.859 441.504 332.939 441.864 332.251 442.584C331.579 443.304 331.243 444.352 331.243 445.728V453H329.059V439.848H331.243V441.72C331.675 441.048 332.259 440.528 332.995 440.16C333.747 439.792 334.571 439.608 335.467 439.608ZM368.329 439.848L364.225 453H361.969L358.801 442.56L355.633 453H353.377L349.249 439.848H351.481L354.505 450.888L357.769 439.848H360.001L363.193 450.912L366.169 439.848H368.329ZM369.68 446.376C369.68 445.032 369.952 443.856 370.496 442.848C371.04 441.824 371.784 441.032 372.728 440.472C373.688 439.912 374.752 439.632 375.92 439.632C377.072 439.632 378.072 439.88 378.92 440.376C379.768 440.872 380.4 441.496 380.816 442.248V439.848H383.024V453H380.816V450.552C380.384 451.32 379.736 451.96 378.872 452.472C378.024 452.968 377.032 453.216 375.896 453.216C374.728 453.216 373.672 452.928 372.728 452.352C371.784 451.776 371.04 450.968 370.496 449.928C369.952 448.888 369.68 447.704 369.68 446.376ZM380.816 446.4C380.816 445.408 380.616 444.544 380.216 443.808C379.816 443.072 379.272 442.512 378.584 442.128C377.912 441.728 377.168 441.528 376.352 441.528C375.536 441.528 374.792 441.72 374.12 442.104C373.448 442.488 372.912 443.048 372.512 443.784C372.112 444.52 371.912 445.384 371.912 446.376C371.912 447.384 372.112 448.264 372.512 449.016C372.912 449.752 373.448 450.32 374.12 450.72C374.792 451.104 375.536 451.296 376.352 451.296C377.168 451.296 377.912 451.104 378.584 450.72C379.272 450.32 379.816 449.752 380.216 449.016C380.616 448.264 380.816 447.392 380.816 446.4ZM387.843 437.712C387.427 437.712 387.075 437.568 386.787 437.28C386.499 436.992 386.355 436.64 386.355 436.224C386.355 435.808 386.499 435.456 386.787 435.168C387.075 434.88 387.427 434.736 387.843 434.736C388.243 434.736 388.579 434.88 388.851 435.168C389.139 435.456 389.283 435.808 389.283 436.224C389.283 436.64 389.139 436.992 388.851 437.28C388.579 437.568 388.243 437.712 387.843 437.712ZM388.899 439.848V453H386.715V439.848H388.899ZM395.285 441.648V449.4C395.285 450.04 395.421 450.496 395.693 450.768C395.965 451.024 396.437 451.152 397.109 451.152H398.717V453H396.749C395.533 453 394.621 452.72 394.013 452.16C393.405 451.6 393.101 450.68 393.101 449.4V441.648H391.397V439.848H393.101V436.536H395.285V439.848H398.717V441.648H395.285ZM403.548 435.24V453H401.364V435.24H403.548ZM408.398 437.712C407.982 437.712 407.63 437.568 407.342 437.28C407.054 436.992 406.91 436.64 406.91 436.224C406.91 435.808 407.054 435.456 407.342 435.168C407.63 434.88 407.982 434.736 408.398 434.736C408.798 434.736 409.134 434.88 409.406 435.168C409.694 435.456 409.838 435.808 409.838 436.224C409.838 436.64 409.694 436.992 409.406 437.28C409.134 437.568 408.798 437.712 408.398 437.712ZM409.454 439.848V453H407.27V439.848H409.454ZM417.832 453.216C416.824 453.216 415.92 453.048 415.12 452.712C414.32 452.36 413.688 451.88 413.224 451.272C412.76 450.648 412.504 449.936 412.456 449.136H414.712C414.776 449.792 415.08 450.328 415.624 450.744C416.184 451.16 416.912 451.368 417.808 451.368C418.64 451.368 419.296 451.184 419.776 450.816C420.256 450.448 420.496 449.984 420.496 449.424C420.496 448.848 420.24 448.424 419.728 448.152C419.216 447.864 418.424 447.584 417.352 447.312C416.376 447.056 415.576 446.8 414.952 446.544C414.344 446.272 413.816 445.88 413.368 445.368C412.936 444.84 412.72 444.152 412.72 443.304C412.72 442.632 412.92 442.016 413.32 441.456C413.72 440.896 414.288 440.456 415.024 440.136C415.76 439.8 416.6 439.632 417.544 439.632C419 439.632 420.176 440 421.072 440.736C421.968 441.472 422.448 442.48 422.512 443.76H420.328C420.28 443.072 420 442.52 419.488 442.104C418.992 441.688 418.32 441.48 417.472 441.48C416.688 441.48 416.064 441.648 415.6 441.984C415.136 442.32 414.904 442.76 414.904 443.304C414.904 443.736 415.04 444.096 415.312 444.384C415.6 444.656 415.952 444.88 416.368 445.056C416.8 445.216 417.392 445.4 418.144 445.608C419.088 445.864 419.856 446.12 420.448 446.376C421.04 446.616 421.544 446.984 421.96 447.48C422.392 447.976 422.616 448.624 422.632 449.424C422.632 450.144 422.432 450.792 422.032 451.368C421.632 451.944 421.064 452.4 420.328 452.736C419.608 453.056 418.776 453.216 417.832 453.216ZM428.379 441.648V449.4C428.379 450.04 428.515 450.496 428.787 450.768C429.059 451.024 429.531 451.152 430.203 451.152H431.811V453H429.843C428.627 453 427.715 452.72 427.107 452.16C426.499 451.6 426.195 450.68 426.195 449.4V441.648H424.491V439.848H426.195V436.536H428.379V439.848H431.811V441.648H428.379ZM446.457 445.92C446.457 446.336 446.433 446.776 446.385 447.24H435.873C435.953 448.536 436.393 449.552 437.193 450.288C438.009 451.008 438.993 451.368 440.145 451.368C441.089 451.368 441.873 451.152 442.497 450.72C443.137 450.272 443.585 449.68 443.841 448.944H446.193C445.841 450.208 445.137 451.24 444.081 452.04C443.025 452.824 441.713 453.216 440.145 453.216C438.897 453.216 437.777 452.936 436.785 452.376C435.809 451.816 435.041 451.024 434.481 450C433.921 448.96 433.641 447.76 433.641 446.4C433.641 445.04 433.913 443.848 434.457 442.824C435.001 441.8 435.761 441.016 436.737 440.472C437.729 439.912 438.865 439.632 440.145 439.632C441.393 439.632 442.497 439.904 443.457 440.448C444.417 440.992 445.153 441.744 445.665 442.704C446.193 443.648 446.457 444.72 446.457 445.92ZM444.201 445.464C444.201 444.632 444.017 443.92 443.649 443.328C443.281 442.72 442.777 442.264 442.137 441.96C441.513 441.64 440.817 441.48 440.049 441.48C438.945 441.48 438.001 441.832 437.217 442.536C436.449 443.24 436.009 444.216 435.897 445.464H444.201ZM448.524 446.376C448.524 445.032 448.796 443.856 449.34 442.848C449.884 441.824 450.628 441.032 451.572 440.472C452.532 439.912 453.604 439.632 454.788 439.632C455.812 439.632 456.764 439.872 457.644 440.352C458.524 440.816 459.196 441.432 459.66 442.2V435.24H461.868V453H459.66V450.528C459.228 451.312 458.588 451.96 457.74 452.472C456.892 452.968 455.9 453.216 454.764 453.216C453.596 453.216 452.532 452.928 451.572 452.352C450.628 451.776 449.884 450.968 449.34 449.928C448.796 448.888 448.524 447.704 448.524 446.376ZM459.66 446.4C459.66 445.408 459.46 444.544 459.06 443.808C458.66 443.072 458.116 442.512 457.428 442.128C456.756 441.728 456.012 441.528 455.196 441.528C454.38 441.528 453.636 441.72 452.964 442.104C452.292 442.488 451.756 443.048 451.356 443.784C450.956 444.52 450.756 445.384 450.756 446.376C450.756 447.384 450.956 448.264 451.356 449.016C451.756 449.752 452.292 450.32 452.964 450.72C453.636 451.104 454.38 451.296 455.196 451.296C456.012 451.296 456.756 451.104 457.428 450.72C458.116 450.32 458.66 449.752 459.06 449.016C459.46 448.264 459.66 447.392 459.66 446.4ZM474.621 441.648V449.4C474.621 450.04 474.757 450.496 475.029 450.768C475.301 451.024 475.773 451.152 476.445 451.152H478.053V453H476.085C474.869 453 473.957 452.72 473.349 452.16C472.741 451.6 472.437 450.68 472.437 449.4V441.648H470.733V439.848H472.437V436.536H474.621V439.848H478.053V441.648H474.621ZM482.884 441.984C483.268 441.232 483.812 440.648 484.516 440.232C485.236 439.816 486.108 439.608 487.132 439.608V441.864H486.556C484.108 441.864 482.884 443.192 482.884 445.848V453H480.7V439.848H482.884V441.984ZM488.837 446.376C488.837 445.032 489.109 443.856 489.653 442.848C490.197 441.824 490.941 441.032 491.885 440.472C492.845 439.912 493.909 439.632 495.077 439.632C496.229 439.632 497.229 439.88 498.077 440.376C498.925 440.872 499.557 441.496 499.973 442.248V439.848H502.181V453H499.973V450.552C499.541 451.32 498.893 451.96 498.029 452.472C497.181 452.968 496.189 453.216 495.053 453.216C493.885 453.216 492.829 452.928 491.885 452.352C490.941 451.776 490.197 450.968 489.653 449.928C489.109 448.888 488.837 447.704 488.837 446.376ZM499.973 446.4C499.973 445.408 499.773 444.544 499.373 443.808C498.973 443.072 498.429 442.512 497.741 442.128C497.069 441.728 496.325 441.528 495.509 441.528C494.693 441.528 493.949 441.72 493.277 442.104C492.605 442.488 492.069 443.048 491.669 443.784C491.269 444.52 491.069 445.384 491.069 446.376C491.069 447.384 491.269 448.264 491.669 449.016C492.069 449.752 492.605 450.32 493.277 450.72C493.949 451.104 494.693 451.296 495.509 451.296C496.325 451.296 497.069 451.104 497.741 450.72C498.429 450.32 498.973 449.752 499.373 449.016C499.773 448.264 499.973 447.392 499.973 446.4ZM506.999 437.712C506.583 437.712 506.231 437.568 505.943 437.28C505.655 436.992 505.511 436.64 505.511 436.224C505.511 435.808 505.655 435.456 505.943 435.168C506.231 434.88 506.583 434.736 506.999 434.736C507.399 434.736 507.735 434.88 508.007 435.168C508.295 435.456 508.439 435.808 508.439 436.224C508.439 436.64 508.295 436.992 508.007 437.28C507.735 437.568 507.399 437.712 506.999 437.712ZM508.055 439.848V453H505.871V439.848H508.055ZM518.186 439.608C519.786 439.608 521.082 440.096 522.074 441.072C523.066 442.032 523.562 443.424 523.562 445.248V453H521.402V445.56C521.402 444.248 521.074 443.248 520.418 442.56C519.762 441.856 518.866 441.504 517.73 441.504C516.578 441.504 515.658 441.864 514.97 442.584C514.298 443.304 513.962 444.352 513.962 445.728V453H511.778V439.848H513.962V441.72C514.394 441.048 514.978 440.528 515.714 440.16C516.466 439.792 517.29 439.608 518.186 439.608ZM536.192 441.648V449.4C536.192 450.04 536.328 450.496 536.6 450.768C536.872 451.024 537.344 451.152 538.016 451.152H539.624V453H537.656C536.44 453 535.528 452.72 534.92 452.16C534.312 451.6 534.008 450.68 534.008 449.4V441.648H532.304V439.848H534.008V436.536H536.192V439.848H539.624V441.648H536.192ZM543.398 437.712C542.982 437.712 542.63 437.568 542.342 437.28C542.054 436.992 541.91 436.64 541.91 436.224C541.91 435.808 542.054 435.456 542.342 435.168C542.63 434.88 542.982 434.736 543.398 434.736C543.798 434.736 544.134 434.88 544.406 435.168C544.694 435.456 544.838 435.808 544.838 436.224C544.838 436.64 544.694 436.992 544.406 437.28C544.134 437.568 543.798 437.712 543.398 437.712ZM544.454 439.848V453H542.27V439.848H544.454ZM547.36 446.4C547.36 445.04 547.632 443.856 548.176 442.848C548.72 441.824 549.472 441.032 550.432 440.472C551.408 439.912 552.52 439.632 553.768 439.632C555.384 439.632 556.712 440.024 557.752 440.808C558.808 441.592 559.504 442.68 559.84 444.072H557.488C557.264 443.272 556.824 442.64 556.168 442.176C555.528 441.712 554.728 441.48 553.768 441.48C552.52 441.48 551.512 441.912 550.744 442.776C549.976 443.624 549.592 444.832 549.592 446.4C549.592 447.984 549.976 449.208 550.744 450.072C551.512 450.936 552.52 451.368 553.768 451.368C554.728 451.368 555.528 451.144 556.168 450.696C556.808 450.248 557.248 449.608 557.488 448.776H559.84C559.488 450.12 558.784 451.2 557.728 452.016C556.672 452.816 555.352 453.216 553.768 453.216C552.52 453.216 551.408 452.936 550.432 452.376C549.472 451.816 548.72 451.024 548.176 450C547.632 448.976 547.36 447.776 547.36 446.4ZM570.098 453L564.938 447.192V453H562.754V435.24H564.938V445.68L570.002 439.848H573.05L566.858 446.4L573.074 453H570.098ZM587.106 445.92C587.106 446.336 587.082 446.776 587.034 447.24H576.522C576.602 448.536 577.042 449.552 577.842 450.288C578.658 451.008 579.642 451.368 580.794 451.368C581.738 451.368 582.522 451.152 583.146 450.72C583.786 450.272 584.234 449.68 584.49 448.944H586.842C586.49 450.208 585.786 451.24 584.73 452.04C583.674 452.824 582.362 453.216 580.794 453.216C579.546 453.216 578.426 452.936 577.434 452.376C576.458 451.816 575.69 451.024 575.13 450C574.57 448.96 574.29 447.76 574.29 446.4C574.29 445.04 574.562 443.848 575.106 442.824C575.65 441.8 576.41 441.016 577.386 440.472C578.378 439.912 579.514 439.632 580.794 439.632C582.042 439.632 583.146 439.904 584.106 440.448C585.066 440.992 585.802 441.744 586.314 442.704C586.842 443.648 587.106 444.72 587.106 445.92ZM584.85 445.464C584.85 444.632 584.666 443.92 584.298 443.328C583.93 442.72 583.426 442.264 582.786 441.96C582.162 441.64 581.466 441.48 580.698 441.48C579.594 441.48 578.65 441.832 577.866 442.536C577.098 443.24 576.658 444.216 576.546 445.464H584.85ZM592.653 441.648V449.4C592.653 450.04 592.789 450.496 593.061 450.768C593.333 451.024 593.805 451.152 594.477 451.152H596.085V453H594.117C592.901 453 591.989 452.72 591.381 452.16C590.773 451.6 590.469 450.68 590.469 449.4V441.648H588.765V439.848H590.469V436.536H592.653V439.848H596.085V441.648H592.653Z" fill="#C2C2C2"/>
<path d="M73.871 393.16C73.295 392.051 72.495 391.219 71.471 390.664C70.447 390.088 69.263 389.8 67.919 389.8C66.447 389.8 65.135 390.131 63.983 390.792C62.831 391.453 61.9243 392.392 61.263 393.608C60.623 394.824 60.303 396.232 60.303 397.832C60.303 399.432 60.623 400.851 61.263 402.088C61.9243 403.304 62.831 404.243 63.983 404.904C65.135 405.565 66.447 405.896 67.919 405.896C69.903 405.896 71.5137 405.341 72.751 404.232C73.9883 403.123 74.7457 401.619 75.023 399.72H66.671V396.808H78.927V399.656C78.6923 401.384 78.0737 402.973 77.071 404.424C76.0897 405.875 74.799 407.037 73.199 407.912C71.6203 408.765 69.8603 409.192 67.919 409.192C65.8283 409.192 63.919 408.712 62.191 407.752C60.463 406.771 59.087 405.416 58.063 403.688C57.0603 401.96 56.559 400.008 56.559 397.832C56.559 395.656 57.0603 393.704 58.063 391.976C59.087 390.248 60.463 388.904 62.191 387.944C63.9403 386.963 65.8497 386.472 67.919 386.472C70.287 386.472 72.3883 387.059 74.223 388.232C76.079 389.384 77.423 391.027 78.255 393.16H73.871ZM98.685 399.752C98.685 400.413 98.6423 401.011 98.557 401.544H85.085C85.1917 402.952 85.7143 404.083 86.653 404.936C87.5917 405.789 88.7437 406.216 90.109 406.216C92.0717 406.216 93.4583 405.395 94.269 403.752H98.205C97.6717 405.373 96.701 406.707 95.293 407.752C93.9063 408.776 92.1783 409.288 90.109 409.288C88.4237 409.288 86.909 408.915 85.565 408.168C84.2423 407.4 83.197 406.333 82.429 404.968C81.6823 403.581 81.309 401.981 81.309 400.168C81.309 398.355 81.6717 396.765 82.397 395.4C83.1437 394.013 84.1783 392.947 85.501 392.2C86.845 391.453 88.381 391.08 90.109 391.08C91.773 391.08 93.2557 391.443 94.557 392.168C95.8583 392.893 96.8717 393.917 97.597 395.24C98.3223 396.541 98.685 398.045 98.685 399.752ZM94.877 398.6C94.8557 397.256 94.3757 396.179 93.437 395.368C92.4983 394.557 91.3357 394.152 89.949 394.152C88.6903 394.152 87.613 394.557 86.717 395.368C85.821 396.157 85.2877 397.235 85.117 398.6H94.877ZM106.531 394.344V404.104C106.531 404.765 106.68 405.245 106.979 405.544C107.299 405.821 107.832 405.96 108.579 405.96H110.819V409H107.939C106.296 409 105.038 408.616 104.163 407.848C103.288 407.08 102.851 405.832 102.851 404.104V394.344H100.771V391.368H102.851V386.984H106.531V391.368H110.819V394.344H106.531ZM138.366 391.368L127.55 417.288H123.774L127.358 408.712L120.414 391.368H124.478L129.438 404.808L134.59 391.368H138.366ZM148.767 409.288C147.103 409.288 145.599 408.915 144.255 408.168C142.911 407.4 141.855 406.333 141.087 404.968C140.319 403.581 139.935 401.981 139.935 400.168C139.935 398.376 140.329 396.787 141.119 395.4C141.908 394.013 142.985 392.947 144.351 392.2C145.716 391.453 147.241 391.08 148.927 391.08C150.612 391.08 152.137 391.453 153.503 392.2C154.868 392.947 155.945 394.013 156.735 395.4C157.524 396.787 157.919 398.376 157.919 400.168C157.919 401.96 157.513 403.549 156.703 404.936C155.892 406.323 154.783 407.4 153.375 408.168C151.988 408.915 150.452 409.288 148.767 409.288ZM148.767 406.12C149.705 406.12 150.58 405.896 151.391 405.448C152.223 405 152.895 404.328 153.407 403.432C153.919 402.536 154.175 401.448 154.175 400.168C154.175 398.888 153.929 397.811 153.439 396.936C152.948 396.04 152.297 395.368 151.487 394.92C150.676 394.472 149.801 394.248 148.863 394.248C147.924 394.248 147.049 394.472 146.239 394.92C145.449 395.368 144.82 396.04 144.351 396.936C143.881 397.811 143.647 398.888 143.647 400.168C143.647 402.067 144.127 403.539 145.087 404.584C146.068 405.608 147.295 406.12 148.767 406.12ZM177.493 391.368V409H173.845V406.92C173.269 407.645 172.512 408.221 171.573 408.648C170.656 409.053 169.674 409.256 168.629 409.256C167.242 409.256 165.994 408.968 164.885 408.392C163.797 407.816 162.933 406.963 162.293 405.832C161.674 404.701 161.365 403.336 161.365 401.736V391.368H164.981V401.192C164.981 402.771 165.376 403.987 166.165 404.84C166.954 405.672 168.032 406.088 169.397 406.088C170.762 406.088 171.84 405.672 172.629 404.84C173.44 403.987 173.845 402.771 173.845 401.192V391.368H177.493ZM185.954 393.928C186.488 393.032 187.192 392.339 188.066 391.848C188.962 391.336 190.018 391.08 191.234 391.08V394.856H190.306C188.877 394.856 187.789 395.219 187.042 395.944C186.317 396.669 185.954 397.928 185.954 399.72V409H182.306V391.368H185.954V393.928ZM207.156 394.344V404.104C207.156 404.765 207.305 405.245 207.604 405.544C207.924 405.821 208.457 405.96 209.204 405.96H211.444V409H208.564C206.921 409 205.663 408.616 204.788 407.848C203.913 407.08 203.476 405.832 203.476 404.104V394.344H201.396V391.368H203.476V386.984H207.156V391.368H211.444V394.344H207.156ZM218.454 393.928C218.988 393.032 219.692 392.339 220.566 391.848C221.462 391.336 222.518 391.08 223.734 391.08V394.856H222.806C221.377 394.856 220.289 395.219 219.542 395.944C218.817 396.669 218.454 397.928 218.454 399.72V409H214.806V391.368H218.454V393.928ZM228.944 389.032C228.282 389.032 227.728 388.808 227.28 388.36C226.832 387.912 226.608 387.357 226.608 386.696C226.608 386.035 226.832 385.48 227.28 385.032C227.728 384.584 228.282 384.36 228.944 384.36C229.584 384.36 230.128 384.584 230.576 385.032C231.024 385.48 231.248 386.035 231.248 386.696C231.248 387.357 231.024 387.912 230.576 388.36C230.128 388.808 229.584 389.032 228.944 389.032ZM230.736 391.368V409H227.088V391.368H230.736ZM239.173 393.96C239.792 393.149 240.634 392.467 241.701 391.912C242.768 391.357 243.973 391.08 245.317 391.08C246.853 391.08 248.25 391.464 249.509 392.232C250.789 392.979 251.792 394.035 252.517 395.4C253.242 396.765 253.605 398.333 253.605 400.104C253.605 401.875 253.242 403.464 252.517 404.872C251.792 406.259 250.789 407.347 249.509 408.136C248.25 408.904 246.853 409.288 245.317 409.288C243.973 409.288 242.778 409.021 241.733 408.488C240.688 407.933 239.834 407.251 239.173 406.44V417.384H235.525V391.368H239.173V393.96ZM249.893 400.104C249.893 398.888 249.637 397.843 249.125 396.968C248.634 396.072 247.973 395.4 247.141 394.952C246.33 394.483 245.456 394.248 244.517 394.248C243.6 394.248 242.725 394.483 241.893 394.952C241.082 395.421 240.421 396.104 239.909 397C239.418 397.896 239.173 398.952 239.173 400.168C239.173 401.384 239.418 402.451 239.909 403.368C240.421 404.264 241.082 404.947 241.893 405.416C242.725 405.885 243.6 406.12 244.517 406.12C245.456 406.12 246.33 405.885 247.141 405.416C247.973 404.925 248.634 404.221 249.125 403.304C249.637 402.387 249.893 401.32 249.893 400.104ZM264.309 400.104C264.309 398.333 264.672 396.765 265.397 395.4C266.144 394.035 267.146 392.979 268.405 392.232C269.685 391.464 271.093 391.08 272.629 391.08C274.016 391.08 275.221 391.357 276.245 391.912C277.29 392.445 278.122 393.117 278.741 393.928V391.368H282.421V409H278.741V406.376C278.122 407.208 277.28 407.901 276.213 408.456C275.146 409.011 273.93 409.288 272.565 409.288C271.05 409.288 269.664 408.904 268.405 408.136C267.146 407.347 266.144 406.259 265.397 404.872C264.672 403.464 264.309 401.875 264.309 400.104ZM278.741 400.168C278.741 398.952 278.485 397.896 277.973 397C277.482 396.104 276.832 395.421 276.021 394.952C275.21 394.483 274.336 394.248 273.397 394.248C272.458 394.248 271.584 394.483 270.773 394.952C269.962 395.4 269.301 396.072 268.789 396.968C268.298 397.843 268.053 398.888 268.053 400.104C268.053 401.32 268.298 402.387 268.789 403.304C269.301 404.221 269.962 404.925 270.773 405.416C271.605 405.885 272.48 406.12 273.397 406.12C274.336 406.12 275.21 405.885 276.021 405.416C276.832 404.947 277.482 404.264 277.973 403.368C278.485 402.451 278.741 401.384 278.741 400.168ZM293.613 409.288C292.226 409.288 290.978 409.043 289.869 408.552C288.781 408.04 287.917 407.357 287.277 406.504C286.637 405.629 286.295 404.659 286.253 403.592H290.029C290.093 404.339 290.445 404.968 291.085 405.48C291.746 405.971 292.567 406.216 293.549 406.216C294.573 406.216 295.362 406.024 295.917 405.64C296.493 405.235 296.781 404.723 296.781 404.104C296.781 403.443 296.461 402.952 295.821 402.632C295.202 402.312 294.21 401.96 292.845 401.576C291.522 401.213 290.445 400.861 289.613 400.52C288.781 400.179 288.055 399.656 287.437 398.952C286.839 398.248 286.541 397.32 286.541 396.168C286.541 395.229 286.818 394.376 287.373 393.608C287.927 392.819 288.717 392.2 289.741 391.752C290.786 391.304 291.981 391.08 293.325 391.08C295.33 391.08 296.941 391.592 298.157 392.616C299.394 393.619 300.055 394.995 300.141 396.744H296.493C296.429 395.955 296.109 395.325 295.533 394.856C294.957 394.387 294.178 394.152 293.197 394.152C292.237 394.152 291.501 394.333 290.989 394.696C290.477 395.059 290.221 395.539 290.221 396.136C290.221 396.605 290.391 397 290.733 397.32C291.074 397.64 291.49 397.896 291.981 398.088C292.471 398.259 293.197 398.483 294.157 398.76C295.437 399.101 296.482 399.453 297.293 399.816C298.125 400.157 298.839 400.669 299.437 401.352C300.034 402.035 300.343 402.941 300.365 404.072C300.365 405.075 300.087 405.971 299.533 406.76C298.978 407.549 298.189 408.168 297.165 408.616C296.162 409.064 294.978 409.288 293.613 409.288ZM310.706 409.288C309.32 409.288 308.072 409.043 306.962 408.552C305.874 408.04 305.01 407.357 304.37 406.504C303.73 405.629 303.389 404.659 303.346 403.592H307.122C307.186 404.339 307.538 404.968 308.178 405.48C308.84 405.971 309.661 406.216 310.642 406.216C311.666 406.216 312.456 406.024 313.01 405.64C313.586 405.235 313.874 404.723 313.874 404.104C313.874 403.443 313.554 402.952 312.914 402.632C312.296 402.312 311.304 401.96 309.938 401.576C308.616 401.213 307.538 400.861 306.706 400.52C305.874 400.179 305.149 399.656 304.53 398.952C303.933 398.248 303.634 397.32 303.634 396.168C303.634 395.229 303.912 394.376 304.466 393.608C305.021 392.819 305.81 392.2 306.834 391.752C307.88 391.304 309.074 391.08 310.418 391.08C312.424 391.08 314.034 391.592 315.25 392.616C316.488 393.619 317.149 394.995 317.234 396.744H313.586C313.522 395.955 313.202 395.325 312.626 394.856C312.05 394.387 311.272 394.152 310.29 394.152C309.33 394.152 308.594 394.333 308.082 394.696C307.57 395.059 307.314 395.539 307.314 396.136C307.314 396.605 307.485 397 307.826 397.32C308.168 397.64 308.584 397.896 309.074 398.088C309.565 398.259 310.29 398.483 311.25 398.76C312.53 399.101 313.576 399.453 314.386 399.816C315.218 400.157 315.933 400.669 316.53 401.352C317.128 402.035 317.437 402.941 317.458 404.072C317.458 405.075 317.181 405.971 316.626 406.76C316.072 407.549 315.282 408.168 314.258 408.616C313.256 409.064 312.072 409.288 310.706 409.288ZM337.368 391.368V409H333.72V406.92C333.144 407.645 332.387 408.221 331.448 408.648C330.531 409.053 329.549 409.256 328.504 409.256C327.117 409.256 325.869 408.968 324.76 408.392C323.672 407.816 322.808 406.963 322.168 405.832C321.549 404.701 321.24 403.336 321.24 401.736V391.368H324.856V401.192C324.856 402.771 325.251 403.987 326.04 404.84C326.829 405.672 327.907 406.088 329.272 406.088C330.637 406.088 331.715 405.672 332.504 404.84C333.315 403.987 333.72 402.771 333.72 401.192V391.368H337.368ZM345.829 393.928C346.363 393.032 347.067 392.339 347.941 391.848C348.837 391.336 349.893 391.08 351.109 391.08V394.856H350.181C348.752 394.856 347.664 395.219 346.917 395.944C346.192 396.669 345.829 397.928 345.829 399.72V409H342.181V391.368H345.829V393.928ZM370.623 399.752C370.623 400.413 370.58 401.011 370.495 401.544H357.023C357.129 402.952 357.652 404.083 358.591 404.936C359.529 405.789 360.681 406.216 362.047 406.216C364.009 406.216 365.396 405.395 366.207 403.752H370.142C369.609 405.373 368.639 406.707 367.231 407.752C365.844 408.776 364.116 409.288 362.047 409.288C360.361 409.288 358.847 408.915 357.503 408.168C356.18 407.4 355.135 406.333 354.367 404.968C353.62 403.581 353.247 401.981 353.247 400.168C353.247 398.355 353.609 396.765 354.335 395.4C355.081 394.013 356.116 392.947 357.439 392.2C358.783 391.453 360.319 391.08 362.047 391.08C363.711 391.08 365.193 391.443 366.495 392.168C367.796 392.893 368.809 393.917 369.535 395.24C370.26 396.541 370.623 398.045 370.623 399.752ZM366.815 398.6C366.793 397.256 366.313 396.179 365.375 395.368C364.436 394.557 363.273 394.152 361.887 394.152C360.628 394.152 359.551 394.557 358.655 395.368C357.759 396.157 357.225 397.235 357.055 398.6H366.815ZM372.997 400.104C372.997 398.333 373.359 396.765 374.085 395.4C374.831 394.035 375.834 392.979 377.093 392.232C378.373 391.464 379.791 391.08 381.349 391.08C382.501 391.08 383.631 391.336 384.741 391.848C385.871 392.339 386.767 393 387.429 393.832V385.32H391.109V409H387.429V406.344C386.831 407.197 385.999 407.901 384.933 408.456C383.887 409.011 382.682 409.288 381.317 409.288C379.781 409.288 378.373 408.904 377.093 408.136C375.834 407.347 374.831 406.259 374.085 404.872C373.359 403.464 372.997 401.875 372.997 400.104ZM387.429 400.168C387.429 398.952 387.173 397.896 386.661 397C386.17 396.104 385.519 395.421 384.709 394.952C383.898 394.483 383.023 394.248 382.085 394.248C381.146 394.248 380.271 394.483 379.461 394.952C378.65 395.4 377.989 396.072 377.477 396.968C376.986 397.843 376.741 398.888 376.741 400.104C376.741 401.32 376.986 402.387 377.477 403.304C377.989 404.221 378.65 404.925 379.461 405.416C380.293 405.885 381.167 406.12 382.085 406.12C383.023 406.12 383.898 405.885 384.709 405.416C385.519 404.947 386.17 404.264 386.661 403.368C387.173 402.451 387.429 401.384 387.429 400.168ZM427.893 391.368L422.421 409H418.581L415.029 395.976L411.477 409H407.637L402.133 391.368H405.845L409.525 405.544L413.269 391.368H417.077L420.661 405.48L424.309 391.368H427.893ZM432.475 389.032C431.813 389.032 431.259 388.808 430.811 388.36C430.363 387.912 430.139 387.357 430.139 386.696C430.139 386.035 430.363 385.48 430.811 385.032C431.259 384.584 431.813 384.36 432.475 384.36C433.115 384.36 433.659 384.584 434.107 385.032C434.555 385.48 434.779 386.035 434.779 386.696C434.779 387.357 434.555 387.912 434.107 388.36C433.659 388.808 433.115 389.032 432.475 389.032ZM434.267 391.368V409H430.619V391.368H434.267ZM443.312 394.344V404.104C443.312 404.765 443.462 405.245 443.76 405.544C444.08 405.821 444.614 405.96 445.36 405.96H447.6V409H444.72C443.078 409 441.819 408.616 440.944 407.848C440.07 407.08 439.632 405.832 439.632 404.104V394.344H437.552V391.368H439.632V386.984H443.312V391.368H447.6V394.344H443.312ZM460.083 391.08C461.427 391.08 462.621 391.368 463.667 391.944C464.733 392.52 465.565 393.373 466.163 394.504C466.781 395.635 467.091 397 467.091 398.6V409H463.475V399.144C463.475 397.565 463.08 396.36 462.291 395.528C461.501 394.675 460.424 394.248 459.059 394.248C457.693 394.248 456.605 394.675 455.795 395.528C455.005 396.36 454.611 397.565 454.611 399.144V409H450.963V385.32H454.611V393.416C455.229 392.669 456.008 392.093 456.947 391.688C457.907 391.283 458.952 391.08 460.083 391.08ZM494.424 386.76V389.736H488.504V409H484.856V389.736H478.904V386.76H494.424ZM501.767 393.928C502.3 393.032 503.004 392.339 503.879 391.848C504.775 391.336 505.831 391.08 507.047 391.08V394.856H506.119C504.689 394.856 503.601 395.219 502.855 395.944C502.129 396.669 501.767 397.928 501.767 399.72V409H498.119V391.368H501.767V393.928ZM509.184 400.104C509.184 398.333 509.547 396.765 510.272 395.4C511.019 394.035 512.021 392.979 513.28 392.232C514.56 391.464 515.968 391.08 517.504 391.08C518.891 391.08 520.096 391.357 521.12 391.912C522.165 392.445 522.997 393.117 523.616 393.928V391.368H527.296V409H523.616V406.376C522.997 407.208 522.155 407.901 521.088 408.456C520.021 409.011 518.805 409.288 517.44 409.288C515.925 409.288 514.539 408.904 513.28 408.136C512.021 407.347 511.019 406.259 510.272 404.872C509.547 403.464 509.184 401.875 509.184 400.104ZM523.616 400.168C523.616 398.952 523.36 397.896 522.848 397C522.357 396.104 521.707 395.421 520.896 394.952C520.085 394.483 519.211 394.248 518.272 394.248C517.333 394.248 516.459 394.483 515.648 394.952C514.837 395.4 514.176 396.072 513.664 396.968C513.173 397.843 512.928 398.888 512.928 400.104C512.928 401.32 513.173 402.387 513.664 403.304C514.176 404.221 514.837 404.925 515.648 405.416C516.48 405.885 517.355 406.12 518.272 406.12C519.211 406.12 520.085 405.885 520.896 405.416C521.707 404.947 522.357 404.264 522.848 403.368C523.36 402.451 523.616 401.384 523.616 400.168ZM533.944 389.032C533.282 389.032 532.728 388.808 532.28 388.36C531.832 387.912 531.608 387.357 531.608 386.696C531.608 386.035 531.832 385.48 532.28 385.032C532.728 384.584 533.282 384.36 533.944 384.36C534.584 384.36 535.128 384.584 535.576 385.032C536.024 385.48 536.248 386.035 536.248 386.696C536.248 387.357 536.024 387.912 535.576 388.36C535.128 388.808 534.584 389.032 533.944 389.032ZM535.736 391.368V409H532.088V391.368H535.736ZM549.421 391.08C550.808 391.08 552.045 391.368 553.133 391.944C554.242 392.52 555.106 393.373 555.725 394.504C556.344 395.635 556.653 397 556.653 398.6V409H553.037V399.144C553.037 397.565 552.642 396.36 551.853 395.528C551.064 394.675 549.986 394.248 548.621 394.248C547.256 394.248 546.168 394.675 545.357 395.528C544.568 396.36 544.173 397.565 544.173 399.144V409H540.525V391.368H544.173V393.384C544.77 392.659 545.528 392.093 546.445 391.688C547.384 391.283 548.376 391.08 549.421 391.08ZM582.65 391.08C584.037 391.08 585.274 391.368 586.362 391.944C587.472 392.52 588.336 393.373 588.954 394.504C589.594 395.635 589.914 397 589.914 398.6V409H586.298V399.144C586.298 397.565 585.904 396.36 585.114 395.528C584.325 394.675 583.248 394.248 581.882 394.248C580.517 394.248 579.429 394.675 578.618 395.528C577.829 396.36 577.434 397.565 577.434 399.144V409H573.818V399.144C573.818 397.565 573.424 396.36 572.634 395.528C571.845 394.675 570.768 394.248 569.402 394.248C568.037 394.248 566.949 394.675 566.138 395.528C565.349 396.36 564.954 397.565 564.954 399.144V409H561.306V391.368H564.954V393.384C565.552 392.659 566.309 392.093 567.226 391.688C568.144 391.283 569.125 391.08 570.17 391.08C571.578 391.08 572.837 391.379 573.946 391.976C575.056 392.573 575.909 393.437 576.506 394.568C577.04 393.501 577.872 392.659 579.002 392.04C580.133 391.4 581.349 391.08 582.65 391.08ZM593.34 400.104C593.34 398.333 593.703 396.765 594.428 395.4C595.175 394.035 596.178 392.979 597.436 392.232C598.716 391.464 600.124 391.08 601.66 391.08C603.047 391.08 604.252 391.357 605.276 391.912C606.322 392.445 607.154 393.117 607.772 393.928V391.368H611.452V409H607.772V406.376C607.154 407.208 606.311 407.901 605.244 408.456C604.178 409.011 602.962 409.288 601.596 409.288C600.082 409.288 598.695 408.904 597.436 408.136C596.178 407.347 595.175 406.259 594.428 404.872C593.703 403.464 593.34 401.875 593.34 400.104ZM607.772 400.168C607.772 398.952 607.516 397.896 607.004 397C606.514 396.104 605.863 395.421 605.052 394.952C604.242 394.483 603.367 394.248 602.428 394.248C601.49 394.248 600.615 394.483 599.804 394.952C598.994 395.4 598.332 396.072 597.82 396.968C597.33 397.843 597.084 398.888 597.084 400.104C597.084 401.32 597.33 402.387 597.82 403.304C598.332 404.221 598.994 404.925 599.804 405.416C600.636 405.885 601.511 406.12 602.428 406.12C603.367 406.12 604.242 405.885 605.052 405.416C605.863 404.947 606.514 404.264 607.004 403.368C607.516 402.451 607.772 401.384 607.772 400.168ZM625.14 391.08C626.526 391.08 627.764 391.368 628.852 391.944C629.961 392.52 630.825 393.373 631.444 394.504C632.062 395.635 632.372 397 632.372 398.6V409H628.756V399.144C628.756 397.565 628.361 396.36 627.572 395.528C626.782 394.675 625.705 394.248 624.34 394.248C622.974 394.248 621.886 394.675 621.076 395.528C620.286 396.36 619.892 397.565 619.892 399.144V409H616.244V391.368H619.892V393.384C620.489 392.659 621.246 392.093 622.164 391.688C623.102 391.283 624.094 391.08 625.14 391.08Z" fill="white"/>
<rect x="-0.25" y="0.25" width="676.5" height="528.5" rx="31.75" transform="matrix(-1 0 0 1 676.5 0)" stroke="#AFAFAF" stroke-width="0.5"/>
<path d="M224.522 220.604V224.671H216.43V251H211.445V224.671H203.31V220.604H224.522ZM235.432 230.4C236.161 229.176 237.123 228.228 238.318 227.558C239.543 226.858 240.986 226.508 242.648 226.508V231.669H241.38C239.426 231.669 237.939 232.164 236.919 233.156C235.927 234.147 235.432 235.867 235.432 238.317V251H230.446V226.902H235.432V230.4ZM250.643 223.709C249.739 223.709 248.981 223.403 248.368 222.79C247.756 222.178 247.45 221.42 247.45 220.516C247.45 219.612 247.756 218.854 248.368 218.242C248.981 217.629 249.739 217.323 250.643 217.323C251.517 217.323 252.261 217.629 252.873 218.242C253.485 218.854 253.792 219.612 253.792 220.516C253.792 221.42 253.485 222.178 252.873 222.79C252.261 223.403 251.517 223.709 250.643 223.709ZM253.092 226.902V251H248.106V226.902H253.092ZM265.498 230.444C266.344 229.336 267.496 228.403 268.954 227.645C270.411 226.887 272.059 226.508 273.896 226.508C275.995 226.508 277.905 227.033 279.625 228.082C281.375 229.103 282.745 230.546 283.736 232.412C284.728 234.278 285.223 236.421 285.223 238.841C285.223 241.261 284.728 243.434 283.736 245.358C282.745 247.253 281.375 248.74 279.625 249.819C277.905 250.869 275.995 251.394 273.896 251.394C272.059 251.394 270.426 251.029 268.997 250.3C267.569 249.542 266.402 248.609 265.498 247.501V262.459H260.513V226.902H265.498V230.444ZM280.15 238.841C280.15 237.179 279.8 235.751 279.1 234.555C278.43 233.331 277.526 232.412 276.389 231.8C275.281 231.158 274.085 230.838 272.802 230.838C271.549 230.838 270.353 231.158 269.216 231.8C268.108 232.441 267.204 233.374 266.504 234.599C265.834 235.824 265.498 237.267 265.498 238.929C265.498 240.591 265.834 242.049 266.504 243.302C267.204 244.527 268.108 245.46 269.216 246.102C270.353 246.743 271.549 247.064 272.802 247.064C274.085 247.064 275.281 246.743 276.389 246.102C277.526 245.431 278.43 244.469 279.1 243.215C279.8 241.961 280.15 240.503 280.15 238.841ZM321.59 244.789H308.863L306.676 251H301.471L312.361 220.56H318.135L329.025 251H323.777L321.59 244.789ZM320.19 240.722L315.248 226.595L310.262 240.722H320.19ZM343.382 251.394C341.487 251.394 339.781 251.058 338.265 250.388C336.778 249.688 335.597 248.755 334.722 247.589C333.847 246.393 333.381 245.066 333.323 243.609H338.483C338.571 244.629 339.052 245.489 339.927 246.189C340.831 246.86 341.953 247.195 343.294 247.195C344.694 247.195 345.773 246.933 346.531 246.408C347.318 245.854 347.712 245.154 347.712 244.308C347.712 243.405 347.274 242.734 346.4 242.297C345.554 241.859 344.198 241.378 342.332 240.853C340.524 240.358 339.052 239.876 337.915 239.41C336.778 238.943 335.786 238.229 334.941 237.267C334.124 236.305 333.716 235.036 333.716 233.462C333.716 232.179 334.095 231.013 334.853 229.963C335.611 228.884 336.69 228.039 338.09 227.426C339.519 226.814 341.151 226.508 342.988 226.508C345.729 226.508 347.93 227.208 349.592 228.607C351.283 229.978 352.187 231.858 352.304 234.249H347.318C347.231 233.17 346.793 232.31 346.006 231.669C345.219 231.027 344.155 230.707 342.813 230.707C341.501 230.707 340.495 230.954 339.796 231.45C339.096 231.946 338.746 232.602 338.746 233.418C338.746 234.06 338.979 234.599 339.446 235.036C339.912 235.474 340.481 235.824 341.151 236.086C341.822 236.319 342.813 236.625 344.125 237.005C345.875 237.471 347.304 237.952 348.411 238.448C349.549 238.914 350.525 239.614 351.342 240.547C352.158 241.48 352.581 242.719 352.61 244.265C352.61 245.635 352.231 246.86 351.473 247.938C350.715 249.017 349.636 249.863 348.237 250.475C346.866 251.087 345.248 251.394 343.382 251.394ZM367.619 251.394C365.724 251.394 364.018 251.058 362.502 250.388C361.015 249.688 359.834 248.755 358.96 247.589C358.085 246.393 357.618 245.066 357.56 243.609H362.721C362.808 244.629 363.29 245.489 364.164 246.189C365.068 246.86 366.191 247.195 367.532 247.195C368.931 247.195 370.01 246.933 370.768 246.408C371.556 245.854 371.949 245.154 371.949 244.308C371.949 243.405 371.512 242.734 370.637 242.297C369.792 241.859 368.436 241.378 366.57 240.853C364.762 240.358 363.29 239.876 362.152 239.41C361.015 238.943 360.024 238.229 359.178 237.267C358.362 236.305 357.954 235.036 357.954 233.462C357.954 232.179 358.333 231.013 359.091 229.963C359.849 228.884 360.928 228.039 362.327 227.426C363.756 226.814 365.389 226.508 367.226 226.508C369.967 226.508 372.168 227.208 373.83 228.607C375.521 229.978 376.425 231.858 376.542 234.249H371.556C371.468 233.17 371.031 232.31 370.244 231.669C369.456 231.027 368.392 230.707 367.051 230.707C365.739 230.707 364.733 230.954 364.033 231.45C363.333 231.946 362.983 232.602 362.983 233.418C362.983 234.06 363.217 234.599 363.683 235.036C364.15 235.474 364.718 235.824 365.389 236.086C366.059 236.319 367.051 236.625 368.363 237.005C370.112 237.471 371.541 237.952 372.649 238.448C373.786 238.914 374.763 239.614 375.579 240.547C376.396 241.48 376.819 242.719 376.848 244.265C376.848 245.635 376.469 246.86 375.711 247.938C374.952 249.017 373.874 249.863 372.474 250.475C371.104 251.087 369.485 251.394 367.619 251.394ZM404.934 226.902V251H399.948V248.157C399.161 249.149 398.126 249.936 396.843 250.519C395.589 251.073 394.248 251.35 392.819 251.35C390.924 251.35 389.218 250.956 387.702 250.169C386.215 249.382 385.034 248.215 384.159 246.67C383.314 245.125 382.891 243.259 382.891 241.072V226.902H387.833V240.328C387.833 242.486 388.373 244.148 389.451 245.314C390.53 246.451 392.003 247.02 393.869 247.02C395.735 247.02 397.207 246.451 398.286 245.314C399.394 244.148 399.948 242.486 399.948 240.328V226.902H404.934ZM417.373 230.4C418.102 229.176 419.064 228.228 420.26 227.558C421.484 226.858 422.928 226.508 424.59 226.508V231.669H423.321C421.368 231.669 419.881 232.164 418.86 233.156C417.869 234.147 417.373 235.867 417.373 238.317V251H412.387V226.902H417.373V230.4ZM428.385 238.841C428.385 236.421 428.881 234.278 429.872 232.412C430.893 230.546 432.263 229.103 433.984 228.082C435.733 227.033 437.657 226.508 439.757 226.508C441.652 226.508 443.299 226.887 444.699 227.645C446.128 228.374 447.265 229.292 448.11 230.4V226.902H453.14V251H448.11V247.414C447.265 248.551 446.113 249.498 444.655 250.256C443.197 251.015 441.535 251.394 439.669 251.394C437.599 251.394 435.704 250.869 433.984 249.819C432.263 248.74 430.893 247.253 429.872 245.358C428.881 243.434 428.385 241.261 428.385 238.841ZM448.11 238.929C448.11 237.267 447.76 235.824 447.061 234.599C446.39 233.374 445.501 232.441 444.393 231.8C443.285 231.158 442.089 230.838 440.806 230.838C439.523 230.838 438.328 231.158 437.22 231.8C436.112 232.412 435.208 233.331 434.508 234.555C433.838 235.751 433.502 237.179 433.502 238.841C433.502 240.503 433.838 241.961 434.508 243.215C435.208 244.469 436.112 245.431 437.22 246.102C438.357 246.743 439.553 247.064 440.806 247.064C442.089 247.064 443.285 246.743 444.393 246.102C445.501 245.46 446.39 244.527 447.061 243.302C447.76 242.049 448.11 240.591 448.11 238.929ZM472.722 226.508C474.617 226.508 476.308 226.902 477.795 227.689C479.311 228.476 480.492 229.642 481.338 231.188C482.183 232.733 482.606 234.599 482.606 236.786V251H477.664V237.529C477.664 235.372 477.125 233.724 476.046 232.587C474.967 231.421 473.495 230.838 471.629 230.838C469.762 230.838 468.275 231.421 467.167 232.587C466.089 233.724 465.549 235.372 465.549 237.529V251H460.563V226.902H465.549V229.657C466.366 228.666 467.401 227.893 468.655 227.339C469.937 226.785 471.293 226.508 472.722 226.508ZM488.179 238.929C488.179 236.451 488.675 234.278 489.666 232.412C490.686 230.517 492.086 229.059 493.865 228.039C495.643 227.018 497.684 226.508 499.988 226.508C502.903 226.508 505.309 227.208 507.204 228.607C509.128 229.978 510.426 231.946 511.096 234.512H505.717C505.28 233.316 504.58 232.383 503.618 231.712C502.655 231.042 501.445 230.707 499.988 230.707C497.947 230.707 496.314 231.435 495.089 232.893C493.894 234.322 493.296 236.334 493.296 238.929C493.296 241.524 493.894 243.55 495.089 245.008C496.314 246.466 497.947 247.195 499.988 247.195C502.874 247.195 504.784 245.927 505.717 243.39H511.096C510.397 245.839 509.085 247.793 507.16 249.251C505.236 250.679 502.845 251.394 499.988 251.394C497.684 251.394 495.643 250.883 493.865 249.863C492.086 248.813 490.686 247.355 489.666 245.489C488.675 243.594 488.179 241.407 488.179 238.929ZM539.027 238.36C539.027 239.264 538.968 240.081 538.852 240.81H520.439C520.585 242.734 521.299 244.279 522.582 245.446C523.865 246.612 525.439 247.195 527.305 247.195C529.988 247.195 531.883 246.072 532.991 243.827H538.371C537.642 246.043 536.315 247.866 534.391 249.294C532.495 250.694 530.134 251.394 527.305 251.394C525.002 251.394 522.932 250.883 521.095 249.863C519.287 248.813 517.858 247.355 516.809 245.489C515.788 243.594 515.278 241.407 515.278 238.929C515.278 236.451 515.774 234.278 516.765 232.412C517.786 230.517 519.2 229.059 521.007 228.039C522.844 227.018 524.944 226.508 527.305 226.508C529.58 226.508 531.606 227.004 533.385 227.995C535.163 228.986 536.548 230.386 537.54 232.194C538.531 233.972 539.027 236.028 539.027 238.36ZM533.822 236.786C533.793 234.949 533.137 233.476 531.854 232.368C530.571 231.261 528.982 230.707 527.087 230.707C525.366 230.707 523.894 231.261 522.669 232.368C521.445 233.447 520.716 234.92 520.483 236.786H533.822Z" fill="#D1D5DB"/>
<path d="M179.983 212.192C168.007 211.673 158.784 207.611 153.159 204.297C152.487 203.9 151.652 203.902 150.977 204.297C143.035 208.977 133.473 211.782 124.053 212.197C122.904 212.248 122 213.253 122 214.402C122 234.724 132.833 253.206 150.982 263.843C151.317 264.039 151.693 264.138 152.068 264.138C152.444 264.138 152.82 264.039 153.155 263.841C171.302 253.206 182.137 234.724 182.137 214.402V214.342C182.137 213.193 181.132 212.242 179.983 212.192Z" fill="url(#paint0_linear_3102_8346)"/>
<path d="M170.354 219.448C169.372 218.486 167.9 218.486 166.918 219.448L148.508 237.497L140.899 230.037C139.917 229.074 138.445 229.074 137.463 230.037C136.481 230.999 136.481 232.443 137.463 233.406L146.79 242.55C147.281 243.032 147.772 243.272 148.508 243.272C149.245 243.272 149.736 243.032 150.227 242.55L170.354 222.818C171.336 221.855 171.336 220.411 170.354 219.448Z" fill="#F4F4F4"/>
<defs>
<linearGradient id="paint0_linear_3102_8346" x1="124.443" y1="205.879" x2="169.515" y2="269.91" gradientUnits="userSpaceOnUse">
<stop stop-color="#5966BB"/>
<stop offset="0.65625" stop-color="#42B0E0"/>
<stop offset="1" stop-color="#5AEAF3"/>
</linearGradient>
</defs>
</svg>
