<svg width="440" height="309" viewBox="0 0 440 309" fill="none" xmlns="http://www.w3.org/2000/svg">
<path d="M270.403 189.728V179.017H274.412C275.319 179.017 276.1 179.165 276.753 179.461C277.406 179.747 277.905 180.165 278.252 180.716C278.609 181.256 278.788 181.914 278.788 182.69C278.788 183.444 278.609 184.097 278.252 184.648C277.905 185.189 277.406 185.607 276.753 185.903C276.1 186.199 275.319 186.347 274.412 186.347H271.03L271.535 185.811V189.728H270.403ZM271.535 185.903L271.03 185.352H274.381C275.452 185.352 276.263 185.122 276.814 184.663C277.375 184.194 277.655 183.536 277.655 182.69C277.655 181.833 277.375 181.17 276.814 180.7C276.263 180.231 275.452 179.997 274.381 179.997H271.03L271.535 179.461V185.903ZM284.236 189.805C283.461 189.805 282.762 189.631 282.14 189.284C281.528 188.927 281.043 188.443 280.686 187.831C280.329 187.208 280.151 186.5 280.151 185.704C280.151 184.898 280.329 184.189 280.686 183.577C281.043 182.965 281.528 182.486 282.14 182.139C282.752 181.792 283.451 181.619 284.236 181.619C285.032 181.619 285.736 181.792 286.348 182.139C286.97 182.486 287.454 182.965 287.801 183.577C288.158 184.189 288.337 184.898 288.337 185.704C288.337 186.5 288.158 187.208 287.801 187.831C287.454 188.443 286.97 188.927 286.348 189.284C285.725 189.631 285.021 189.805 284.236 189.805ZM284.236 188.841C284.817 188.841 285.333 188.713 285.781 188.458C286.23 188.193 286.582 187.826 286.837 187.356C287.102 186.877 287.235 186.326 287.235 185.704C287.235 185.071 287.102 184.521 286.837 184.051C286.582 183.582 286.23 183.22 285.781 182.965C285.333 182.7 284.823 182.567 284.251 182.567C283.68 182.567 283.17 182.7 282.721 182.965C282.272 183.22 281.915 183.582 281.65 184.051C281.385 184.521 281.252 185.071 281.252 185.704C281.252 186.326 281.385 186.877 281.65 187.356C281.915 187.826 282.272 188.193 282.721 188.458C283.17 188.713 283.675 188.841 284.236 188.841ZM291.968 189.728L288.938 181.695H289.979L292.733 189.147H292.258L295.089 181.695H296.022L298.823 189.147H298.348L301.148 181.695H302.143L299.098 189.728H298.073L295.38 182.72H295.701L292.993 189.728H291.968ZM306.967 189.805C306.13 189.805 305.396 189.631 304.763 189.284C304.131 188.927 303.636 188.443 303.279 187.831C302.922 187.208 302.744 186.5 302.744 185.704C302.744 184.908 302.912 184.204 303.248 183.592C303.595 182.98 304.064 182.501 304.656 182.154C305.258 181.797 305.931 181.619 306.676 181.619C307.431 181.619 308.099 181.792 308.68 182.139C309.272 182.475 309.736 182.955 310.073 183.577C310.409 184.189 310.578 184.898 310.578 185.704C310.578 185.755 310.573 185.811 310.562 185.872C310.562 185.923 310.562 185.979 310.562 186.04H303.57V185.23H309.981L309.552 185.551C309.552 184.969 309.425 184.454 309.17 184.005C308.925 183.546 308.588 183.189 308.16 182.934C307.732 182.679 307.237 182.552 306.676 182.552C306.125 182.552 305.63 182.679 305.192 182.934C304.753 183.189 304.411 183.546 304.167 184.005C303.922 184.464 303.799 184.99 303.799 185.581V185.75C303.799 186.362 303.932 186.902 304.197 187.372C304.473 187.831 304.85 188.193 305.329 188.458C305.819 188.713 306.375 188.841 306.997 188.841C307.487 188.841 307.941 188.754 308.359 188.58C308.787 188.407 309.155 188.142 309.461 187.785L310.073 188.489C309.716 188.917 309.267 189.243 308.726 189.468C308.196 189.692 307.609 189.805 306.967 189.805ZM312.789 189.728V181.695H313.829V183.883L313.722 183.501C313.947 182.888 314.324 182.424 314.854 182.108C315.385 181.782 316.043 181.619 316.828 181.619V182.674C316.787 182.674 316.747 182.674 316.706 182.674C316.665 182.664 316.624 182.659 316.583 182.659C315.737 182.659 315.074 182.919 314.594 183.439C314.115 183.949 313.875 184.679 313.875 185.627V189.728H312.789ZM322.148 189.805C321.312 189.805 320.577 189.631 319.945 189.284C319.312 188.927 318.818 188.443 318.46 187.831C318.103 187.208 317.925 186.5 317.925 185.704C317.925 184.908 318.093 184.204 318.43 183.592C318.777 182.98 319.246 182.501 319.838 182.154C320.439 181.797 321.113 181.619 321.857 181.619C322.612 181.619 323.28 181.792 323.862 182.139C324.453 182.475 324.917 182.955 325.254 183.577C325.591 184.189 325.759 184.898 325.759 185.704C325.759 185.755 325.754 185.811 325.744 185.872C325.744 185.923 325.744 185.979 325.744 186.04H318.751V185.23H325.162L324.734 185.551C324.734 184.969 324.606 184.454 324.351 184.005C324.107 183.546 323.77 183.189 323.341 182.934C322.913 182.679 322.418 182.552 321.857 182.552C321.306 182.552 320.812 182.679 320.373 182.934C319.934 183.189 319.593 183.546 319.348 184.005C319.103 184.464 318.981 184.99 318.981 185.581V185.75C318.981 186.362 319.113 186.902 319.379 187.372C319.654 187.831 320.031 188.193 320.511 188.458C321 188.713 321.556 188.841 322.179 188.841C322.668 188.841 323.122 188.754 323.54 188.58C323.969 188.407 324.336 188.142 324.642 187.785L325.254 188.489C324.897 188.917 324.448 189.243 323.908 189.468C323.377 189.692 322.791 189.805 322.148 189.805ZM331.168 189.805C330.403 189.805 329.715 189.631 329.103 189.284C328.501 188.937 328.026 188.458 327.68 187.846C327.333 187.224 327.159 186.51 327.159 185.704C327.159 184.888 327.333 184.174 327.68 183.562C328.026 182.95 328.501 182.475 329.103 182.139C329.715 181.792 330.403 181.619 331.168 181.619C331.872 181.619 332.499 181.777 333.05 182.093C333.611 182.409 334.055 182.873 334.381 183.485C334.718 184.087 334.886 184.827 334.886 185.704C334.886 186.571 334.723 187.31 334.397 187.923C334.07 188.535 333.627 189.004 333.065 189.33C332.515 189.646 331.882 189.805 331.168 189.805ZM331.245 188.841C331.816 188.841 332.326 188.713 332.775 188.458C333.234 188.193 333.591 187.826 333.846 187.356C334.111 186.877 334.244 186.326 334.244 185.704C334.244 185.071 334.111 184.521 333.846 184.051C333.591 183.582 333.234 183.22 332.775 182.965C332.326 182.7 331.816 182.567 331.245 182.567C330.684 182.567 330.179 182.7 329.73 182.965C329.281 183.22 328.924 183.582 328.659 184.051C328.394 184.521 328.261 185.071 328.261 185.704C328.261 186.326 328.394 186.877 328.659 187.356C328.924 187.826 329.281 188.193 329.73 188.458C330.179 188.713 330.684 188.841 331.245 188.841ZM334.274 189.728V187.31L334.381 185.689L334.228 184.067V178.375H335.315V189.728H334.274ZM346.491 189.805C345.788 189.805 345.155 189.646 344.594 189.33C344.033 189.004 343.589 188.535 343.263 187.923C342.936 187.31 342.773 186.571 342.773 185.704C342.773 184.827 342.936 184.087 343.263 183.485C343.599 182.873 344.048 182.409 344.609 182.093C345.17 181.777 345.798 181.619 346.491 181.619C347.256 181.619 347.94 181.792 348.542 182.139C349.154 182.475 349.633 182.95 349.98 183.562C350.327 184.174 350.5 184.888 350.5 185.704C350.5 186.51 350.327 187.224 349.98 187.846C349.633 188.458 349.154 188.937 348.542 189.284C347.94 189.631 347.256 189.805 346.491 189.805ZM342.345 189.728V178.375H343.431V184.067L343.278 185.689L343.385 187.31V189.728H342.345ZM346.415 188.841C346.986 188.841 347.496 188.713 347.945 188.458C348.394 188.193 348.751 187.826 349.016 187.356C349.281 186.877 349.414 186.326 349.414 185.704C349.414 185.071 349.281 184.521 349.016 184.051C348.751 183.582 348.394 183.22 347.945 182.965C347.496 182.7 346.986 182.567 346.415 182.567C345.844 182.567 345.329 182.7 344.869 182.965C344.421 183.22 344.064 183.582 343.798 184.051C343.543 184.521 343.416 185.071 343.416 185.704C343.416 186.326 343.543 186.877 343.798 187.356C344.064 187.826 344.421 188.193 344.869 188.458C345.329 188.713 345.844 188.841 346.415 188.841ZM352.552 192.773C352.174 192.773 351.812 192.712 351.466 192.589C351.129 192.467 350.838 192.283 350.593 192.038L351.098 191.228C351.302 191.421 351.522 191.569 351.756 191.671C352.001 191.783 352.271 191.84 352.567 191.84C352.924 191.84 353.23 191.738 353.485 191.534C353.75 191.34 354 190.993 354.235 190.493L354.755 189.315L354.878 189.147L358.183 181.695H359.254L355.23 190.692C355.005 191.212 354.755 191.625 354.48 191.931C354.215 192.237 353.924 192.452 353.608 192.574C353.291 192.707 352.94 192.773 352.552 192.773ZM354.694 189.958L350.991 181.695H352.123L355.398 189.07L354.694 189.958ZM367.099 189.728V179.997H363.335V179.017H371.995V179.997H368.231V189.728H367.099ZM373.365 189.728V181.695H374.406V183.883L374.299 183.501C374.523 182.888 374.9 182.424 375.431 182.108C375.961 181.782 376.619 181.619 377.405 181.619V182.674C377.364 182.674 377.323 182.674 377.282 182.674C377.241 182.664 377.201 182.659 377.16 182.659C376.313 182.659 375.65 182.919 375.171 183.439C374.691 183.949 374.452 184.679 374.452 185.627V189.728H373.365ZM383.823 189.728V187.953L383.777 187.662V184.694C383.777 184.011 383.584 183.485 383.196 183.118C382.818 182.751 382.252 182.567 381.497 182.567C380.977 182.567 380.483 182.654 380.013 182.827C379.544 183.001 379.146 183.23 378.82 183.516L378.33 182.705C378.738 182.358 379.228 182.093 379.799 181.909C380.37 181.715 380.972 181.619 381.605 181.619C382.645 181.619 383.446 181.879 384.007 182.399C384.578 182.909 384.864 183.689 384.864 184.74V189.728H383.823ZM381.054 189.805C380.452 189.805 379.927 189.708 379.478 189.514C379.039 189.31 378.703 189.034 378.468 188.688C378.233 188.331 378.116 187.923 378.116 187.463C378.116 187.045 378.213 186.668 378.407 186.331C378.611 185.984 378.937 185.709 379.386 185.505C379.845 185.291 380.457 185.184 381.222 185.184H383.992V185.995H381.253C380.477 185.995 379.937 186.132 379.631 186.408C379.335 186.683 379.187 187.025 379.187 187.433C379.187 187.892 379.366 188.259 379.723 188.535C380.08 188.81 380.579 188.948 381.222 188.948C381.834 188.948 382.359 188.81 382.798 188.535C383.247 188.249 383.573 187.841 383.777 187.31L384.022 188.06C383.818 188.591 383.461 189.014 382.951 189.33C382.451 189.646 381.819 189.805 381.054 189.805ZM387.814 189.728V181.695H388.901V189.728H387.814ZM388.365 179.92C388.141 179.92 387.952 179.844 387.799 179.691C387.646 179.538 387.57 179.354 387.57 179.14C387.57 178.926 387.646 178.747 387.799 178.604C387.952 178.451 388.141 178.375 388.365 178.375C388.59 178.375 388.778 178.446 388.931 178.589C389.084 178.732 389.161 178.91 389.161 179.124C389.161 179.349 389.084 179.538 388.931 179.691C388.789 179.844 388.6 179.92 388.365 179.92ZM396.024 181.619C396.677 181.619 397.248 181.746 397.738 182.001C398.238 182.246 398.625 182.623 398.901 183.133C399.186 183.643 399.329 184.286 399.329 185.061V189.728H398.243V185.168C398.243 184.322 398.029 183.684 397.6 183.256C397.182 182.817 396.59 182.598 395.825 182.598C395.254 182.598 394.754 182.715 394.326 182.95C393.908 183.174 393.581 183.506 393.347 183.944C393.122 184.373 393.01 184.893 393.01 185.505V189.728H391.924V181.695H392.964V183.898L392.796 183.485C393.051 182.904 393.459 182.45 394.02 182.123C394.581 181.787 395.249 181.619 396.024 181.619ZM412.301 181.619C412.954 181.619 413.52 181.746 413.999 182.001C414.489 182.246 414.867 182.623 415.132 183.133C415.407 183.643 415.545 184.286 415.545 185.061V189.728H414.459V185.168C414.459 184.322 414.255 183.684 413.846 183.256C413.449 182.817 412.883 182.598 412.148 182.598C411.597 182.598 411.118 182.715 410.71 182.95C410.312 183.174 410.001 183.506 409.776 183.944C409.562 184.373 409.455 184.893 409.455 185.505V189.728H408.369V185.168C408.369 184.322 408.165 183.684 407.757 183.256C407.349 182.817 406.777 182.598 406.043 182.598C405.502 182.598 405.028 182.715 404.62 182.95C404.212 183.174 403.896 183.506 403.671 183.944C403.457 184.373 403.35 184.893 403.35 185.505V189.728H402.264V181.695H403.304V183.868L403.136 183.485C403.381 182.904 403.773 182.45 404.314 182.123C404.865 181.787 405.513 181.619 406.257 181.619C407.043 181.619 407.711 181.817 408.262 182.215C408.812 182.603 409.169 183.189 409.333 183.975L408.904 183.807C409.139 183.154 409.552 182.628 410.144 182.231C410.745 181.823 411.465 181.619 412.301 181.619ZM423.525 189.728V187.953L423.479 187.662V184.694C423.479 184.011 423.285 183.485 422.898 183.118C422.52 182.751 421.954 182.567 421.199 182.567C420.679 182.567 420.184 182.654 419.715 182.827C419.246 183.001 418.848 183.23 418.522 183.516L418.032 182.705C418.44 182.358 418.93 182.093 419.501 181.909C420.072 181.715 420.674 181.619 421.306 181.619C422.347 181.619 423.148 181.879 423.709 182.399C424.28 182.909 424.566 183.689 424.566 184.74V189.728H423.525ZM420.756 189.805C420.154 189.805 419.628 189.708 419.18 189.514C418.741 189.31 418.404 189.034 418.17 188.688C417.935 188.331 417.818 187.923 417.818 187.463C417.818 187.045 417.915 186.668 418.109 186.331C418.313 185.984 418.639 185.709 419.088 185.505C419.547 185.291 420.159 185.184 420.924 185.184H423.693V185.995H420.955C420.179 185.995 419.639 186.132 419.333 186.408C419.037 186.683 418.889 187.025 418.889 187.433C418.889 187.892 419.067 188.259 419.424 188.535C419.781 188.81 420.281 188.948 420.924 188.948C421.536 188.948 422.061 188.81 422.5 188.535C422.949 188.249 423.275 187.841 423.479 187.31L423.724 188.06C423.52 188.591 423.163 189.014 422.653 189.33C422.153 189.646 421.521 189.805 420.756 189.805ZM431.617 181.619C432.27 181.619 432.841 181.746 433.331 182.001C433.83 182.246 434.218 182.623 434.493 183.133C434.779 183.643 434.922 184.286 434.922 185.061V189.728H433.836V185.168C433.836 184.322 433.621 183.684 433.193 183.256C432.775 182.817 432.183 182.598 431.418 182.598C430.847 182.598 430.347 182.715 429.918 182.95C429.5 183.174 429.174 183.506 428.939 183.944C428.715 184.373 428.603 184.893 428.603 185.505V189.728H427.516V181.695H428.557V183.898L428.388 183.485C428.643 182.904 429.051 182.45 429.612 182.123C430.173 181.787 430.842 181.619 431.617 181.619Z" fill="#D1D5DB"/>
<path d="M106.022 131.332V135.399H97.9305V161.728H92.9446V135.399H84.8097V131.332H106.022ZM116.932 141.128C117.661 139.904 118.623 138.956 119.818 138.286C121.043 137.586 122.486 137.236 124.148 137.236V142.397H122.88C120.926 142.397 119.439 142.892 118.419 143.884C117.427 144.875 116.932 146.595 116.932 149.045V161.728H111.946V137.63H116.932V141.128ZM132.143 134.437C131.239 134.437 130.481 134.131 129.868 133.518C129.256 132.906 128.95 132.148 128.95 131.244C128.95 130.34 129.256 129.582 129.868 128.97C130.481 128.358 131.239 128.051 132.143 128.051C133.017 128.051 133.761 128.358 134.373 128.97C134.985 129.582 135.292 130.34 135.292 131.244C135.292 132.148 134.985 132.906 134.373 133.518C133.761 134.131 133.017 134.437 132.143 134.437ZM134.592 137.63V161.728H129.606V137.63H134.592ZM146.998 141.172C147.844 140.064 148.996 139.131 150.454 138.373C151.911 137.615 153.559 137.236 155.396 137.236C157.495 137.236 159.405 137.761 161.125 138.81C162.875 139.831 164.245 141.274 165.236 143.14C166.228 145.006 166.723 147.149 166.723 149.569C166.723 151.989 166.228 154.162 165.236 156.086C164.245 157.981 162.875 159.468 161.125 160.547C159.405 161.597 157.495 162.122 155.396 162.122C153.559 162.122 151.926 161.757 150.497 161.028C149.069 160.27 147.902 159.337 146.998 158.229V173.187H142.013V137.63H146.998V141.172ZM161.65 149.569C161.65 147.907 161.3 146.479 160.6 145.283C159.93 144.059 159.026 143.14 157.889 142.528C156.781 141.886 155.585 141.566 154.302 141.566C153.049 141.566 151.853 141.886 150.716 142.528C149.608 143.169 148.704 144.102 148.004 145.327C147.334 146.552 146.998 147.995 146.998 149.657C146.998 151.319 147.334 152.777 148.004 154.031C148.704 155.255 149.608 156.188 150.716 156.83C151.853 157.471 153.049 157.792 154.302 157.792C155.585 157.792 156.781 157.471 157.889 156.83C159.026 156.159 159.93 155.197 160.6 153.943C161.3 152.689 161.65 151.231 161.65 149.569ZM203.09 155.518H190.363L188.176 161.728H182.971L193.861 131.288H199.635L210.525 161.728H205.277L203.09 155.518ZM201.69 151.45L196.748 137.323L191.762 151.45H201.69ZM224.882 162.122C222.987 162.122 221.281 161.786 219.765 161.116C218.278 160.416 217.097 159.483 216.222 158.317C215.347 157.121 214.881 155.795 214.823 154.337H219.983C220.071 155.357 220.552 156.217 221.427 156.917C222.331 157.588 223.453 157.923 224.794 157.923C226.194 157.923 227.273 157.661 228.031 157.136C228.818 156.582 229.212 155.882 229.212 155.036C229.212 154.133 228.774 153.462 227.9 153.025C227.054 152.587 225.698 152.106 223.832 151.581C222.024 151.086 220.552 150.605 219.415 150.138C218.278 149.671 217.286 148.957 216.441 147.995C215.624 147.033 215.216 145.764 215.216 144.19C215.216 142.907 215.595 141.741 216.353 140.691C217.111 139.612 218.19 138.767 219.59 138.154C221.019 137.542 222.651 137.236 224.488 137.236C227.229 137.236 229.43 137.936 231.092 139.335C232.783 140.706 233.687 142.586 233.804 144.977H228.818C228.731 143.898 228.293 143.038 227.506 142.397C226.719 141.755 225.655 141.435 224.313 141.435C223.001 141.435 221.995 141.682 221.296 142.178C220.596 142.674 220.246 143.33 220.246 144.146C220.246 144.788 220.479 145.327 220.946 145.764C221.412 146.202 221.981 146.552 222.651 146.814C223.322 147.047 224.313 147.353 225.625 147.733C227.375 148.199 228.804 148.68 229.911 149.176C231.049 149.642 232.025 150.342 232.842 151.275C233.658 152.208 234.081 153.447 234.11 154.993C234.11 156.363 233.731 157.588 232.973 158.667C232.215 159.745 231.136 160.591 229.737 161.203C228.366 161.815 226.748 162.122 224.882 162.122ZM249.119 162.122C247.224 162.122 245.518 161.786 244.002 161.116C242.515 160.416 241.334 159.483 240.46 158.317C239.585 157.121 239.118 155.795 239.06 154.337H244.221C244.308 155.357 244.79 156.217 245.664 156.917C246.568 157.588 247.691 157.923 249.032 157.923C250.431 157.923 251.51 157.661 252.268 157.136C253.056 156.582 253.449 155.882 253.449 155.036C253.449 154.133 253.012 153.462 252.137 153.025C251.292 152.587 249.936 152.106 248.07 151.581C246.262 151.086 244.79 150.605 243.652 150.138C242.515 149.671 241.524 148.957 240.678 147.995C239.862 147.033 239.454 145.764 239.454 144.19C239.454 142.907 239.833 141.741 240.591 140.691C241.349 139.612 242.428 138.767 243.827 138.154C245.256 137.542 246.889 137.236 248.726 137.236C251.467 137.236 253.668 137.936 255.33 139.335C257.021 140.706 257.925 142.586 258.042 144.977H253.056C252.968 143.898 252.531 143.038 251.744 142.397C250.956 141.755 249.892 141.435 248.551 141.435C247.239 141.435 246.233 141.682 245.533 142.178C244.833 142.674 244.483 143.33 244.483 144.146C244.483 144.788 244.717 145.327 245.183 145.764C245.65 146.202 246.218 146.552 246.889 146.814C247.559 147.047 248.551 147.353 249.863 147.733C251.612 148.199 253.041 148.68 254.149 149.176C255.286 149.642 256.263 150.342 257.079 151.275C257.896 152.208 258.319 153.447 258.348 154.993C258.348 156.363 257.969 157.588 257.211 158.667C256.452 159.745 255.374 160.591 253.974 161.203C252.604 161.815 250.985 162.122 249.119 162.122ZM286.434 137.63V161.728H281.448V158.885C280.661 159.877 279.626 160.664 278.343 161.247C277.089 161.801 275.748 162.078 274.319 162.078C272.424 162.078 270.718 161.684 269.202 160.897C267.715 160.11 266.534 158.944 265.659 157.398C264.814 155.853 264.391 153.987 264.391 151.8V137.63H269.333V151.056C269.333 153.214 269.873 154.876 270.951 156.042C272.03 157.179 273.503 157.748 275.369 157.748C277.235 157.748 278.707 157.179 279.786 156.042C280.894 154.876 281.448 153.214 281.448 151.056V137.63H286.434ZM298.873 141.128C299.602 139.904 300.564 138.956 301.76 138.286C302.984 137.586 304.428 137.236 306.09 137.236V142.397H304.821C302.868 142.397 301.381 142.892 300.36 143.884C299.369 144.875 298.873 146.595 298.873 149.045V161.728H293.887V137.63H298.873V141.128ZM309.885 149.569C309.885 147.149 310.381 145.006 311.372 143.14C312.393 141.274 313.763 139.831 315.484 138.81C317.233 137.761 319.157 137.236 321.257 137.236C323.152 137.236 324.799 137.615 326.199 138.373C327.628 139.102 328.765 140.02 329.61 141.128V137.63H334.64V161.728H329.61V158.142C328.765 159.279 327.613 160.226 326.155 160.985C324.697 161.743 323.035 162.122 321.169 162.122C319.099 162.122 317.204 161.597 315.484 160.547C313.763 159.468 312.393 157.981 311.372 156.086C310.381 154.162 309.885 151.989 309.885 149.569ZM329.61 149.657C329.61 147.995 329.26 146.552 328.561 145.327C327.89 144.102 327.001 143.169 325.893 142.528C324.785 141.886 323.589 141.566 322.306 141.566C321.023 141.566 319.828 141.886 318.72 142.528C317.612 143.14 316.708 144.059 316.008 145.283C315.338 146.479 315.002 147.907 315.002 149.569C315.002 151.231 315.338 152.689 316.008 153.943C316.708 155.197 317.612 156.159 318.72 156.83C319.857 157.471 321.053 157.792 322.306 157.792C323.589 157.792 324.785 157.471 325.893 156.83C327.001 156.188 327.89 155.255 328.561 154.031C329.26 152.777 329.61 151.319 329.61 149.657ZM354.222 137.236C356.117 137.236 357.808 137.63 359.295 138.417C360.811 139.204 361.992 140.37 362.838 141.916C363.683 143.461 364.106 145.327 364.106 147.514V161.728H359.164V148.257C359.164 146.1 358.625 144.452 357.546 143.315C356.467 142.149 354.995 141.566 353.129 141.566C351.262 141.566 349.775 142.149 348.667 143.315C347.589 144.452 347.049 146.1 347.049 148.257V161.728H342.063V137.63H347.049V140.385C347.866 139.394 348.901 138.621 350.155 138.067C351.437 137.513 352.793 137.236 354.222 137.236ZM369.679 149.657C369.679 147.179 370.175 145.006 371.166 143.14C372.186 141.245 373.586 139.787 375.365 138.767C377.143 137.746 379.184 137.236 381.488 137.236C384.403 137.236 386.809 137.936 388.704 139.335C390.628 140.706 391.926 142.674 392.596 145.24H387.217C386.78 144.044 386.08 143.111 385.118 142.44C384.155 141.77 382.945 141.435 381.488 141.435C379.447 141.435 377.814 142.163 376.589 143.621C375.394 145.05 374.796 147.062 374.796 149.657C374.796 152.252 375.394 154.278 376.589 155.736C377.814 157.194 379.447 157.923 381.488 157.923C384.374 157.923 386.284 156.655 387.217 154.118H392.596C391.897 156.567 390.585 158.521 388.66 159.979C386.736 161.407 384.345 162.122 381.488 162.122C379.184 162.122 377.143 161.611 375.365 160.591C373.586 159.541 372.186 158.083 371.166 156.217C370.175 154.322 369.679 152.135 369.679 149.657ZM420.527 149.088C420.527 149.992 420.468 150.809 420.352 151.538H401.939C402.085 153.462 402.799 155.007 404.082 156.174C405.365 157.34 406.939 157.923 408.805 157.923C411.488 157.923 413.383 156.8 414.491 154.555H419.871C419.142 156.771 417.815 158.594 415.891 160.022C413.995 161.422 411.634 162.122 408.805 162.122C406.502 162.122 404.432 161.611 402.595 160.591C400.787 159.541 399.358 158.083 398.309 156.217C397.288 154.322 396.778 152.135 396.778 149.657C396.778 147.179 397.274 145.006 398.265 143.14C399.286 141.245 400.7 139.787 402.507 138.767C404.344 137.746 406.444 137.236 408.805 137.236C411.08 137.236 413.106 137.732 414.885 138.723C416.663 139.714 418.048 141.114 419.04 142.922C420.031 144.7 420.527 146.756 420.527 149.088ZM415.322 147.514C415.293 145.677 414.637 144.205 413.354 143.097C412.071 141.989 410.482 141.435 408.587 141.435C406.866 141.435 405.394 141.989 404.169 143.097C402.945 144.175 402.216 145.648 401.983 147.514H415.322Z" fill="#D1D5DB"/>
<path d="M61.4827 122.92C49.5069 122.401 40.2844 118.339 34.6595 115.025C33.9873 114.628 33.1518 114.63 32.4774 115.025C24.535 119.705 14.9733 122.51 5.55325 122.925C4.4042 122.976 3.5 123.981 3.5 125.13C3.5 145.452 14.3332 163.934 32.4817 174.571C32.8167 174.767 33.1926 174.866 33.5684 174.866C33.9443 174.866 34.3202 174.767 34.6552 174.569C52.8015 163.934 63.6369 145.452 63.6369 125.13V125.07C63.6369 123.921 62.6317 122.97 61.4827 122.92Z" fill="url(#paint0_linear_3331_8371)"/>
<path d="M51.8541 130.177C50.8723 129.214 49.3996 129.214 48.4177 130.177L30.0085 148.225L22.3993 140.765C21.4175 139.802 19.9448 139.802 18.9629 140.765C17.9811 141.727 17.9811 143.171 18.9629 144.134L28.2903 153.278C28.7812 153.76 29.2721 154 30.0085 154C30.7449 154 31.2358 153.76 31.7267 153.278L51.8541 133.546C52.836 132.583 52.836 131.139 51.8541 130.177Z" fill="#F4F4F4"/>
<defs>
<linearGradient id="paint0_linear_3331_8371" x1="5.94306" y1="116.607" x2="51.015" y2="180.639" gradientUnits="userSpaceOnUse">
<stop stop-color="#5966BB"/>
<stop offset="0.65625" stop-color="#42B0E0"/>
<stop offset="1" stop-color="#5AEAF3"/>
</linearGradient>
</defs>
</svg>
