<svg width="677" height="529" viewBox="0 0 677 529" fill="none" xmlns="http://www.w3.org/2000/svg">
<mask id="mask0_3040_6463" style="mask-type:alpha" maskUnits="userSpaceOnUse" x="11" y="0" width="666" height="520">
<rect x="-0.25" y="0.25" width="664.982" height="519.5" rx="59.75" transform="matrix(-1 0 0 1 676.111 0)" fill="white" stroke="#949494" stroke-width="0.5"/>
</mask>
<g mask="url(#mask0_3040_6463)">
<path d="M32.5843 453.168C31.0323 453.168 29.6163 452.808 28.3363 452.088C27.0563 451.352 26.0403 450.336 25.2883 449.04C24.5523 447.728 24.1843 446.256 24.1843 444.624C24.1843 442.992 24.5523 441.528 25.2883 440.232C26.0403 438.92 27.0563 437.904 28.3363 437.184C29.6163 436.448 31.0323 436.08 32.5843 436.08C34.1523 436.08 35.5763 436.448 36.8563 437.184C38.1363 437.904 39.1443 438.912 39.8803 440.208C40.6163 441.504 40.9843 442.976 40.9843 444.624C40.9843 446.272 40.6163 447.744 39.8803 449.04C39.1443 450.336 38.1363 451.352 36.8563 452.088C35.5763 452.808 34.1523 453.168 32.5843 453.168ZM32.5843 451.272C33.7523 451.272 34.8003 451 35.7283 450.456C36.6723 449.912 37.4083 449.136 37.9363 448.128C38.4803 447.12 38.7523 445.952 38.7523 444.624C38.7523 443.28 38.4803 442.112 37.9363 441.12C37.4083 440.112 36.6803 439.336 35.7523 438.792C34.8243 438.248 33.7683 437.976 32.5843 437.976C31.4003 437.976 30.3443 438.248 29.4163 438.792C28.4883 439.336 27.7523 440.112 27.2083 441.12C26.6803 442.112 26.4163 443.28 26.4163 444.624C26.4163 445.952 26.6803 447.12 27.2083 448.128C27.7523 449.136 28.4883 449.912 29.4163 450.456C30.3603 451 31.4163 451.272 32.5843 451.272ZM50.2755 439.608C51.8755 439.608 53.1715 440.096 54.1635 441.072C55.1555 442.032 55.6515 443.424 55.6515 445.248V453H53.4915V445.56C53.4915 444.248 53.1635 443.248 52.5075 442.56C51.8515 441.856 50.9555 441.504 49.8195 441.504C48.6675 441.504 47.7475 441.864 47.0595 442.584C46.3875 443.304 46.0515 444.352 46.0515 445.728V453H43.8675V439.848H46.0515V441.72C46.4835 441.048 47.0675 440.528 47.8035 440.16C48.5555 439.792 49.3795 439.608 50.2755 439.608ZM71.2191 445.92C71.2191 446.336 71.1951 446.776 71.1471 447.24H60.6351C60.7151 448.536 61.1551 449.552 61.9551 450.288C62.7711 451.008 63.7551 451.368 64.9071 451.368C65.8511 451.368 66.6351 451.152 67.2591 450.72C67.8991 450.272 68.3471 449.68 68.6031 448.944H70.9551C70.6031 450.208 69.8991 451.24 68.8431 452.04C67.7871 452.824 66.4751 453.216 64.9071 453.216C63.6591 453.216 62.5391 452.936 61.5471 452.376C60.5711 451.816 59.8031 451.024 59.2431 450C58.6831 448.96 58.4031 447.76 58.4031 446.4C58.4031 445.04 58.6751 443.848 59.2191 442.824C59.7631 441.8 60.5231 441.016 61.4991 440.472C62.4911 439.912 63.6271 439.632 64.9071 439.632C66.1551 439.632 67.2591 439.904 68.2191 440.448C69.1791 440.992 69.9151 441.744 70.4271 442.704C70.9551 443.648 71.2191 444.72 71.2191 445.92ZM68.9631 445.464C68.9631 444.632 68.7791 443.92 68.4111 443.328C68.0431 442.72 67.5391 442.264 66.8991 441.96C66.2751 441.64 65.5791 441.48 64.8111 441.48C63.7071 441.48 62.7631 441.832 61.9791 442.536C61.2111 443.24 60.7711 444.216 60.6591 445.464H68.9631ZM83.2219 443.28V445.128H73.6459V443.28H83.2219ZM91.9767 453.216C90.9687 453.216 90.0647 453.048 89.2647 452.712C88.4647 452.36 87.8327 451.88 87.3687 451.272C86.9047 450.648 86.6487 449.936 86.6007 449.136H88.8567C88.9207 449.792 89.2247 450.328 89.7687 450.744C90.3287 451.16 91.0567 451.368 91.9527 451.368C92.7847 451.368 93.4407 451.184 93.9207 450.816C94.4007 450.448 94.6407 449.984 94.6407 449.424C94.6407 448.848 94.3847 448.424 93.8727 448.152C93.3607 447.864 92.5687 447.584 91.4967 447.312C90.5207 447.056 89.7207 446.8 89.0967 446.544C88.4887 446.272 87.9607 445.88 87.5127 445.368C87.0807 444.84 86.8647 444.152 86.8647 443.304C86.8647 442.632 87.0647 442.016 87.4647 441.456C87.8647 440.896 88.4327 440.456 89.1687 440.136C89.9047 439.8 90.7447 439.632 91.6887 439.632C93.1447 439.632 94.3207 440 95.2167 440.736C96.1127 441.472 96.5927 442.48 96.6567 443.76H94.4727C94.4247 443.072 94.1447 442.52 93.6327 442.104C93.1367 441.688 92.4647 441.48 91.6167 441.48C90.8327 441.48 90.2087 441.648 89.7447 441.984C89.2807 442.32 89.0487 442.76 89.0487 443.304C89.0487 443.736 89.1847 444.096 89.4567 444.384C89.7447 444.656 90.0967 444.88 90.5127 445.056C90.9447 445.216 91.5367 445.4 92.2887 445.608C93.2327 445.864 94.0007 446.12 94.5927 446.376C95.1847 446.616 95.6887 446.984 96.1047 447.48C96.5367 447.976 96.7607 448.624 96.7767 449.424C96.7767 450.144 96.5767 450.792 96.1767 451.368C95.7767 451.944 95.2087 452.4 94.4727 452.736C93.7527 453.056 92.9207 453.216 91.9767 453.216ZM102.524 441.648V449.4C102.524 450.04 102.66 450.496 102.932 450.768C103.204 451.024 103.676 451.152 104.348 451.152H105.956V453H103.988C102.772 453 101.86 452.72 101.252 452.16C100.644 451.6 100.34 450.68 100.34 449.4V441.648H98.6357V439.848H100.34V436.536H102.524V439.848H105.956V441.648H102.524ZM114.338 453.216C113.106 453.216 111.986 452.936 110.978 452.376C109.986 451.816 109.202 451.024 108.626 450C108.066 448.96 107.786 447.76 107.786 446.4C107.786 445.056 108.074 443.872 108.65 442.848C109.242 441.808 110.042 441.016 111.05 440.472C112.058 439.912 113.186 439.632 114.434 439.632C115.682 439.632 116.81 439.912 117.818 440.472C118.826 441.016 119.618 441.8 120.194 442.824C120.786 443.848 121.082 445.04 121.082 446.4C121.082 447.76 120.778 448.96 120.17 450C119.578 451.024 118.77 451.816 117.746 452.376C116.722 452.936 115.586 453.216 114.338 453.216ZM114.338 451.296C115.122 451.296 115.858 451.112 116.546 450.744C117.234 450.376 117.786 449.824 118.202 449.088C118.634 448.352 118.85 447.456 118.85 446.4C118.85 445.344 118.642 444.448 118.226 443.712C117.81 442.976 117.266 442.432 116.594 442.08C115.922 441.712 115.194 441.528 114.41 441.528C113.61 441.528 112.874 441.712 112.202 442.08C111.546 442.432 111.018 442.976 110.618 443.712C110.218 444.448 110.018 445.344 110.018 446.4C110.018 447.472 110.21 448.376 110.594 449.112C110.994 449.848 111.522 450.4 112.178 450.768C112.834 451.12 113.554 451.296 114.338 451.296ZM126.137 442.272C126.569 441.52 127.209 440.896 128.057 440.4C128.921 439.888 129.921 439.632 131.057 439.632C132.225 439.632 133.281 439.912 134.225 440.472C135.185 441.032 135.937 441.824 136.481 442.848C137.025 443.856 137.297 445.032 137.297 446.376C137.297 447.704 137.025 448.888 136.481 449.928C135.937 450.968 135.185 451.776 134.225 452.352C133.281 452.928 132.225 453.216 131.057 453.216C129.937 453.216 128.945 452.968 128.081 452.472C127.233 451.96 126.585 451.328 126.137 450.576V459.24H123.953V439.848H126.137V442.272ZM135.065 446.376C135.065 445.384 134.865 444.52 134.465 443.784C134.065 443.048 133.521 442.488 132.833 442.104C132.161 441.72 131.417 441.528 130.601 441.528C129.801 441.528 129.057 441.728 128.369 442.128C127.697 442.512 127.153 443.08 126.737 443.832C126.337 444.568 126.137 445.424 126.137 446.4C126.137 447.392 126.337 448.264 126.737 449.016C127.153 449.752 127.697 450.32 128.369 450.72C129.057 451.104 129.801 451.296 130.601 451.296C131.417 451.296 132.161 451.104 132.833 450.72C133.521 450.32 134.065 449.752 134.465 449.016C134.865 448.264 135.065 447.384 135.065 446.376ZM145.755 446.376C145.755 445.032 146.027 443.856 146.571 442.848C147.115 441.824 147.859 441.032 148.803 440.472C149.763 439.912 150.835 439.632 152.019 439.632C153.043 439.632 153.995 439.872 154.875 440.352C155.755 440.816 156.427 441.432 156.891 442.2V435.24H159.099V453H156.891V450.528C156.459 451.312 155.819 451.96 154.971 452.472C154.123 452.968 153.131 453.216 151.995 453.216C150.827 453.216 149.763 452.928 148.803 452.352C147.859 451.776 147.115 450.968 146.571 449.928C146.027 448.888 145.755 447.704 145.755 446.376ZM156.891 446.4C156.891 445.408 156.691 444.544 156.291 443.808C155.891 443.072 155.347 442.512 154.659 442.128C153.987 441.728 153.243 441.528 152.427 441.528C151.611 441.528 150.867 441.72 150.195 442.104C149.523 442.488 148.987 443.048 148.587 443.784C148.187 444.52 147.987 445.384 147.987 446.376C147.987 447.384 148.187 448.264 148.587 449.016C148.987 449.752 149.523 450.32 150.195 450.72C150.867 451.104 151.611 451.296 152.427 451.296C153.243 451.296 153.987 451.104 154.659 450.72C155.347 450.32 155.891 449.752 156.291 449.016C156.691 448.264 156.891 447.392 156.891 446.4ZM174.789 445.92C174.789 446.336 174.765 446.776 174.717 447.24H164.205C164.285 448.536 164.725 449.552 165.525 450.288C166.341 451.008 167.325 451.368 168.477 451.368C169.421 451.368 170.205 451.152 170.829 450.72C171.469 450.272 171.917 449.68 172.173 448.944H174.525C174.173 450.208 173.469 451.24 172.413 452.04C171.357 452.824 170.045 453.216 168.477 453.216C167.229 453.216 166.109 452.936 165.117 452.376C164.141 451.816 163.373 451.024 162.813 450C162.253 448.96 161.973 447.76 161.973 446.4C161.973 445.04 162.245 443.848 162.789 442.824C163.333 441.8 164.093 441.016 165.069 440.472C166.061 439.912 167.197 439.632 168.477 439.632C169.725 439.632 170.829 439.904 171.789 440.448C172.749 440.992 173.485 441.744 173.997 442.704C174.525 443.648 174.789 444.72 174.789 445.92ZM172.533 445.464C172.533 444.632 172.349 443.92 171.981 443.328C171.613 442.72 171.109 442.264 170.469 441.96C169.845 441.64 169.149 441.48 168.381 441.48C167.277 441.48 166.333 441.832 165.549 442.536C164.781 443.24 164.341 444.216 164.229 445.464H172.533ZM182.328 453.216C181.32 453.216 180.416 453.048 179.616 452.712C178.816 452.36 178.184 451.88 177.72 451.272C177.256 450.648 177 449.936 176.952 449.136H179.208C179.272 449.792 179.576 450.328 180.12 450.744C180.68 451.16 181.408 451.368 182.304 451.368C183.136 451.368 183.792 451.184 184.272 450.816C184.752 450.448 184.992 449.984 184.992 449.424C184.992 448.848 184.736 448.424 184.224 448.152C183.712 447.864 182.92 447.584 181.848 447.312C180.872 447.056 180.072 446.8 179.448 446.544C178.84 446.272 178.312 445.88 177.864 445.368C177.432 444.84 177.216 444.152 177.216 443.304C177.216 442.632 177.416 442.016 177.816 441.456C178.216 440.896 178.784 440.456 179.52 440.136C180.256 439.8 181.096 439.632 182.04 439.632C183.496 439.632 184.672 440 185.568 440.736C186.464 441.472 186.944 442.48 187.008 443.76H184.824C184.776 443.072 184.496 442.52 183.984 442.104C183.488 441.688 182.816 441.48 181.968 441.48C181.184 441.48 180.56 441.648 180.096 441.984C179.632 442.32 179.4 442.76 179.4 443.304C179.4 443.736 179.536 444.096 179.808 444.384C180.096 444.656 180.448 444.88 180.864 445.056C181.296 445.216 181.888 445.4 182.64 445.608C183.584 445.864 184.352 446.12 184.944 446.376C185.536 446.616 186.04 446.984 186.456 447.48C186.888 447.976 187.112 448.624 187.128 449.424C187.128 450.144 186.928 450.792 186.528 451.368C186.128 451.944 185.56 452.4 184.824 452.736C184.104 453.056 183.272 453.216 182.328 453.216ZM192.875 441.648V449.4C192.875 450.04 193.011 450.496 193.283 450.768C193.555 451.024 194.027 451.152 194.699 451.152H196.307V453H194.339C193.123 453 192.211 452.72 191.603 452.16C190.995 451.6 190.691 450.68 190.691 449.4V441.648H188.987V439.848H190.691V436.536H192.875V439.848H196.307V441.648H192.875ZM200.081 437.712C199.665 437.712 199.313 437.568 199.025 437.28C198.737 436.992 198.593 436.64 198.593 436.224C198.593 435.808 198.737 435.456 199.025 435.168C199.313 434.88 199.665 434.736 200.081 434.736C200.481 434.736 200.817 434.88 201.089 435.168C201.377 435.456 201.521 435.808 201.521 436.224C201.521 436.64 201.377 436.992 201.089 437.28C200.817 437.568 200.481 437.712 200.081 437.712ZM201.137 439.848V453H198.953V439.848H201.137ZM211.268 439.608C212.868 439.608 214.164 440.096 215.156 441.072C216.148 442.032 216.644 443.424 216.644 445.248V453H214.484V445.56C214.484 444.248 214.156 443.248 213.5 442.56C212.844 441.856 211.948 441.504 210.812 441.504C209.66 441.504 208.74 441.864 208.052 442.584C207.38 443.304 207.044 444.352 207.044 445.728V453H204.86V439.848H207.044V441.72C207.476 441.048 208.06 440.528 208.796 440.16C209.548 439.792 210.372 439.608 211.268 439.608ZM219.395 446.376C219.395 445.032 219.667 443.856 220.211 442.848C220.755 441.824 221.499 441.032 222.443 440.472C223.403 439.912 224.467 439.632 225.635 439.632C226.787 439.632 227.787 439.88 228.635 440.376C229.483 440.872 230.115 441.496 230.531 442.248V439.848H232.739V453H230.531V450.552C230.099 451.32 229.451 451.96 228.587 452.472C227.739 452.968 226.747 453.216 225.611 453.216C224.443 453.216 223.387 452.928 222.443 452.352C221.499 451.776 220.755 450.968 220.211 449.928C219.667 448.888 219.395 447.704 219.395 446.376ZM230.531 446.4C230.531 445.408 230.331 444.544 229.931 443.808C229.531 443.072 228.987 442.512 228.299 442.128C227.627 441.728 226.883 441.528 226.067 441.528C225.251 441.528 224.507 441.72 223.835 442.104C223.163 442.488 222.627 443.048 222.227 443.784C221.827 444.52 221.627 445.384 221.627 446.376C221.627 447.384 221.827 448.264 222.227 449.016C222.627 449.752 223.163 450.32 223.835 450.72C224.507 451.104 225.251 451.296 226.067 451.296C226.883 451.296 227.627 451.104 228.299 450.72C228.987 450.32 229.531 449.752 229.931 449.016C230.331 448.264 230.531 447.392 230.531 446.4ZM239.094 441.648V449.4C239.094 450.04 239.23 450.496 239.502 450.768C239.774 451.024 240.246 451.152 240.918 451.152H242.526V453H240.558C239.342 453 238.43 452.72 237.822 452.16C237.214 451.6 236.91 450.68 236.91 449.4V441.648H235.206V439.848H236.91V436.536H239.094V439.848H242.526V441.648H239.094ZM246.3 437.712C245.884 437.712 245.532 437.568 245.244 437.28C244.956 436.992 244.812 436.64 244.812 436.224C244.812 435.808 244.956 435.456 245.244 435.168C245.532 434.88 245.884 434.736 246.3 434.736C246.7 434.736 247.036 434.88 247.308 435.168C247.596 435.456 247.74 435.808 247.74 436.224C247.74 436.64 247.596 436.992 247.308 437.28C247.036 437.568 246.7 437.712 246.3 437.712ZM247.356 439.848V453H245.172V439.848H247.356ZM256.814 453.216C255.582 453.216 254.462 452.936 253.454 452.376C252.462 451.816 251.678 451.024 251.102 450C250.542 448.96 250.262 447.76 250.262 446.4C250.262 445.056 250.55 443.872 251.126 442.848C251.718 441.808 252.518 441.016 253.526 440.472C254.534 439.912 255.662 439.632 256.91 439.632C258.158 439.632 259.286 439.912 260.294 440.472C261.302 441.016 262.094 441.8 262.67 442.824C263.262 443.848 263.558 445.04 263.558 446.4C263.558 447.76 263.254 448.96 262.646 450C262.054 451.024 261.246 451.816 260.222 452.376C259.198 452.936 258.062 453.216 256.814 453.216ZM256.814 451.296C257.598 451.296 258.334 451.112 259.022 450.744C259.71 450.376 260.262 449.824 260.678 449.088C261.11 448.352 261.326 447.456 261.326 446.4C261.326 445.344 261.118 444.448 260.702 443.712C260.286 442.976 259.742 442.432 259.07 442.08C258.398 441.712 257.67 441.528 256.886 441.528C256.086 441.528 255.35 441.712 254.678 442.08C254.022 442.432 253.494 442.976 253.094 443.712C252.694 444.448 252.494 445.344 252.494 446.4C252.494 447.472 252.686 448.376 253.07 449.112C253.47 449.848 253.998 450.4 254.654 450.768C255.31 451.12 256.03 451.296 256.814 451.296ZM272.838 439.608C274.438 439.608 275.734 440.096 276.726 441.072C277.718 442.032 278.214 443.424 278.214 445.248V453H276.054V445.56C276.054 444.248 275.726 443.248 275.07 442.56C274.414 441.856 273.518 441.504 272.382 441.504C271.23 441.504 270.31 441.864 269.622 442.584C268.95 443.304 268.614 444.352 268.614 445.728V453H266.43V439.848H268.614V441.72C269.046 441.048 269.63 440.528 270.366 440.16C271.118 439.792 271.942 439.608 272.838 439.608ZM293.532 441.648H290.772V453H288.588V441.648H286.884V439.848H288.588V438.912C288.588 437.44 288.964 436.368 289.716 435.696C290.484 435.008 291.708 434.664 293.388 434.664V436.488C292.428 436.488 291.748 436.68 291.348 437.064C290.964 437.432 290.772 438.048 290.772 438.912V439.848H293.532V441.648ZM301.814 453.216C300.582 453.216 299.462 452.936 298.454 452.376C297.462 451.816 296.678 451.024 296.102 450C295.542 448.96 295.262 447.76 295.262 446.4C295.262 445.056 295.55 443.872 296.126 442.848C296.718 441.808 297.518 441.016 298.526 440.472C299.534 439.912 300.662 439.632 301.91 439.632C303.158 439.632 304.286 439.912 305.294 440.472C306.302 441.016 307.094 441.8 307.67 442.824C308.262 443.848 308.558 445.04 308.558 446.4C308.558 447.76 308.254 448.96 307.646 450C307.054 451.024 306.246 451.816 305.222 452.376C304.198 452.936 303.062 453.216 301.814 453.216ZM301.814 451.296C302.598 451.296 303.334 451.112 304.022 450.744C304.71 450.376 305.262 449.824 305.678 449.088C306.11 448.352 306.326 447.456 306.326 446.4C306.326 445.344 306.118 444.448 305.702 443.712C305.286 442.976 304.742 442.432 304.07 442.08C303.398 441.712 302.67 441.528 301.886 441.528C301.086 441.528 300.35 441.712 299.678 442.08C299.022 442.432 298.494 442.976 298.094 443.712C297.694 444.448 297.494 445.344 297.494 446.4C297.494 447.472 297.686 448.376 298.07 449.112C298.47 449.848 298.998 450.4 299.654 450.768C300.31 451.12 301.03 451.296 301.814 451.296ZM313.614 441.984C313.998 441.232 314.542 440.648 315.246 440.232C315.966 439.816 316.838 439.608 317.862 439.608V441.864H317.286C314.838 441.864 313.614 443.192 313.614 445.848V453H311.43V439.848H313.614V441.984ZM325.966 446.376C325.966 445.032 326.238 443.856 326.782 442.848C327.326 441.824 328.07 441.032 329.014 440.472C329.974 439.912 331.038 439.632 332.206 439.632C333.358 439.632 334.358 439.88 335.206 440.376C336.054 440.872 336.686 441.496 337.102 442.248V439.848H339.31V453H337.102V450.552C336.67 451.32 336.022 451.96 335.158 452.472C334.31 452.968 333.318 453.216 332.182 453.216C331.014 453.216 329.958 452.928 329.014 452.352C328.07 451.776 327.326 450.968 326.782 449.928C326.238 448.888 325.966 447.704 325.966 446.376ZM337.102 446.4C337.102 445.408 336.902 444.544 336.502 443.808C336.102 443.072 335.558 442.512 334.87 442.128C334.198 441.728 333.454 441.528 332.638 441.528C331.822 441.528 331.078 441.72 330.406 442.104C329.734 442.488 329.198 443.048 328.798 443.784C328.398 444.52 328.198 445.384 328.198 446.376C328.198 447.384 328.398 448.264 328.798 449.016C329.198 449.752 329.734 450.32 330.406 450.72C331.078 451.104 331.822 451.296 332.638 451.296C333.454 451.296 334.198 451.104 334.87 450.72C335.558 450.32 336.102 449.752 336.502 449.016C336.902 448.264 337.102 447.392 337.102 446.4ZM345.184 435.24V453H343V435.24H345.184ZM351.091 435.24V453H348.907V435.24H351.091ZM372.539 439.848L364.619 459.192H362.363L364.955 452.856L359.651 439.848H362.075L366.203 450.504L370.283 439.848H372.539ZM380.471 453.216C379.239 453.216 378.119 452.936 377.111 452.376C376.119 451.816 375.335 451.024 374.759 450C374.199 448.96 373.919 447.76 373.919 446.4C373.919 445.056 374.207 443.872 374.783 442.848C375.375 441.808 376.175 441.016 377.183 440.472C378.191 439.912 379.319 439.632 380.567 439.632C381.815 439.632 382.943 439.912 383.951 440.472C384.959 441.016 385.751 441.8 386.327 442.824C386.919 443.848 387.215 445.04 387.215 446.4C387.215 447.76 386.911 448.96 386.303 450C385.711 451.024 384.903 451.816 383.879 452.376C382.855 452.936 381.719 453.216 380.471 453.216ZM380.471 451.296C381.255 451.296 381.991 451.112 382.679 450.744C383.367 450.376 383.919 449.824 384.335 449.088C384.767 448.352 384.983 447.456 384.983 446.4C384.983 445.344 384.775 444.448 384.359 443.712C383.943 442.976 383.399 442.432 382.727 442.08C382.055 441.712 381.327 441.528 380.543 441.528C379.743 441.528 379.007 441.712 378.335 442.08C377.679 442.432 377.151 442.976 376.751 443.712C376.351 444.448 376.151 445.344 376.151 446.4C376.151 447.472 376.343 448.376 376.727 449.112C377.127 449.848 377.655 450.4 378.311 450.768C378.967 451.12 379.687 451.296 380.471 451.296ZM401.75 439.848V453H399.566V451.056C399.15 451.728 398.566 452.256 397.814 452.64C397.078 453.008 396.262 453.192 395.366 453.192C394.342 453.192 393.422 452.984 392.606 452.568C391.79 452.136 391.142 451.496 390.662 450.648C390.198 449.8 389.966 448.768 389.966 447.552V439.848H392.126V447.264C392.126 448.56 392.454 449.56 393.11 450.264C393.766 450.952 394.662 451.296 395.798 451.296C396.966 451.296 397.886 450.936 398.558 450.216C399.23 449.496 399.566 448.448 399.566 447.072V439.848H401.75ZM407.622 441.984C408.006 441.232 408.55 440.648 409.254 440.232C409.974 439.816 410.846 439.608 411.87 439.608V441.864H411.294C408.846 441.864 407.622 443.192 407.622 445.848V453H405.438V439.848H407.622V441.984ZM419.973 446.376C419.973 445.032 420.245 443.856 420.789 442.848C421.333 441.824 422.077 441.032 423.021 440.472C423.981 439.912 425.053 439.632 426.237 439.632C427.261 439.632 428.213 439.872 429.093 440.352C429.973 440.816 430.645 441.432 431.109 442.2V435.24H433.317V453H431.109V450.528C430.677 451.312 430.037 451.96 429.189 452.472C428.341 452.968 427.349 453.216 426.213 453.216C425.045 453.216 423.981 452.928 423.021 452.352C422.077 451.776 421.333 450.968 420.789 449.928C420.245 448.888 419.973 447.704 419.973 446.376ZM431.109 446.4C431.109 445.408 430.909 444.544 430.509 443.808C430.109 443.072 429.565 442.512 428.877 442.128C428.205 441.728 427.461 441.528 426.645 441.528C425.829 441.528 425.085 441.72 424.413 442.104C423.741 442.488 423.205 443.048 422.805 443.784C422.405 444.52 422.205 445.384 422.205 446.376C422.205 447.384 422.405 448.264 422.805 449.016C423.205 449.752 423.741 450.32 424.413 450.72C425.085 451.104 425.829 451.296 426.645 451.296C427.461 451.296 428.205 451.104 428.877 450.72C429.565 450.32 430.109 449.752 430.509 449.016C430.909 448.264 431.109 447.392 431.109 446.4ZM436.192 446.376C436.192 445.032 436.464 443.856 437.008 442.848C437.552 441.824 438.296 441.032 439.24 440.472C440.2 439.912 441.264 439.632 442.432 439.632C443.584 439.632 444.584 439.88 445.432 440.376C446.28 440.872 446.912 441.496 447.328 442.248V439.848H449.536V453H447.328V450.552C446.896 451.32 446.248 451.96 445.384 452.472C444.536 452.968 443.544 453.216 442.408 453.216C441.24 453.216 440.184 452.928 439.24 452.352C438.296 451.776 437.552 450.968 437.008 449.928C436.464 448.888 436.192 447.704 436.192 446.376ZM447.328 446.4C447.328 445.408 447.128 444.544 446.728 443.808C446.328 443.072 445.784 442.512 445.096 442.128C444.424 441.728 443.68 441.528 442.864 441.528C442.048 441.528 441.304 441.72 440.632 442.104C439.96 442.488 439.424 443.048 439.024 443.784C438.624 444.52 438.424 445.384 438.424 446.376C438.424 447.384 438.624 448.264 439.024 449.016C439.424 449.752 439.96 450.32 440.632 450.72C441.304 451.104 442.048 451.296 442.864 451.296C443.68 451.296 444.424 451.104 445.096 450.72C445.784 450.32 446.328 449.752 446.728 449.016C447.128 448.264 447.328 447.392 447.328 446.4ZM454.355 437.712C453.939 437.712 453.587 437.568 453.299 437.28C453.011 436.992 452.867 436.64 452.867 436.224C452.867 435.808 453.011 435.456 453.299 435.168C453.587 434.88 453.939 434.736 454.355 434.736C454.755 434.736 455.091 434.88 455.363 435.168C455.651 435.456 455.795 435.808 455.795 436.224C455.795 436.64 455.651 436.992 455.363 437.28C455.091 437.568 454.755 437.712 454.355 437.712ZM455.411 439.848V453H453.227V439.848H455.411ZM461.317 435.24V453H459.133V435.24H461.317ZM476.367 439.848L468.447 459.192H466.191L468.783 452.856L463.479 439.848H465.903L470.031 450.504L474.111 439.848H476.367ZM490.385 439.632C491.521 439.632 492.513 439.88 493.361 440.376C494.225 440.872 494.865 441.496 495.281 442.248V439.848H497.489V453.288C497.489 454.488 497.233 455.552 496.721 456.48C496.209 457.424 495.473 458.16 494.513 458.688C493.569 459.216 492.465 459.48 491.201 459.48C489.473 459.48 488.033 459.072 486.881 458.256C485.729 457.44 485.049 456.328 484.841 454.92H487.001C487.241 455.72 487.737 456.36 488.489 456.84C489.241 457.336 490.145 457.584 491.201 457.584C492.401 457.584 493.377 457.208 494.129 456.456C494.897 455.704 495.281 454.648 495.281 453.288V450.528C494.849 451.296 494.209 451.936 493.361 452.448C492.513 452.96 491.521 453.216 490.385 453.216C489.217 453.216 488.153 452.928 487.193 452.352C486.249 451.776 485.505 450.968 484.961 449.928C484.417 448.888 484.145 447.704 484.145 446.376C484.145 445.032 484.417 443.856 484.961 442.848C485.505 441.824 486.249 441.032 487.193 440.472C488.153 439.912 489.217 439.632 490.385 439.632ZM495.281 446.4C495.281 445.408 495.081 444.544 494.681 443.808C494.281 443.072 493.737 442.512 493.049 442.128C492.377 441.728 491.633 441.528 490.817 441.528C490.001 441.528 489.257 441.72 488.585 442.104C487.913 442.488 487.377 443.048 486.977 443.784C486.577 444.52 486.377 445.384 486.377 446.376C486.377 447.384 486.577 448.264 486.977 449.016C487.377 449.752 487.913 450.32 488.585 450.72C489.257 451.104 490.001 451.296 490.817 451.296C491.633 451.296 492.377 451.104 493.049 450.72C493.737 450.32 494.281 449.752 494.681 449.016C495.081 448.264 495.281 447.392 495.281 446.4ZM503.364 441.984C503.748 441.232 504.292 440.648 504.996 440.232C505.716 439.816 506.588 439.608 507.612 439.608V441.864H507.036C504.588 441.864 503.364 443.192 503.364 445.848V453H501.18V439.848H503.364V441.984ZM515.869 453.216C514.637 453.216 513.517 452.936 512.509 452.376C511.517 451.816 510.733 451.024 510.157 450C509.597 448.96 509.317 447.76 509.317 446.4C509.317 445.056 509.605 443.872 510.181 442.848C510.773 441.808 511.573 441.016 512.581 440.472C513.589 439.912 514.717 439.632 515.965 439.632C517.213 439.632 518.341 439.912 519.349 440.472C520.357 441.016 521.149 441.8 521.725 442.824C522.317 443.848 522.613 445.04 522.613 446.4C522.613 447.76 522.309 448.96 521.701 450C521.109 451.024 520.301 451.816 519.277 452.376C518.253 452.936 517.117 453.216 515.869 453.216ZM515.869 451.296C516.653 451.296 517.389 451.112 518.077 450.744C518.765 450.376 519.317 449.824 519.733 449.088C520.165 448.352 520.381 447.456 520.381 446.4C520.381 445.344 520.173 444.448 519.757 443.712C519.341 442.976 518.797 442.432 518.125 442.08C517.453 441.712 516.725 441.528 515.941 441.528C515.141 441.528 514.405 441.712 513.733 442.08C513.077 442.432 512.549 442.976 512.149 443.712C511.749 444.448 511.549 445.344 511.549 446.4C511.549 447.472 511.741 448.376 512.125 449.112C512.525 449.848 513.053 450.4 513.709 450.768C514.365 451.12 515.085 451.296 515.869 451.296ZM524.669 446.4C524.669 445.04 524.941 443.856 525.485 442.848C526.029 441.824 526.781 441.032 527.741 440.472C528.717 439.912 529.829 439.632 531.077 439.632C532.693 439.632 534.021 440.024 535.061 440.808C536.117 441.592 536.813 442.68 537.149 444.072H534.797C534.573 443.272 534.133 442.64 533.477 442.176C532.837 441.712 532.037 441.48 531.077 441.48C529.829 441.48 528.821 441.912 528.053 442.776C527.285 443.624 526.901 444.832 526.901 446.4C526.901 447.984 527.285 449.208 528.053 450.072C528.821 450.936 529.829 451.368 531.077 451.368C532.037 451.368 532.837 451.144 533.477 450.696C534.117 450.248 534.557 449.608 534.797 448.776H537.149C536.797 450.12 536.093 451.2 535.037 452.016C533.981 452.816 532.661 453.216 531.077 453.216C529.829 453.216 528.717 452.936 527.741 452.376C526.781 451.816 526.029 451.024 525.485 450C524.941 448.976 524.669 447.776 524.669 446.4ZM552.063 445.92C552.063 446.336 552.039 446.776 551.991 447.24H541.479C541.559 448.536 541.999 449.552 542.799 450.288C543.615 451.008 544.599 451.368 545.751 451.368C546.695 451.368 547.479 451.152 548.103 450.72C548.743 450.272 549.191 449.68 549.447 448.944H551.799C551.447 450.208 550.743 451.24 549.687 452.04C548.631 452.824 547.319 453.216 545.751 453.216C544.503 453.216 543.383 452.936 542.391 452.376C541.415 451.816 540.647 451.024 540.087 450C539.527 448.96 539.247 447.76 539.247 446.4C539.247 445.04 539.519 443.848 540.063 442.824C540.607 441.8 541.367 441.016 542.343 440.472C543.335 439.912 544.471 439.632 545.751 439.632C546.999 439.632 548.103 439.904 549.063 440.448C550.023 440.992 550.759 441.744 551.271 442.704C551.799 443.648 552.063 444.72 552.063 445.92ZM549.807 445.464C549.807 444.632 549.623 443.92 549.255 443.328C548.887 442.72 548.383 442.264 547.743 441.96C547.119 441.64 546.423 441.48 545.655 441.48C544.551 441.48 543.607 441.832 542.823 442.536C542.055 443.24 541.615 444.216 541.503 445.464H549.807ZM557.13 441.984C557.514 441.232 558.058 440.648 558.762 440.232C559.482 439.816 560.354 439.608 561.378 439.608V441.864H560.802C558.354 441.864 557.13 443.192 557.13 445.848V453H554.946V439.848H557.13V441.984ZM575.227 439.848L567.307 459.192H565.051L567.643 452.856L562.339 439.848H564.763L568.891 450.504L572.971 439.848H575.227ZM590.229 439.608C591.829 439.608 593.125 440.096 594.117 441.072C595.109 442.032 595.605 443.424 595.605 445.248V453H593.445V445.56C593.445 444.248 593.117 443.248 592.461 442.56C591.805 441.856 590.909 441.504 589.773 441.504C588.621 441.504 587.701 441.864 587.013 442.584C586.341 443.304 586.005 444.352 586.005 445.728V453H583.821V439.848H586.005V441.72C586.437 441.048 587.021 440.528 587.757 440.16C588.509 439.792 589.333 439.608 590.229 439.608ZM611.172 445.92C611.172 446.336 611.148 446.776 611.1 447.24H600.588C600.668 448.536 601.108 449.552 601.908 450.288C602.724 451.008 603.708 451.368 604.86 451.368C605.804 451.368 606.588 451.152 607.212 450.72C607.852 450.272 608.3 449.68 608.556 448.944H610.908C610.556 450.208 609.852 451.24 608.796 452.04C607.74 452.824 606.428 453.216 604.86 453.216C603.612 453.216 602.492 452.936 601.5 452.376C600.524 451.816 599.756 451.024 599.196 450C598.636 448.96 598.356 447.76 598.356 446.4C598.356 445.04 598.628 443.848 599.172 442.824C599.716 441.8 600.476 441.016 601.452 440.472C602.444 439.912 603.58 439.632 604.86 439.632C606.108 439.632 607.212 439.904 608.172 440.448C609.132 440.992 609.868 441.744 610.38 442.704C610.908 443.648 611.172 444.72 611.172 445.92ZM608.916 445.464C608.916 444.632 608.732 443.92 608.364 443.328C607.996 442.72 607.492 442.264 606.852 441.96C606.228 441.64 605.532 441.48 604.764 441.48C603.66 441.48 602.716 441.832 601.932 442.536C601.164 443.24 600.724 444.216 600.612 445.464H608.916ZM626.055 445.92C626.055 446.336 626.031 446.776 625.983 447.24H615.471C615.551 448.536 615.991 449.552 616.791 450.288C617.607 451.008 618.591 451.368 619.743 451.368C620.687 451.368 621.471 451.152 622.095 450.72C622.735 450.272 623.183 449.68 623.439 448.944H625.791C625.439 450.208 624.735 451.24 623.679 452.04C622.623 452.824 621.311 453.216 619.743 453.216C618.495 453.216 617.375 452.936 616.383 452.376C615.407 451.816 614.639 451.024 614.079 450C613.519 448.96 613.239 447.76 613.239 446.4C613.239 445.04 613.511 443.848 614.055 442.824C614.599 441.8 615.359 441.016 616.335 440.472C617.327 439.912 618.463 439.632 619.743 439.632C620.991 439.632 622.095 439.904 623.055 440.448C624.015 440.992 624.751 441.744 625.263 442.704C625.791 443.648 626.055 444.72 626.055 445.92ZM623.799 445.464C623.799 444.632 623.615 443.92 623.247 443.328C622.879 442.72 622.375 442.264 621.735 441.96C621.111 441.64 620.415 441.48 619.647 441.48C618.543 441.48 617.599 441.832 616.815 442.536C616.047 443.24 615.607 444.216 615.495 445.464H623.799ZM628.122 446.376C628.122 445.032 628.394 443.856 628.938 442.848C629.482 441.824 630.226 441.032 631.17 440.472C632.13 439.912 633.202 439.632 634.386 439.632C635.41 439.632 636.362 439.872 637.242 440.352C638.122 440.816 638.794 441.432 639.258 442.2V435.24H641.466V453H639.258V450.528C638.826 451.312 638.186 451.96 637.338 452.472C636.49 452.968 635.498 453.216 634.362 453.216C633.194 453.216 632.13 452.928 631.17 452.352C630.226 451.776 629.482 450.968 628.938 449.928C628.394 448.888 628.122 447.704 628.122 446.376ZM639.258 446.4C639.258 445.408 639.058 444.544 638.658 443.808C638.258 443.072 637.714 442.512 637.026 442.128C636.354 441.728 635.61 441.528 634.794 441.528C633.978 441.528 633.234 441.72 632.562 442.104C631.89 442.488 631.354 443.048 630.954 443.784C630.554 444.52 630.354 445.384 630.354 446.376C630.354 447.384 630.554 448.264 630.954 449.016C631.354 449.752 631.89 450.32 632.562 450.72C633.234 451.104 633.978 451.296 634.794 451.296C635.61 451.296 636.354 451.104 637.026 450.72C637.714 450.32 638.258 449.752 638.658 449.016C639.058 448.264 639.258 447.392 639.258 446.4ZM649.813 453.216C648.805 453.216 647.901 453.048 647.101 452.712C646.301 452.36 645.669 451.88 645.205 451.272C644.741 450.648 644.485 449.936 644.437 449.136H646.693C646.757 449.792 647.061 450.328 647.605 450.744C648.165 451.16 648.893 451.368 649.789 451.368C650.621 451.368 651.277 451.184 651.757 450.816C652.237 450.448 652.477 449.984 652.477 449.424C652.477 448.848 652.221 448.424 651.709 448.152C651.197 447.864 650.405 447.584 649.333 447.312C648.357 447.056 647.557 446.8 646.933 446.544C646.325 446.272 645.797 445.88 645.349 445.368C644.917 444.84 644.701 444.152 644.701 443.304C644.701 442.632 644.901 442.016 645.301 441.456C645.701 440.896 646.269 440.456 647.005 440.136C647.741 439.8 648.581 439.632 649.525 439.632C650.981 439.632 652.157 440 653.053 440.736C653.949 441.472 654.429 442.48 654.493 443.76H652.309C652.261 443.072 651.981 442.52 651.469 442.104C650.973 441.688 650.301 441.48 649.453 441.48C648.669 441.48 648.045 441.648 647.581 441.984C647.117 442.32 646.885 442.76 646.885 443.304C646.885 443.736 647.021 444.096 647.293 444.384C647.581 444.656 647.933 444.88 648.349 445.056C648.781 445.216 649.373 445.4 650.125 445.608C651.069 445.864 651.837 446.12 652.429 446.376C653.021 446.616 653.525 446.984 653.941 447.48C654.373 447.976 654.597 448.624 654.613 449.424C654.613 450.144 654.413 450.792 654.013 451.368C653.613 451.944 653.045 452.4 652.309 452.736C651.589 453.056 650.757 453.216 649.813 453.216Z" fill="#C2C2C2"/>
<path d="M50.2455 403.456H40.9335L39.3335 408H35.5255L43.4935 385.728H47.7175L55.6855 408H51.8455L50.2455 403.456ZM49.2215 400.48L45.6055 390.144L41.9575 400.48H49.2215ZM83.5585 392.16C82.9825 391.051 82.1825 390.219 81.1585 389.664C80.1345 389.088 78.9505 388.8 77.6065 388.8C76.1345 388.8 74.8225 389.131 73.6705 389.792C72.5185 390.453 71.6118 391.392 70.9505 392.608C70.3105 393.824 69.9905 395.232 69.9905 396.832C69.9905 398.432 70.3105 399.851 70.9505 401.088C71.6118 402.304 72.5185 403.243 73.6705 403.904C74.8225 404.565 76.1345 404.896 77.6065 404.896C79.5905 404.896 81.2012 404.341 82.4385 403.232C83.6758 402.123 84.4332 400.619 84.7105 398.72H76.3585V395.808H88.6145V398.656C88.3798 400.384 87.7612 401.973 86.7585 403.424C85.7772 404.875 84.4865 406.037 82.8865 406.912C81.3078 407.765 79.5478 408.192 77.6065 408.192C75.5158 408.192 73.6065 407.712 71.8785 406.752C70.1505 405.771 68.7745 404.416 67.7505 402.688C66.7478 400.96 66.2465 399.008 66.2465 396.832C66.2465 394.656 66.7478 392.704 67.7505 390.976C68.7745 389.248 70.1505 387.904 71.8785 386.944C73.6278 385.963 75.5372 385.472 77.6065 385.472C79.9745 385.472 82.0758 386.059 83.9105 387.232C85.7665 388.384 87.1105 390.027 87.9425 392.16H83.5585ZM95.8605 392.928C96.3938 392.032 97.0978 391.339 97.9725 390.848C98.8685 390.336 99.9245 390.08 101.141 390.08V393.856H100.213C98.7832 393.856 97.6952 394.219 96.9485 394.944C96.2232 395.669 95.8605 396.928 95.8605 398.72V408H92.2125V390.368H95.8605V392.928ZM112.142 408.288C110.478 408.288 108.974 407.915 107.63 407.168C106.286 406.4 105.23 405.333 104.462 403.968C103.694 402.581 103.31 400.981 103.31 399.168C103.31 397.376 103.704 395.787 104.494 394.4C105.283 393.013 106.36 391.947 107.726 391.2C109.091 390.453 110.616 390.08 112.302 390.08C113.987 390.08 115.512 390.453 116.878 391.2C118.243 391.947 119.32 393.013 120.11 394.4C120.899 395.787 121.294 397.376 121.294 399.168C121.294 400.96 120.888 402.549 120.078 403.936C119.267 405.323 118.158 406.4 116.75 407.168C115.363 407.915 113.827 408.288 112.142 408.288ZM112.142 405.12C113.08 405.12 113.955 404.896 114.766 404.448C115.598 404 116.27 403.328 116.782 402.432C117.294 401.536 117.55 400.448 117.55 399.168C117.55 397.888 117.304 396.811 116.814 395.936C116.323 395.04 115.672 394.368 114.862 393.92C114.051 393.472 113.176 393.248 112.238 393.248C111.299 393.248 110.424 393.472 109.614 393.92C108.824 394.368 108.195 395.04 107.726 395.936C107.256 396.811 107.022 397.888 107.022 399.168C107.022 401.067 107.502 402.539 108.462 403.584C109.443 404.608 110.67 405.12 112.142 405.12ZM123.684 399.168C123.684 397.355 124.047 395.765 124.772 394.4C125.519 393.013 126.543 391.947 127.844 391.2C129.145 390.453 130.639 390.08 132.324 390.08C134.457 390.08 136.217 390.592 137.604 391.616C139.012 392.619 139.961 394.059 140.452 395.936H136.516C136.196 395.061 135.684 394.379 134.98 393.888C134.276 393.397 133.391 393.152 132.324 393.152C130.831 393.152 129.636 393.685 128.74 394.752C127.865 395.797 127.428 397.269 127.428 399.168C127.428 401.067 127.865 402.549 128.74 403.616C129.636 404.683 130.831 405.216 132.324 405.216C134.436 405.216 135.833 404.288 136.516 402.432H140.452C139.94 404.224 138.98 405.653 137.572 406.72C136.164 407.765 134.415 408.288 132.324 408.288C130.639 408.288 129.145 407.915 127.844 407.168C126.543 406.4 125.519 405.333 124.772 403.968C124.047 402.581 123.684 400.981 123.684 399.168ZM160.248 398.752C160.248 399.413 160.205 400.011 160.12 400.544H146.648C146.754 401.952 147.277 403.083 148.216 403.936C149.154 404.789 150.306 405.216 151.672 405.216C153.634 405.216 155.021 404.395 155.832 402.752H159.767C159.234 404.373 158.264 405.707 156.856 406.752C155.469 407.776 153.741 408.288 151.672 408.288C149.986 408.288 148.472 407.915 147.128 407.168C145.805 406.4 144.76 405.333 143.992 403.968C143.245 402.581 142.872 400.981 142.872 399.168C142.872 397.355 143.234 395.765 143.96 394.4C144.706 393.013 145.741 391.947 147.064 391.2C148.408 390.453 149.944 390.08 151.672 390.08C153.336 390.08 154.818 390.443 156.12 391.168C157.421 391.893 158.434 392.917 159.16 394.24C159.885 395.541 160.248 397.045 160.248 398.752ZM156.44 397.6C156.418 396.256 155.938 395.179 155 394.368C154.061 393.557 152.898 393.152 151.512 393.152C150.253 393.152 149.176 393.557 148.28 394.368C147.384 395.157 146.85 396.235 146.68 397.6H156.44ZM167.486 392.928C168.019 392.032 168.723 391.339 169.598 390.848C170.494 390.336 171.55 390.08 172.766 390.08V393.856H171.838C170.408 393.856 169.32 394.219 168.574 394.944C167.848 395.669 167.486 396.928 167.486 398.72V408H163.838V390.368H167.486V392.928ZM191.991 390.368L181.175 416.288H177.399L180.983 407.712L174.039 390.368H178.103L183.063 403.808L188.215 390.368H191.991ZM210.704 408.288C209.04 408.288 207.536 407.915 206.192 407.168C204.848 406.4 203.792 405.333 203.024 403.968C202.256 402.581 201.872 400.981 201.872 399.168C201.872 397.376 202.267 395.787 203.056 394.4C203.846 393.013 204.923 391.947 206.288 391.2C207.654 390.453 209.179 390.08 210.864 390.08C212.55 390.08 214.075 390.453 215.44 391.2C216.806 391.947 217.883 393.013 218.672 394.4C219.462 395.787 219.856 397.376 219.856 399.168C219.856 400.96 219.451 402.549 218.64 403.936C217.83 405.323 216.72 406.4 215.312 407.168C213.926 407.915 212.39 408.288 210.704 408.288ZM210.704 405.12C211.643 405.12 212.518 404.896 213.328 404.448C214.16 404 214.832 403.328 215.344 402.432C215.856 401.536 216.112 400.448 216.112 399.168C216.112 397.888 215.867 396.811 215.376 395.936C214.886 395.04 214.235 394.368 213.424 393.92C212.614 393.472 211.739 393.248 210.8 393.248C209.862 393.248 208.987 393.472 208.176 393.92C207.387 394.368 206.758 395.04 206.288 395.936C205.819 396.811 205.584 397.888 205.584 399.168C205.584 401.067 206.064 402.539 207.024 403.584C208.006 404.608 209.232 405.12 210.704 405.12ZM227.111 392.928C227.644 392.032 228.348 391.339 229.223 390.848C230.119 390.336 231.175 390.08 232.391 390.08V393.856H231.463C230.033 393.856 228.945 394.219 228.199 394.944C227.473 395.669 227.111 396.928 227.111 398.72V408H223.463V390.368H227.111V392.928ZM234.528 399.104C234.528 397.333 234.89 395.765 235.616 394.4C236.362 393.035 237.365 391.979 238.624 391.232C239.904 390.464 241.322 390.08 242.88 390.08C244.032 390.08 245.162 390.336 246.272 390.848C247.402 391.339 248.298 392 248.96 392.832V384.32H252.64V408H248.96V405.344C248.362 406.197 247.53 406.901 246.464 407.456C245.418 408.011 244.213 408.288 242.848 408.288C241.312 408.288 239.904 407.904 238.624 407.136C237.365 406.347 236.362 405.259 235.616 403.872C234.89 402.464 234.528 400.875 234.528 399.104ZM248.96 399.168C248.96 397.952 248.704 396.896 248.192 396C247.701 395.104 247.05 394.421 246.24 393.952C245.429 393.483 244.554 393.248 243.616 393.248C242.677 393.248 241.802 393.483 240.992 393.952C240.181 394.4 239.52 395.072 239.008 395.968C238.517 396.843 238.272 397.888 238.272 399.104C238.272 400.32 238.517 401.387 239.008 402.304C239.52 403.221 240.181 403.925 240.992 404.416C241.824 404.885 242.698 405.12 243.616 405.12C244.554 405.12 245.429 404.885 246.24 404.416C247.05 403.947 247.701 403.264 248.192 402.368C248.704 401.451 248.96 400.384 248.96 399.168ZM273.591 398.752C273.591 399.413 273.549 400.011 273.463 400.544H259.991C260.098 401.952 260.621 403.083 261.559 403.936C262.498 404.789 263.65 405.216 265.015 405.216C266.978 405.216 268.365 404.395 269.175 402.752H273.111C272.578 404.373 271.607 405.707 270.199 406.752C268.813 407.776 267.085 408.288 265.015 408.288C263.33 408.288 261.815 407.915 260.471 407.168C259.149 406.4 258.103 405.333 257.335 403.968C256.589 402.581 256.215 400.981 256.215 399.168C256.215 397.355 256.578 395.765 257.303 394.4C258.05 393.013 259.085 391.947 260.407 391.2C261.751 390.453 263.287 390.08 265.015 390.08C266.679 390.08 268.162 390.443 269.463 391.168C270.765 391.893 271.778 392.917 272.503 394.24C273.229 395.541 273.591 397.045 273.591 398.752ZM269.783 397.6C269.762 396.256 269.282 395.179 268.343 394.368C267.405 393.557 266.242 393.152 264.855 393.152C263.597 393.152 262.519 393.557 261.623 394.368C260.727 395.157 260.194 396.235 260.023 397.6H269.783ZM280.829 392.928C281.363 392.032 282.067 391.339 282.941 390.848C283.837 390.336 284.893 390.08 286.109 390.08V393.856H285.181C283.752 393.856 282.664 394.219 281.917 394.944C281.192 395.669 280.829 396.928 280.829 398.72V408H277.181V390.368H280.829V392.928ZM291.319 388.032C290.657 388.032 290.103 387.808 289.655 387.36C289.207 386.912 288.983 386.357 288.983 385.696C288.983 385.035 289.207 384.48 289.655 384.032C290.103 383.584 290.657 383.36 291.319 383.36C291.959 383.36 292.503 383.584 292.951 384.032C293.399 384.48 293.623 385.035 293.623 385.696C293.623 386.357 293.399 386.912 292.951 387.36C292.503 387.808 291.959 388.032 291.319 388.032ZM293.111 390.368V408H289.463V390.368H293.111ZM306.796 390.08C308.183 390.08 309.42 390.368 310.508 390.944C311.617 391.52 312.481 392.373 313.1 393.504C313.719 394.635 314.028 396 314.028 397.6V408H310.412V398.144C310.412 396.565 310.017 395.36 309.228 394.528C308.439 393.675 307.361 393.248 305.996 393.248C304.631 393.248 303.543 393.675 302.732 394.528C301.943 395.36 301.548 396.565 301.548 398.144V408H297.9V390.368H301.548V392.384C302.145 391.659 302.903 391.093 303.82 390.688C304.759 390.283 305.751 390.08 306.796 390.08ZM325.785 390.08C327.151 390.08 328.356 390.357 329.401 390.912C330.468 391.445 331.3 392.117 331.897 392.928V390.368H335.577V408.288C335.577 409.909 335.236 411.349 334.553 412.608C333.871 413.888 332.879 414.891 331.577 415.616C330.297 416.341 328.761 416.704 326.969 416.704C324.58 416.704 322.596 416.139 321.017 415.008C319.439 413.899 318.543 412.384 318.329 410.464H321.945C322.223 411.381 322.809 412.117 323.705 412.672C324.623 413.248 325.711 413.536 326.969 413.536C328.441 413.536 329.625 413.088 330.521 412.192C331.439 411.296 331.897 409.995 331.897 408.288V405.344C331.279 406.176 330.436 406.88 329.369 407.456C328.324 408.011 327.129 408.288 325.785 408.288C324.249 408.288 322.841 407.904 321.561 407.136C320.303 406.347 319.3 405.259 318.553 403.872C317.828 402.464 317.465 400.875 317.465 399.104C317.465 397.333 317.828 395.765 318.553 394.4C319.3 393.035 320.303 391.979 321.561 391.232C322.841 390.464 324.249 390.08 325.785 390.08ZM331.897 399.168C331.897 397.952 331.641 396.896 331.129 396C330.639 395.104 329.988 394.421 329.177 393.952C328.367 393.483 327.492 393.248 326.553 393.248C325.615 393.248 324.74 393.483 323.929 393.952C323.119 394.4 322.457 395.072 321.945 395.968C321.455 396.843 321.209 397.888 321.209 399.104C321.209 400.32 321.455 401.387 321.945 402.304C322.457 403.221 323.119 403.925 323.929 404.416C324.761 404.885 325.636 405.12 326.553 405.12C327.492 405.12 328.367 404.885 329.177 404.416C329.988 403.947 330.639 403.264 331.129 402.368C331.641 401.451 331.897 400.384 331.897 399.168ZM347.465 399.104C347.465 397.333 347.828 395.765 348.553 394.4C349.3 393.035 350.303 391.979 351.561 391.232C352.841 390.464 354.249 390.08 355.785 390.08C357.172 390.08 358.377 390.357 359.401 390.912C360.447 391.445 361.279 392.117 361.897 392.928V390.368H365.577V408H361.897V405.376C361.279 406.208 360.436 406.901 359.369 407.456C358.303 408.011 357.087 408.288 355.721 408.288C354.207 408.288 352.82 407.904 351.561 407.136C350.303 406.347 349.3 405.259 348.553 403.872C347.828 402.464 347.465 400.875 347.465 399.104ZM361.897 399.168C361.897 397.952 361.641 396.896 361.129 396C360.639 395.104 359.988 394.421 359.177 393.952C358.367 393.483 357.492 393.248 356.553 393.248C355.615 393.248 354.74 393.483 353.929 393.952C353.119 394.4 352.457 395.072 351.945 395.968C351.455 396.843 351.209 397.888 351.209 399.104C351.209 400.32 351.455 401.387 351.945 402.304C352.457 403.221 353.119 403.925 353.929 404.416C354.761 404.885 355.636 405.12 356.553 405.12C357.492 405.12 358.367 404.885 359.177 404.416C359.988 403.947 360.639 403.264 361.129 402.368C361.641 401.451 361.897 400.384 361.897 399.168ZM374.017 392.96C374.635 392.149 375.478 391.467 376.545 390.912C377.611 390.357 378.817 390.08 380.161 390.08C381.697 390.08 383.094 390.464 384.353 391.232C385.633 391.979 386.635 393.035 387.361 394.4C388.086 395.765 388.449 397.333 388.449 399.104C388.449 400.875 388.086 402.464 387.361 403.872C386.635 405.259 385.633 406.347 384.353 407.136C383.094 407.904 381.697 408.288 380.161 408.288C378.817 408.288 377.622 408.021 376.577 407.488C375.531 406.933 374.678 406.251 374.017 405.44V416.384H370.369V390.368H374.017V392.96ZM384.737 399.104C384.737 397.888 384.481 396.843 383.969 395.968C383.478 395.072 382.817 394.4 381.985 393.952C381.174 393.483 380.299 393.248 379.361 393.248C378.443 393.248 377.569 393.483 376.737 393.952C375.926 394.421 375.265 395.104 374.753 396C374.262 396.896 374.017 397.952 374.017 399.168C374.017 400.384 374.262 401.451 374.753 402.368C375.265 403.264 375.926 403.947 376.737 404.416C377.569 404.885 378.443 405.12 379.361 405.12C380.299 405.12 381.174 404.885 381.985 404.416C382.817 403.925 383.478 403.221 383.969 402.304C384.481 401.387 384.737 400.32 384.737 399.104ZM395.704 392.96C396.323 392.149 397.166 391.467 398.232 390.912C399.299 390.357 400.504 390.08 401.848 390.08C403.384 390.08 404.782 390.464 406.04 391.232C407.32 391.979 408.323 393.035 409.048 394.4C409.774 395.765 410.136 397.333 410.136 399.104C410.136 400.875 409.774 402.464 409.048 403.872C408.323 405.259 407.32 406.347 406.04 407.136C404.782 407.904 403.384 408.288 401.848 408.288C400.504 408.288 399.31 408.021 398.264 407.488C397.219 406.933 396.366 406.251 395.704 405.44V416.384H392.056V390.368H395.704V392.96ZM406.424 399.104C406.424 397.888 406.168 396.843 405.656 395.968C405.166 395.072 404.504 394.4 403.672 393.952C402.862 393.483 401.987 393.248 401.048 393.248C400.131 393.248 399.256 393.483 398.424 393.952C397.614 394.421 396.952 395.104 396.44 396C395.95 396.896 395.704 397.952 395.704 399.168C395.704 400.384 395.95 401.451 396.44 402.368C396.952 403.264 397.614 403.947 398.424 404.416C399.256 404.885 400.131 405.12 401.048 405.12C401.987 405.12 402.862 404.885 403.672 404.416C404.504 403.925 405.166 403.221 405.656 402.304C406.168 401.387 406.424 400.32 406.424 399.104ZM429.448 393.344H426.184V408H422.504V393.344H420.424V390.368H422.504V389.12C422.504 387.093 423.038 385.621 424.104 384.704C425.192 383.765 426.888 383.296 429.192 383.296V386.336C428.083 386.336 427.304 386.549 426.856 386.976C426.408 387.381 426.184 388.096 426.184 389.12V390.368H429.448V393.344ZM440.329 408.288C438.665 408.288 437.161 407.915 435.817 407.168C434.473 406.4 433.417 405.333 432.649 403.968C431.881 402.581 431.497 400.981 431.497 399.168C431.497 397.376 431.892 395.787 432.681 394.4C433.471 393.013 434.548 391.947 435.913 391.2C437.279 390.453 438.804 390.08 440.489 390.08C442.175 390.08 443.7 390.453 445.065 391.2C446.431 391.947 447.508 393.013 448.297 394.4C449.087 395.787 449.481 397.376 449.481 399.168C449.481 400.96 449.076 402.549 448.265 403.936C447.455 405.323 446.345 406.4 444.937 407.168C443.551 407.915 442.015 408.288 440.329 408.288ZM440.329 405.12C441.268 405.12 442.143 404.896 442.953 404.448C443.785 404 444.457 403.328 444.969 402.432C445.481 401.536 445.737 400.448 445.737 399.168C445.737 397.888 445.492 396.811 445.001 395.936C444.511 395.04 443.86 394.368 443.049 393.92C442.239 393.472 441.364 393.248 440.425 393.248C439.487 393.248 438.612 393.472 437.801 393.92C437.012 394.368 436.383 395.04 435.913 395.936C435.444 396.811 435.209 397.888 435.209 399.168C435.209 401.067 435.689 402.539 436.649 403.584C437.631 404.608 438.857 405.12 440.329 405.12ZM456.736 392.928C457.269 392.032 457.973 391.339 458.848 390.848C459.744 390.336 460.8 390.08 462.016 390.08V393.856H461.088C459.658 393.856 458.57 394.219 457.824 394.944C457.098 395.669 456.736 396.928 456.736 398.72V408H453.088V390.368H456.736V392.928ZM477.937 393.344V403.104C477.937 403.765 478.087 404.245 478.385 404.544C478.705 404.821 479.239 404.96 479.985 404.96H482.225V408H479.345C477.703 408 476.444 407.616 475.569 406.848C474.695 406.08 474.257 404.832 474.257 403.104V393.344H472.177V390.368H474.257V385.984H477.937V390.368H482.225V393.344H477.937ZM487.444 388.032C486.782 388.032 486.228 387.808 485.78 387.36C485.332 386.912 485.108 386.357 485.108 385.696C485.108 385.035 485.332 384.48 485.78 384.032C486.228 383.584 486.782 383.36 487.444 383.36C488.084 383.36 488.628 383.584 489.076 384.032C489.524 384.48 489.748 385.035 489.748 385.696C489.748 386.357 489.524 386.912 489.076 387.36C488.628 387.808 488.084 388.032 487.444 388.032ZM489.236 390.368V408H485.588V390.368H489.236ZM510.185 398.752C510.185 399.413 510.142 400.011 510.057 400.544H496.585C496.692 401.952 497.214 403.083 498.153 403.936C499.092 404.789 500.244 405.216 501.609 405.216C503.572 405.216 504.958 404.395 505.769 402.752H509.705C509.172 404.373 508.201 405.707 506.793 406.752C505.406 407.776 503.678 408.288 501.609 408.288C499.924 408.288 498.409 407.915 497.065 407.168C495.742 406.4 494.697 405.333 493.929 403.968C493.182 402.581 492.809 400.981 492.809 399.168C492.809 397.355 493.172 395.765 493.897 394.4C494.644 393.013 495.678 391.947 497.001 391.2C498.345 390.453 499.881 390.08 501.609 390.08C503.273 390.08 504.756 390.443 506.057 391.168C507.358 391.893 508.372 392.917 509.097 394.24C509.822 395.541 510.185 397.045 510.185 398.752ZM506.377 397.6C506.356 396.256 505.876 395.179 504.937 394.368C503.998 393.557 502.836 393.152 501.449 393.152C500.19 393.152 499.113 393.557 498.217 394.368C497.321 395.157 496.788 396.235 496.617 397.6H506.377ZM517.423 392.928C517.956 392.032 518.66 391.339 519.535 390.848C520.431 390.336 521.487 390.08 522.703 390.08V393.856H521.775C520.346 393.856 519.258 394.219 518.511 394.944C517.786 395.669 517.423 396.928 517.423 398.72V408H513.775V390.368H517.423V392.928ZM535.905 403.04C537.953 401.269 539.563 399.819 540.737 398.688C541.931 397.536 542.923 396.341 543.713 395.104C544.502 393.867 544.897 392.629 544.897 391.392C544.897 390.112 544.587 389.109 543.969 388.384C543.371 387.659 542.422 387.296 541.121 387.296C539.862 387.296 538.881 387.701 538.177 388.512C537.494 389.301 537.131 390.368 537.089 391.712H533.569C533.633 389.28 534.358 387.424 535.745 386.144C537.153 384.843 538.934 384.192 541.089 384.192C543.414 384.192 545.227 384.832 546.529 386.112C547.851 387.392 548.513 389.099 548.513 391.232C548.513 392.768 548.118 394.251 547.329 395.68C546.561 397.088 545.633 398.357 544.545 399.488C543.478 400.597 542.113 401.888 540.449 403.36L539.009 404.64H549.153V407.68H533.601V405.024L535.905 403.04ZM559.934 399.168C559.934 397.355 560.297 395.765 561.022 394.4C561.769 393.013 562.793 391.947 564.094 391.2C565.395 390.453 566.889 390.08 568.574 390.08C570.707 390.08 572.467 390.592 573.854 391.616C575.262 392.619 576.211 394.059 576.702 395.936H572.766C572.446 395.061 571.934 394.379 571.23 393.888C570.526 393.397 569.641 393.152 568.574 393.152C567.081 393.152 565.886 393.685 564.99 394.752C564.115 395.797 563.678 397.269 563.678 399.168C563.678 401.067 564.115 402.549 564.99 403.616C565.886 404.683 567.081 405.216 568.574 405.216C570.686 405.216 572.083 404.288 572.766 402.432H576.702C576.19 404.224 575.23 405.653 573.822 406.72C572.414 407.765 570.665 408.288 568.574 408.288C566.889 408.288 565.395 407.915 564.094 407.168C562.793 406.4 561.769 405.333 561.022 403.968C560.297 402.581 559.934 400.981 559.934 399.168ZM582.194 388.032C581.532 388.032 580.978 387.808 580.53 387.36C580.082 386.912 579.858 386.357 579.858 385.696C579.858 385.035 580.082 384.48 580.53 384.032C580.978 383.584 581.532 383.36 582.194 383.36C582.834 383.36 583.378 383.584 583.826 384.032C584.274 384.48 584.498 385.035 584.498 385.696C584.498 386.357 584.274 386.912 583.826 387.36C583.378 387.808 582.834 388.032 582.194 388.032ZM583.986 390.368V408H580.338V390.368H583.986ZM593.031 393.344V403.104C593.031 403.765 593.18 404.245 593.479 404.544C593.799 404.821 594.332 404.96 595.079 404.96H597.319V408H594.439C592.796 408 591.538 407.616 590.663 406.848C589.788 406.08 589.351 404.832 589.351 403.104V393.344H587.271V390.368H589.351V385.984H593.031V390.368H597.319V393.344H593.031ZM602.537 388.032C601.876 388.032 601.321 387.808 600.873 387.36C600.425 386.912 600.201 386.357 600.201 385.696C600.201 385.035 600.425 384.48 600.873 384.032C601.321 383.584 601.876 383.36 602.537 383.36C603.177 383.36 603.721 383.584 604.169 384.032C604.617 384.48 604.841 385.035 604.841 385.696C604.841 386.357 604.617 386.912 604.169 387.36C603.721 387.808 603.177 388.032 602.537 388.032ZM604.329 390.368V408H600.681V390.368H604.329ZM625.279 398.752C625.279 399.413 625.236 400.011 625.151 400.544H611.679C611.785 401.952 612.308 403.083 613.247 403.936C614.185 404.789 615.337 405.216 616.703 405.216C618.665 405.216 620.052 404.395 620.863 402.752H624.799C624.265 404.373 623.295 405.707 621.887 406.752C620.5 407.776 618.772 408.288 616.703 408.288C615.017 408.288 613.503 407.915 612.159 407.168C610.836 406.4 609.791 405.333 609.023 403.968C608.276 402.581 607.903 400.981 607.903 399.168C607.903 397.355 608.265 395.765 608.991 394.4C609.737 393.013 610.772 391.947 612.095 391.2C613.439 390.453 614.975 390.08 616.703 390.08C618.367 390.08 619.849 390.443 621.151 391.168C622.452 391.893 623.465 392.917 624.191 394.24C624.916 395.541 625.279 397.045 625.279 398.752ZM621.471 397.6C621.449 396.256 620.969 395.179 620.031 394.368C619.092 393.557 617.929 393.152 616.543 393.152C615.284 393.152 614.207 393.557 613.311 394.368C612.415 395.157 611.881 396.235 611.711 397.6H621.471ZM635.269 408.288C633.882 408.288 632.634 408.043 631.525 407.552C630.437 407.04 629.573 406.357 628.933 405.504C628.293 404.629 627.951 403.659 627.909 402.592H631.685C631.749 403.339 632.101 403.968 632.741 404.48C633.402 404.971 634.223 405.216 635.205 405.216C636.229 405.216 637.018 405.024 637.573 404.64C638.149 404.235 638.437 403.723 638.437 403.104C638.437 402.443 638.117 401.952 637.477 401.632C636.858 401.312 635.866 400.96 634.501 400.576C633.178 400.213 632.101 399.861 631.269 399.52C630.437 399.179 629.711 398.656 629.093 397.952C628.495 397.248 628.197 396.32 628.197 395.168C628.197 394.229 628.474 393.376 629.029 392.608C629.583 391.819 630.373 391.2 631.397 390.752C632.442 390.304 633.637 390.08 634.981 390.08C636.986 390.08 638.597 390.592 639.813 391.616C641.05 392.619 641.711 393.995 641.797 395.744H638.149C638.085 394.955 637.765 394.325 637.189 393.856C636.613 393.387 635.834 393.152 634.853 393.152C633.893 393.152 633.157 393.333 632.645 393.696C632.133 394.059 631.877 394.539 631.877 395.136C631.877 395.605 632.047 396 632.389 396.32C632.73 396.64 633.146 396.896 633.637 397.088C634.127 397.259 634.853 397.483 635.813 397.76C637.093 398.101 638.138 398.453 638.949 398.816C639.781 399.157 640.495 399.669 641.093 400.352C641.69 401.035 641.999 401.941 642.021 403.072C642.021 404.075 641.743 404.971 641.189 405.76C640.634 406.549 639.845 407.168 638.821 407.616C637.818 408.064 636.634 408.288 635.269 408.288Z" fill="#EDEDED"/>
</g>
<rect x="-0.25" y="0.25" width="676.5" height="528.5" rx="31.75" transform="matrix(-1 0 0 1 676.5 0)" stroke="#AFAFAF" stroke-width="0.5"/>
<rect x="181.527" y="43.3516" width="314.945" height="314.945" rx="157.472" fill="#1E1E1E" fill-opacity="0.9"/>
<path d="M377.131 239.71C372.286 239.71 367.616 239.184 363.122 238.133C361.112 237.625 359.289 237.062 357.656 236.446C354.658 235.314 353.671 231.81 355.095 228.939C356.703 225.696 360.732 224.508 364.143 225.718C365.13 226.068 366.159 226.393 367.23 226.694C370.811 227.614 374.322 228.074 377.763 228.074C381.555 228.074 384.223 227.647 385.768 226.792C387.383 225.938 388.19 224.755 388.19 223.243C388.19 221.993 387.558 221.073 386.294 220.481C385.1 219.824 383.485 219.331 381.449 219.002C379.413 218.674 377.166 218.345 374.708 218.016C372.321 217.687 369.898 217.26 367.441 216.734C364.983 216.143 362.736 215.288 360.7 214.17C358.664 213.053 357.014 211.541 355.75 209.634C354.556 207.728 353.959 205.263 353.959 202.239C353.959 198.886 354.977 195.928 357.014 193.364C359.12 190.8 362.139 188.795 366.072 187.348C370.004 185.836 374.708 185.08 380.185 185.08C384.047 185.08 387.979 185.475 391.982 186.264C393.645 186.592 395.193 186.982 396.626 187.434C399.745 188.42 400.839 192.01 399.375 194.936C397.812 198.059 393.975 199.161 390.621 198.185C389.814 197.95 389.003 197.756 388.19 197.604C385.452 197.012 382.783 196.716 380.185 196.716C376.534 196.716 373.866 197.177 372.18 198.097C370.495 199.017 369.653 200.201 369.653 201.647C369.653 202.962 370.249 203.948 371.443 204.605C372.707 205.263 374.357 205.789 376.394 206.183C378.43 206.577 380.642 206.939 383.029 207.268C385.487 207.531 387.944 207.958 390.402 208.55C392.86 209.141 395.071 209.996 397.037 211.113C399.074 212.165 400.724 213.644 401.988 215.551C403.252 217.392 403.884 219.824 403.884 222.848C403.884 226.135 402.83 229.06 400.724 231.624C398.617 234.122 395.563 236.095 391.56 237.541C387.628 238.987 382.818 239.71 377.131 239.71Z" fill="#D1D5DB"/>
<path d="M437.193 239.71C430.522 239.71 425.326 238.133 421.605 234.977C417.883 231.756 416.022 226.99 416.022 220.679V182.35C416.022 177.813 419.701 174.135 424.238 174.135C428.775 174.135 432.453 177.813 432.453 182.35V220.481C432.453 222.717 433.085 224.459 434.349 225.708C435.613 226.891 437.333 227.483 439.51 227.483C443.097 227.483 447.468 228.754 448.823 232.075C449.831 234.548 448.971 237.482 446.442 238.343C445.811 238.558 445.15 238.75 444.46 238.921C442.143 239.447 439.721 239.71 437.193 239.71ZM413.197 198.886C409.929 198.886 407.28 196.237 407.28 192.969C407.28 189.702 409.929 187.053 413.197 187.053H440.65C443.918 187.053 446.567 189.702 446.567 192.969C446.567 196.237 443.918 198.886 440.65 198.886H413.197Z" fill="#D1D5DB"/>
<path d="M235.904 239.712C231.224 239.712 227.43 235.918 227.43 231.238C227.43 229.296 228.097 227.413 229.319 225.904L271.211 174.19C272.263 172.891 274.334 173.269 274.86 174.856C275.312 176.224 274.294 177.634 272.853 177.634H235.497C231.513 177.634 228.284 174.404 228.284 170.42C228.284 166.437 231.513 163.207 235.497 163.207H282.67C287.353 163.207 291.148 167.003 291.148 171.685C291.148 173.625 290.483 175.506 289.264 177.014L247.472 228.725C246.422 230.024 244.35 229.647 243.825 228.061C243.372 226.694 244.39 225.285 245.83 225.285H285.536C289.52 225.285 292.749 228.515 292.749 232.499C292.749 236.482 289.52 239.712 285.536 239.712H235.904Z" fill="#D1D5DB"/>
<path d="M319.83 221.865C316.843 221.865 314.167 221.284 311.804 220.122C309.486 218.961 307.68 217.196 306.387 214.828C305.094 212.415 304.447 209.354 304.447 205.646V190.488C304.447 187.607 306.783 185.271 309.664 185.271C312.545 185.271 314.881 187.607 314.881 190.488V204.104C314.881 207.098 315.505 209.31 316.754 210.74C318.047 212.125 319.852 212.817 322.171 212.817C323.776 212.817 325.203 212.482 326.451 211.812C327.7 211.097 328.681 210.025 329.394 208.595C330.108 207.12 330.464 205.288 330.464 203.099V190.488C330.464 187.607 332.8 185.271 335.681 185.271C338.562 185.271 340.898 187.607 340.898 190.488V216.38C340.898 219.113 338.682 221.329 335.949 221.329H333.214C331.991 221.329 330.999 220.337 330.999 219.114V214.345C330.999 213.498 332.108 213.179 332.558 213.897C332.712 214.143 332.731 214.451 332.597 214.708C331.399 217.005 329.685 218.766 327.455 219.988C325.136 221.239 322.595 221.865 319.83 221.865Z" fill="#D1D5DB"/>
<ellipse cx="5.5247" cy="5.54634" rx="5.5247" ry="5.54634" transform="matrix(-1 0 0 1 320.947 167.146)" fill="#8DA450"/>
<ellipse cx="5.5247" cy="5.54634" rx="5.5247" ry="5.54634" transform="matrix(-1 0 0 1 337.221 167.146)" fill="#8DA450"/>
<path d="M301.469 228.58C309.901 240.854 337.525 240.854 345.015 228.58" stroke="#FAFAFA" stroke-width="7.64702" stroke-linecap="round"/>
<path d="M297.233 267.465V256.754H301.594C302.736 256.754 303.736 256.984 304.593 257.443C305.46 257.892 306.133 258.519 306.613 259.325C307.092 260.131 307.332 261.059 307.332 262.11C307.332 263.16 307.092 264.088 306.613 264.894C306.133 265.7 305.46 266.333 304.593 266.792C303.736 267.24 302.736 267.465 301.594 267.465H297.233ZM298.365 266.486H301.533C302.481 266.486 303.303 266.302 303.996 265.935C304.7 265.557 305.246 265.042 305.633 264.389C306.021 263.726 306.215 262.966 306.215 262.11C306.215 261.242 306.021 260.483 305.633 259.83C305.246 259.177 304.7 258.667 303.996 258.3C303.303 257.922 302.481 257.733 301.533 257.733H298.365V266.486ZM313.057 267.541C312.221 267.541 311.486 267.368 310.854 267.021C310.221 266.664 309.726 266.18 309.369 265.568C309.012 264.945 308.834 264.236 308.834 263.441C308.834 262.645 309.002 261.941 309.339 261.329C309.686 260.717 310.155 260.238 310.747 259.891C311.348 259.534 312.022 259.355 312.766 259.355C313.521 259.355 314.189 259.529 314.771 259.876C315.362 260.212 315.826 260.692 316.163 261.314C316.5 261.926 316.668 262.635 316.668 263.441C316.668 263.492 316.663 263.548 316.653 263.609C316.653 263.66 316.653 263.716 316.653 263.777H309.66V262.966H316.071L315.643 263.288C315.643 262.706 315.515 262.191 315.26 261.742C315.015 261.283 314.679 260.926 314.25 260.671C313.822 260.416 313.327 260.289 312.766 260.289C312.215 260.289 311.721 260.416 311.282 260.671C310.843 260.926 310.502 261.283 310.257 261.742C310.012 262.201 309.89 262.727 309.89 263.318V263.487C309.89 264.099 310.022 264.639 310.287 265.108C310.563 265.568 310.94 265.93 311.42 266.195C311.909 266.45 312.465 266.577 313.088 266.577C313.577 266.577 314.031 266.491 314.449 266.317C314.878 266.144 315.245 265.879 315.551 265.522L316.163 266.225C315.806 266.654 315.357 266.98 314.817 267.205C314.286 267.429 313.7 267.541 313.057 267.541ZM318.879 267.465V256.112H319.966V267.465H318.879ZM322.988 267.465V259.432H324.075V267.465H322.988ZM323.539 257.657C323.315 257.657 323.126 257.58 322.973 257.427C322.82 257.274 322.744 257.091 322.744 256.877C322.744 256.662 322.82 256.484 322.973 256.341C323.126 256.188 323.315 256.112 323.539 256.112C323.764 256.112 323.952 256.183 324.105 256.326C324.258 256.469 324.335 256.647 324.335 256.861C324.335 257.086 324.258 257.274 324.105 257.427C323.963 257.58 323.774 257.657 323.539 257.657ZM329.163 267.465L325.598 259.432H326.73L330.005 266.883H329.469L332.789 259.432H333.861L330.28 267.465H329.163ZM338.579 267.541C337.742 267.541 337.008 267.368 336.375 267.021C335.743 266.664 335.248 266.18 334.891 265.568C334.534 264.945 334.355 264.236 334.355 263.441C334.355 262.645 334.524 261.941 334.86 261.329C335.207 260.717 335.676 260.238 336.268 259.891C336.87 259.534 337.543 259.355 338.288 259.355C339.043 259.355 339.711 259.529 340.292 259.876C340.884 260.212 341.348 260.692 341.685 261.314C342.021 261.926 342.19 262.635 342.19 263.441C342.19 263.492 342.184 263.548 342.174 263.609C342.174 263.66 342.174 263.716 342.174 263.777H335.182V262.966H341.593L341.164 263.288C341.164 262.706 341.037 262.191 340.782 261.742C340.537 261.283 340.2 260.926 339.772 260.671C339.344 260.416 338.849 260.289 338.288 260.289C337.737 260.289 337.242 260.416 336.804 260.671C336.365 260.926 336.023 261.283 335.778 261.742C335.534 262.201 335.411 262.727 335.411 263.318V263.487C335.411 264.099 335.544 264.639 335.809 265.108C336.084 265.568 336.462 265.93 336.941 266.195C337.431 266.45 337.987 266.577 338.609 266.577C339.099 266.577 339.553 266.491 339.971 266.317C340.399 266.144 340.767 265.879 341.073 265.522L341.685 266.225C341.328 266.654 340.879 266.98 340.338 267.205C339.808 267.429 339.221 267.541 338.579 267.541ZM344.401 267.465V259.432H345.441V261.62L345.334 261.237C345.559 260.625 345.936 260.161 346.466 259.845C346.997 259.519 347.655 259.355 348.44 259.355V260.411C348.399 260.411 348.359 260.411 348.318 260.411C348.277 260.401 348.236 260.396 348.195 260.396C347.349 260.396 346.686 260.656 346.206 261.176C345.727 261.686 345.487 262.416 345.487 263.364V267.465H344.401ZM350.423 267.465V259.432H351.509V267.465H350.423ZM350.973 257.657C350.749 257.657 350.56 257.58 350.407 257.427C350.254 257.274 350.178 257.091 350.178 256.877C350.178 256.662 350.254 256.484 350.407 256.341C350.56 256.188 350.749 256.112 350.973 256.112C351.198 256.112 351.387 256.183 351.54 256.326C351.693 256.469 351.769 256.647 351.769 256.861C351.769 257.086 351.693 257.274 351.54 257.427C351.397 257.58 351.208 257.657 350.973 257.657ZM358.632 259.355C359.285 259.355 359.856 259.483 360.346 259.738C360.846 259.983 361.234 260.36 361.509 260.87C361.795 261.38 361.937 262.023 361.937 262.798V267.465H360.851V262.905C360.851 262.059 360.637 261.421 360.208 260.993C359.79 260.554 359.198 260.335 358.433 260.335C357.862 260.335 357.362 260.452 356.934 260.687C356.516 260.911 356.189 261.242 355.955 261.681C355.73 262.11 355.618 262.63 355.618 263.242V267.465H354.532V259.432H355.572V261.635L355.404 261.222C355.659 260.641 356.067 260.187 356.628 259.86C357.189 259.524 357.857 259.355 358.632 259.355ZM368.299 270.51C367.565 270.51 366.861 270.403 366.188 270.188C365.514 269.974 364.969 269.668 364.55 269.27L365.101 268.444C365.479 268.781 365.943 269.046 366.494 269.24C367.055 269.444 367.646 269.546 368.269 269.546C369.289 269.546 370.038 269.306 370.518 268.827C370.997 268.357 371.237 267.623 371.237 266.623V264.619L371.39 263.242L371.283 261.865V259.432H372.323V266.486C372.323 267.873 371.982 268.888 371.298 269.53C370.625 270.183 369.625 270.51 368.299 270.51ZM368.1 267.159C367.335 267.159 366.647 266.996 366.035 266.669C365.423 266.333 364.938 265.868 364.581 265.277C364.234 264.685 364.061 264.007 364.061 263.242C364.061 262.477 364.234 261.803 364.581 261.222C364.938 260.63 365.423 260.171 366.035 259.845C366.647 259.519 367.335 259.355 368.1 259.355C368.814 259.355 369.457 259.503 370.028 259.799C370.599 260.095 371.053 260.534 371.39 261.115C371.727 261.696 371.895 262.405 371.895 263.242C371.895 264.078 371.727 264.787 371.39 265.369C371.053 265.95 370.599 266.394 370.028 266.7C369.457 267.006 368.814 267.159 368.1 267.159ZM368.207 266.195C368.799 266.195 369.324 266.072 369.783 265.828C370.242 265.573 370.605 265.226 370.87 264.787C371.135 264.338 371.268 263.823 371.268 263.242C371.268 262.66 371.135 262.15 370.87 261.712C370.605 261.273 370.242 260.931 369.783 260.687C369.324 260.431 368.799 260.304 368.207 260.304C367.626 260.304 367.101 260.431 366.631 260.687C366.172 260.931 365.81 261.273 365.545 261.712C365.29 262.15 365.163 262.66 365.163 263.242C365.163 263.823 365.29 264.338 365.545 264.787C365.81 265.226 366.172 265.573 366.631 265.828C367.101 266.072 367.626 266.195 368.207 266.195ZM379.535 267.465V258.422C379.535 257.708 379.744 257.132 380.162 256.693C380.58 256.254 381.182 256.035 381.967 256.035C382.273 256.035 382.569 256.076 382.855 256.157C383.14 256.239 383.38 256.367 383.574 256.54L383.207 257.351C383.054 257.218 382.875 257.121 382.671 257.06C382.467 256.989 382.248 256.953 382.013 256.953C381.554 256.953 381.202 257.081 380.958 257.336C380.713 257.591 380.59 257.968 380.59 258.468V259.692L380.621 260.197V267.465H379.535ZM378.096 260.335V259.432H383.069V260.335H378.096ZM384.536 267.465V259.432H385.576V261.62L385.469 261.237C385.694 260.625 386.071 260.161 386.602 259.845C387.132 259.519 387.79 259.355 388.575 259.355V260.411C388.535 260.411 388.494 260.411 388.453 260.411C388.412 260.401 388.371 260.396 388.331 260.396C387.484 260.396 386.821 260.656 386.341 261.176C385.862 261.686 385.622 262.416 385.622 263.364V267.465H384.536ZM393.895 267.541C393.059 267.541 392.324 267.368 391.692 267.021C391.059 266.664 390.565 266.18 390.208 265.568C389.851 264.945 389.672 264.236 389.672 263.441C389.672 262.645 389.84 261.941 390.177 261.329C390.524 260.717 390.993 260.238 391.585 259.891C392.187 259.534 392.86 259.355 393.604 259.355C394.359 259.355 395.027 259.529 395.609 259.876C396.2 260.212 396.665 260.692 397.001 261.314C397.338 261.926 397.506 262.635 397.506 263.441C397.506 263.492 397.501 263.548 397.491 263.609C397.491 263.66 397.491 263.716 397.491 263.777H390.498V262.966H396.909L396.481 263.288C396.481 262.706 396.353 262.191 396.098 261.742C395.854 261.283 395.517 260.926 395.089 260.671C394.66 260.416 394.165 260.289 393.604 260.289C393.054 260.289 392.559 260.416 392.12 260.671C391.682 260.926 391.34 261.283 391.095 261.742C390.85 262.201 390.728 262.727 390.728 263.318V263.487C390.728 264.099 390.86 264.639 391.126 265.108C391.401 265.568 391.778 265.93 392.258 266.195C392.748 266.45 393.303 266.577 393.926 266.577C394.415 266.577 394.869 266.491 395.288 266.317C395.716 266.144 396.083 265.879 396.389 265.522L397.001 266.225C396.644 266.654 396.195 266.98 395.655 267.205C395.124 267.429 394.538 267.541 393.895 267.541ZM401.875 267.541C401.212 267.541 400.584 267.45 399.993 267.266C399.401 267.072 398.937 266.832 398.6 266.547L399.09 265.69C399.416 265.935 399.835 266.149 400.345 266.333C400.855 266.506 401.39 266.593 401.951 266.593C402.716 266.593 403.267 266.475 403.604 266.241C403.94 265.996 404.109 265.675 404.109 265.277C404.109 264.981 404.012 264.751 403.818 264.588C403.634 264.415 403.39 264.287 403.084 264.206C402.778 264.114 402.436 264.037 402.058 263.976C401.681 263.915 401.304 263.844 400.926 263.762C400.559 263.68 400.222 263.563 399.916 263.41C399.61 263.247 399.36 263.028 399.167 262.752C398.983 262.477 398.891 262.11 398.891 261.65C398.891 261.212 399.014 260.819 399.258 260.472C399.503 260.125 399.86 259.855 400.329 259.661C400.809 259.457 401.39 259.355 402.074 259.355C402.594 259.355 403.114 259.427 403.634 259.57C404.155 259.702 404.583 259.881 404.92 260.105L404.445 260.977C404.088 260.732 403.706 260.559 403.298 260.457C402.89 260.345 402.482 260.289 402.074 260.289C401.349 260.289 400.814 260.416 400.467 260.671C400.13 260.916 399.962 261.232 399.962 261.62C399.962 261.926 400.054 262.166 400.238 262.339C400.431 262.512 400.681 262.65 400.987 262.752C401.304 262.844 401.645 262.92 402.013 262.982C402.39 263.043 402.762 263.119 403.129 263.211C403.507 263.293 403.849 263.41 404.155 263.563C404.471 263.706 404.721 263.915 404.904 264.19C405.098 264.456 405.195 264.808 405.195 265.246C405.195 265.715 405.063 266.123 404.797 266.47C404.542 266.807 404.165 267.072 403.665 267.266C403.175 267.45 402.579 267.541 401.875 267.541ZM411.289 259.355C411.942 259.355 412.513 259.483 413.003 259.738C413.503 259.983 413.89 260.36 414.166 260.87C414.451 261.38 414.594 262.023 414.594 262.798V267.465H413.508V262.905C413.508 262.059 413.294 261.421 412.865 260.993C412.447 260.554 411.855 260.335 411.09 260.335C410.519 260.335 410.019 260.452 409.591 260.687C409.173 260.911 408.846 261.242 408.612 261.681C408.387 262.11 408.275 262.63 408.275 263.242V267.465H407.189V256.112H408.275V261.635L408.061 261.222C408.316 260.641 408.724 260.187 409.285 259.86C409.846 259.524 410.514 259.355 411.289 259.355ZM421.629 259.355C422.282 259.355 422.853 259.483 423.343 259.738C423.843 259.983 424.23 260.36 424.506 260.87C424.792 261.38 424.934 262.023 424.934 262.798V267.465H423.848V262.905C423.848 262.059 423.634 261.421 423.205 260.993C422.787 260.554 422.195 260.335 421.43 260.335C420.859 260.335 420.359 260.452 419.931 260.687C419.513 260.911 419.186 261.242 418.952 261.681C418.727 262.11 418.615 262.63 418.615 263.242V267.465H417.529V259.432H418.569V261.635L418.401 261.222C418.656 260.641 419.064 260.187 419.625 259.86C420.186 259.524 420.854 259.355 421.629 259.355ZM431.281 267.541C430.444 267.541 429.71 267.368 429.078 267.021C428.445 266.664 427.95 266.18 427.593 265.568C427.236 264.945 427.058 264.236 427.058 263.441C427.058 262.645 427.226 261.941 427.563 261.329C427.91 260.717 428.379 260.238 428.97 259.891C429.572 259.534 430.246 259.355 430.99 259.355C431.745 259.355 432.413 259.529 432.995 259.876C433.586 260.212 434.05 260.692 434.387 261.314C434.724 261.926 434.892 262.635 434.892 263.441C434.892 263.492 434.887 263.548 434.877 263.609C434.877 263.66 434.877 263.716 434.877 263.777H427.884V262.966H434.295L433.867 263.288C433.867 262.706 433.739 262.191 433.484 261.742C433.239 261.283 432.903 260.926 432.474 260.671C432.046 260.416 431.551 260.289 430.99 260.289C430.439 260.289 429.945 260.416 429.506 260.671C429.067 260.926 428.726 261.283 428.481 261.742C428.236 262.201 428.114 262.727 428.114 263.318V263.487C428.114 264.099 428.246 264.639 428.511 265.108C428.787 265.568 429.164 265.93 429.644 266.195C430.133 266.45 430.689 266.577 431.311 266.577C431.801 266.577 432.255 266.491 432.673 266.317C433.102 266.144 433.469 265.879 433.775 265.522L434.387 266.225C434.03 266.654 433.581 266.98 433.04 267.205C432.51 267.429 431.924 267.541 431.281 267.541ZM439.261 267.541C438.598 267.541 437.97 267.45 437.379 267.266C436.787 267.072 436.323 266.832 435.986 266.547L436.476 265.69C436.802 265.935 437.22 266.149 437.73 266.333C438.241 266.506 438.776 266.593 439.337 266.593C440.102 266.593 440.653 266.475 440.99 266.241C441.326 265.996 441.495 265.675 441.495 265.277C441.495 264.981 441.398 264.751 441.204 264.588C441.02 264.415 440.775 264.287 440.469 264.206C440.163 264.114 439.822 264.037 439.444 263.976C439.067 263.915 438.689 263.844 438.312 263.762C437.945 263.68 437.608 263.563 437.302 263.41C436.996 263.247 436.746 263.028 436.552 262.752C436.369 262.477 436.277 262.11 436.277 261.65C436.277 261.212 436.399 260.819 436.644 260.472C436.889 260.125 437.246 259.855 437.715 259.661C438.195 259.457 438.776 259.355 439.459 259.355C439.98 259.355 440.5 259.427 441.02 259.57C441.54 259.702 441.969 259.881 442.305 260.105L441.831 260.977C441.474 260.732 441.092 260.559 440.684 260.457C440.276 260.345 439.868 260.289 439.459 260.289C438.735 260.289 438.2 260.416 437.853 260.671C437.516 260.916 437.348 261.232 437.348 261.62C437.348 261.926 437.44 262.166 437.623 262.339C437.817 262.512 438.067 262.65 438.373 262.752C438.689 262.844 439.031 262.92 439.398 262.982C439.776 263.043 440.148 263.119 440.515 263.211C440.893 263.293 441.234 263.41 441.54 263.563C441.857 263.706 442.107 263.915 442.29 264.19C442.484 264.456 442.581 264.808 442.581 265.246C442.581 265.715 442.448 266.123 442.183 266.47C441.928 266.807 441.551 267.072 441.051 267.266C440.561 267.45 439.964 267.541 439.261 267.541ZM446.732 267.541C446.069 267.541 445.441 267.45 444.85 267.266C444.258 267.072 443.794 266.832 443.457 266.547L443.947 265.69C444.273 265.935 444.692 266.149 445.202 266.333C445.712 266.506 446.247 266.593 446.808 266.593C447.573 266.593 448.124 266.475 448.461 266.241C448.797 265.996 448.966 265.675 448.966 265.277C448.966 264.981 448.869 264.751 448.675 264.588C448.491 264.415 448.247 264.287 447.941 264.206C447.635 264.114 447.293 264.037 446.915 263.976C446.538 263.915 446.161 263.844 445.783 263.762C445.416 263.68 445.079 263.563 444.773 263.41C444.467 263.247 444.217 263.028 444.023 262.752C443.84 262.477 443.748 262.11 443.748 261.65C443.748 261.212 443.87 260.819 444.115 260.472C444.36 260.125 444.717 259.855 445.186 259.661C445.666 259.457 446.247 259.355 446.931 259.355C447.451 259.355 447.971 259.427 448.491 259.57C449.012 259.702 449.44 259.881 449.777 260.105L449.302 260.977C448.945 260.732 448.563 260.559 448.155 260.457C447.747 260.345 447.339 260.289 446.931 260.289C446.206 260.289 445.671 260.416 445.324 260.671C444.987 260.916 444.819 261.232 444.819 261.62C444.819 261.926 444.911 262.166 445.095 262.339C445.288 262.512 445.538 262.65 445.844 262.752C446.161 262.844 446.502 262.92 446.869 262.982C447.247 263.043 447.619 263.119 447.986 263.211C448.364 263.293 448.706 263.41 449.012 263.563C449.328 263.706 449.578 263.915 449.761 264.19C449.955 264.456 450.052 264.808 450.052 265.246C450.052 265.715 449.919 266.123 449.654 266.47C449.399 266.807 449.022 267.072 448.522 267.266C448.032 267.45 447.436 267.541 446.732 267.541Z" fill="#D1D5DB"/>
</svg>
