<svg width="441" height="308" viewBox="0 0 441 308" fill="none" xmlns="http://www.w3.org/2000/svg">
<rect x="85.9956" y="19.4678" width="269.065" height="269.065" rx="134.533" fill="#1E1E1E" fill-opacity="0.9"/>
<path d="M253.105 187.222C248.965 187.222 244.976 186.773 241.137 185.874C239.419 185.44 237.862 184.96 236.467 184.433C233.905 183.466 233.063 180.472 234.279 178.02V178.02C235.653 175.249 239.095 174.234 242.009 175.268C242.852 175.567 243.731 175.845 244.646 176.102C247.706 176.888 250.705 177.281 253.645 177.281C256.884 177.281 259.163 176.916 260.483 176.186C261.863 175.456 262.553 174.445 262.553 173.153C262.553 172.086 262.013 171.3 260.933 170.794C259.913 170.233 258.534 169.811 256.794 169.531C255.054 169.25 253.135 168.969 251.035 168.688C248.995 168.407 246.926 168.042 244.826 167.593C242.727 167.088 240.807 166.357 239.067 165.403C237.328 164.448 235.918 163.156 234.838 161.527C233.818 159.899 233.308 157.793 233.308 155.209C233.308 152.345 234.178 149.817 235.918 147.627C237.718 145.437 240.297 143.724 243.656 142.488C247.016 141.196 251.035 140.55 255.714 140.55C259.013 140.55 262.373 140.887 265.792 141.561C267.213 141.841 268.535 142.175 269.76 142.562C272.425 143.404 273.36 146.47 272.109 148.97V148.97C270.773 151.639 267.495 152.58 264.63 151.746C263.94 151.545 263.248 151.38 262.553 151.25C260.213 150.744 257.934 150.491 255.714 150.491C252.595 150.491 250.315 150.884 248.875 151.671C247.436 152.457 246.716 153.468 246.716 154.704C246.716 155.827 247.226 156.669 248.246 157.231C249.325 157.793 250.735 158.242 252.475 158.579C254.214 158.916 256.104 159.225 258.144 159.506C260.243 159.73 262.343 160.095 264.442 160.601C266.542 161.106 268.432 161.836 270.111 162.791C271.851 163.69 273.261 164.953 274.341 166.582C275.42 168.155 275.96 170.233 275.96 172.816C275.96 175.624 275.06 178.124 273.261 180.314C271.461 182.448 268.852 184.133 265.432 185.369C262.073 186.604 257.964 187.222 253.105 187.222Z" fill="#D1D5DB"/>
<path d="M304.417 187.222C298.718 187.222 294.279 185.874 291.1 183.178C287.92 180.426 286.331 176.355 286.331 170.963V138.218C286.331 134.342 289.473 131.199 293.349 131.199V131.199C297.226 131.199 300.368 134.342 300.368 138.218V170.794C300.368 172.704 300.908 174.192 301.988 175.259C303.068 176.27 304.537 176.776 306.397 176.776V176.776C309.462 176.776 313.196 177.861 314.353 180.699V180.699C315.215 182.812 314.479 185.318 312.319 186.054C311.78 186.237 311.216 186.402 310.626 186.548C308.646 186.997 306.577 187.222 304.417 187.222ZM283.917 152.345C281.125 152.345 278.862 150.082 278.862 147.29V147.29C278.862 144.498 281.125 142.235 283.917 142.235H307.371C310.163 142.235 312.426 144.498 312.426 147.29V147.29C312.426 150.082 310.163 152.345 307.371 152.345H283.917Z" fill="#D1D5DB"/>
<path d="M132.451 187.223C128.452 187.223 125.211 183.982 125.211 179.984V179.984C125.211 178.325 125.781 176.716 126.825 175.427L162.614 131.246C163.513 130.137 165.283 130.46 165.731 131.815V131.815C166.118 132.984 165.248 134.188 164.017 134.188H132.103C128.699 134.188 125.94 131.429 125.94 128.026V128.026C125.94 124.622 128.699 121.863 132.103 121.863H172.404C176.405 121.863 179.647 125.106 179.647 129.106V129.106C179.647 130.763 179.079 132.37 178.038 133.659L142.334 177.837C141.436 178.947 139.666 178.625 139.218 177.27V177.27C138.831 176.102 139.7 174.898 140.93 174.898H174.853C178.256 174.898 181.015 177.657 181.015 181.061V181.061C181.015 184.464 178.256 187.223 174.853 187.223H132.451Z" fill="#D1D5DB"/>
<path d="M204.151 171.977C201.599 171.977 199.313 171.48 197.295 170.488C195.314 169.495 193.771 167.988 192.666 165.965C191.562 163.903 191.009 161.289 191.009 158.12V145.171C191.009 142.709 193.005 140.714 195.466 140.714V140.714C197.928 140.714 199.923 142.709 199.923 145.171V156.803C199.923 159.361 200.456 161.25 201.523 162.472C202.628 163.655 204.17 164.247 206.151 164.247C207.522 164.247 208.741 163.961 209.808 163.388C210.875 162.777 211.713 161.861 212.322 160.64C212.932 159.38 213.236 157.815 213.236 155.944V145.171C213.236 142.709 215.232 140.714 217.693 140.714V140.714C220.155 140.714 222.15 142.709 222.15 145.171V167.29C222.15 169.626 220.257 171.519 217.922 171.519H215.585C214.54 171.519 213.693 170.672 213.693 169.627V165.552C213.693 164.829 214.641 164.556 215.025 165.17V165.17C215.157 165.379 215.173 165.643 215.058 165.862C214.035 167.825 212.571 169.329 210.665 170.373C208.684 171.442 206.513 171.977 204.151 171.977Z" fill="#D1D5DB"/>
<ellipse cx="4.71989" cy="4.73838" rx="4.71989" ry="4.73838" transform="matrix(-1 0 0 1 205.105 125.229)" fill="#8DA450"/>
<ellipse cx="4.71989" cy="4.73838" rx="4.71989" ry="4.73838" transform="matrix(-1 0 0 1 219.008 125.229)" fill="#8DA450"/>
<path d="M188.464 177.713C195.669 188.198 219.268 188.198 225.667 177.713" stroke="#FAFAFA" stroke-width="6.53304" stroke-linecap="round"/>
<path d="M184.708 211.118V201.968H188.434C189.41 201.968 190.264 202.164 190.996 202.556C191.737 202.939 192.312 203.475 192.722 204.164C193.131 204.852 193.336 205.645 193.336 206.543C193.336 207.441 193.131 208.234 192.722 208.922C192.312 209.611 191.737 210.151 190.996 210.543C190.264 210.926 189.41 211.118 188.434 211.118H184.708ZM185.676 210.282H188.382C189.192 210.282 189.894 210.125 190.486 209.811C191.088 209.489 191.554 209.048 191.885 208.491C192.216 207.924 192.382 207.275 192.382 206.543C192.382 205.802 192.216 205.153 191.885 204.595C191.554 204.037 191.088 203.602 190.486 203.288C189.894 202.966 189.192 202.804 188.382 202.804H185.676V210.282ZM198.227 211.184C197.513 211.184 196.885 211.035 196.345 210.739C195.804 210.434 195.382 210.02 195.077 209.497C194.772 208.966 194.619 208.36 194.619 207.68C194.619 207 194.763 206.399 195.051 205.876C195.347 205.353 195.748 204.944 196.253 204.648C196.767 204.343 197.343 204.19 197.979 204.19C198.624 204.19 199.194 204.338 199.691 204.634C200.197 204.922 200.593 205.332 200.881 205.863C201.168 206.386 201.312 206.992 201.312 207.68C201.312 207.724 201.308 207.772 201.299 207.824C201.299 207.868 201.299 207.916 201.299 207.968H195.325V207.275H200.802L200.436 207.55C200.436 207.053 200.327 206.613 200.109 206.229C199.9 205.837 199.613 205.532 199.247 205.314C198.881 205.096 198.458 204.987 197.979 204.987C197.508 204.987 197.085 205.096 196.711 205.314C196.336 205.532 196.044 205.837 195.835 206.229C195.626 206.621 195.521 207.07 195.521 207.576V207.719C195.521 208.242 195.634 208.704 195.861 209.105C196.096 209.497 196.419 209.807 196.828 210.033C197.247 210.251 197.722 210.36 198.253 210.36C198.672 210.36 199.059 210.286 199.417 210.138C199.783 209.99 200.096 209.763 200.358 209.458L200.881 210.059C200.576 210.425 200.192 210.704 199.73 210.896C199.277 211.088 198.776 211.184 198.227 211.184ZM203.201 211.118V201.419H204.129V211.118H203.201ZM206.712 211.118V204.255H207.64V211.118H206.712ZM207.182 202.739C206.991 202.739 206.829 202.674 206.699 202.543C206.568 202.412 206.503 202.255 206.503 202.072C206.503 201.889 206.568 201.737 206.699 201.615C206.829 201.484 206.991 201.419 207.182 201.419C207.374 201.419 207.535 201.48 207.666 201.602C207.797 201.724 207.862 201.876 207.862 202.059C207.862 202.251 207.797 202.412 207.666 202.543C207.544 202.674 207.383 202.739 207.182 202.739ZM211.987 211.118L208.941 204.255H209.909L212.706 210.621H212.248L215.085 204.255H216L212.941 211.118H211.987ZM220.031 211.184C219.316 211.184 218.689 211.035 218.148 210.739C217.608 210.434 217.185 210.02 216.88 209.497C216.575 208.966 216.423 208.36 216.423 207.68C216.423 207 216.567 206.399 216.854 205.876C217.151 205.353 217.551 204.944 218.057 204.648C218.571 204.343 219.146 204.19 219.782 204.19C220.427 204.19 220.998 204.338 221.495 204.634C222 204.922 222.397 205.332 222.684 205.863C222.972 206.386 223.116 206.992 223.116 207.68C223.116 207.724 223.111 207.772 223.103 207.824C223.103 207.868 223.103 207.916 223.103 207.968H217.129V207.275H222.606L222.24 207.55C222.24 207.053 222.131 206.613 221.913 206.229C221.704 205.837 221.416 205.532 221.05 205.314C220.684 205.096 220.262 204.987 219.782 204.987C219.312 204.987 218.889 205.096 218.514 205.314C218.14 205.532 217.848 205.837 217.639 206.229C217.429 206.621 217.325 207.07 217.325 207.576V207.719C217.325 208.242 217.438 208.704 217.665 209.105C217.9 209.497 218.223 209.807 218.632 210.033C219.05 210.251 219.525 210.36 220.057 210.36C220.475 210.36 220.863 210.286 221.22 210.138C221.586 209.99 221.9 209.763 222.162 209.458L222.684 210.059C222.379 210.425 221.996 210.704 221.534 210.896C221.081 211.088 220.58 211.184 220.031 211.184ZM225.005 211.118V204.255H225.894V206.125L225.802 205.798C225.994 205.275 226.316 204.878 226.77 204.608C227.223 204.329 227.785 204.19 228.456 204.19V205.092C228.421 205.092 228.386 205.092 228.351 205.092C228.316 205.083 228.282 205.079 228.247 205.079C227.523 205.079 226.957 205.301 226.547 205.746C226.138 206.181 225.933 206.804 225.933 207.615V211.118H225.005ZM230.149 211.118V204.255H231.078V211.118H230.149ZM230.62 202.739C230.428 202.739 230.267 202.674 230.136 202.543C230.006 202.412 229.94 202.255 229.94 202.072C229.94 201.889 230.006 201.737 230.136 201.615C230.267 201.484 230.428 201.419 230.62 201.419C230.812 201.419 230.973 201.48 231.104 201.602C231.234 201.724 231.3 201.876 231.3 202.059C231.3 202.251 231.234 202.412 231.104 202.543C230.982 202.674 230.82 202.739 230.62 202.739ZM237.163 204.19C237.721 204.19 238.209 204.299 238.627 204.517C239.054 204.726 239.386 205.048 239.621 205.484C239.865 205.92 239.987 206.469 239.987 207.131V211.118H239.059V207.223C239.059 206.499 238.876 205.955 238.51 205.589C238.152 205.214 237.647 205.027 236.993 205.027C236.505 205.027 236.078 205.127 235.712 205.327C235.355 205.519 235.076 205.802 234.876 206.177C234.684 206.543 234.588 206.987 234.588 207.51V211.118H233.66V204.255H234.549V206.138L234.405 205.785C234.623 205.288 234.972 204.9 235.451 204.621C235.93 204.334 236.501 204.19 237.163 204.19ZM245.422 213.719C244.794 213.719 244.193 213.628 243.618 213.445C243.043 213.262 242.577 213.001 242.219 212.661L242.69 211.955C243.012 212.242 243.409 212.469 243.879 212.635C244.359 212.809 244.864 212.896 245.396 212.896C246.267 212.896 246.908 212.691 247.317 212.282C247.727 211.881 247.932 211.253 247.932 210.399V208.687L248.062 207.51L247.971 206.334V204.255H248.86V210.282C248.86 211.467 248.568 212.334 247.984 212.883C247.409 213.441 246.555 213.719 245.422 213.719ZM245.252 210.857C244.598 210.857 244.01 210.717 243.487 210.438C242.964 210.151 242.55 209.754 242.245 209.249C241.949 208.743 241.801 208.164 241.801 207.51C241.801 206.857 241.949 206.282 242.245 205.785C242.55 205.279 242.964 204.887 243.487 204.608C244.01 204.329 244.598 204.19 245.252 204.19C245.862 204.19 246.411 204.316 246.899 204.569C247.387 204.822 247.775 205.197 248.062 205.693C248.35 206.19 248.494 206.796 248.494 207.51C248.494 208.225 248.35 208.831 248.062 209.327C247.775 209.824 247.387 210.203 246.899 210.465C246.411 210.726 245.862 210.857 245.252 210.857ZM245.344 210.033C245.849 210.033 246.298 209.929 246.69 209.719C247.082 209.502 247.391 209.205 247.618 208.831C247.845 208.447 247.958 208.007 247.958 207.51C247.958 207.014 247.845 206.578 247.618 206.203C247.391 205.828 247.082 205.536 246.69 205.327C246.298 205.109 245.849 205 245.344 205C244.847 205 244.398 205.109 243.997 205.327C243.605 205.536 243.296 205.828 243.069 206.203C242.851 206.578 242.742 207.014 242.742 207.51C242.742 208.007 242.851 208.447 243.069 208.831C243.296 209.205 243.605 209.502 243.997 209.719C244.398 209.929 244.847 210.033 245.344 210.033ZM255.021 211.118V203.393C255.021 202.783 255.199 202.29 255.557 201.915C255.914 201.541 256.428 201.353 257.099 201.353C257.36 201.353 257.613 201.388 257.857 201.458C258.101 201.528 258.306 201.637 258.472 201.785L258.158 202.478C258.027 202.364 257.875 202.281 257.7 202.229C257.526 202.168 257.339 202.138 257.138 202.138C256.746 202.138 256.445 202.247 256.236 202.464C256.027 202.682 255.923 203.005 255.923 203.432V204.478L255.949 204.909V211.118H255.021ZM253.792 205.027V204.255H258.04V205.027H253.792ZM259.293 211.118V204.255H260.182V206.125L260.091 205.798C260.283 205.275 260.605 204.878 261.058 204.608C261.511 204.329 262.073 204.19 262.744 204.19V205.092C262.71 205.092 262.675 205.092 262.64 205.092C262.605 205.083 262.57 205.079 262.535 205.079C261.812 205.079 261.245 205.301 260.836 205.746C260.426 206.181 260.222 206.804 260.222 207.615V211.118H259.293ZM267.289 211.184C266.575 211.184 265.947 211.035 265.407 210.739C264.866 210.434 264.444 210.02 264.139 209.497C263.834 208.966 263.681 208.36 263.681 207.68C263.681 207 263.825 206.399 264.113 205.876C264.409 205.353 264.81 204.944 265.315 204.648C265.829 204.343 266.405 204.19 267.041 204.19C267.686 204.19 268.256 204.338 268.753 204.634C269.259 204.922 269.655 205.332 269.943 205.863C270.23 206.386 270.374 206.992 270.374 207.68C270.374 207.724 270.37 207.772 270.361 207.824C270.361 207.868 270.361 207.916 270.361 207.968H264.387V207.275H269.864L269.498 207.55C269.498 207.053 269.389 206.613 269.172 206.229C268.962 205.837 268.675 205.532 268.309 205.314C267.943 205.096 267.52 204.987 267.041 204.987C266.57 204.987 266.148 205.096 265.773 205.314C265.398 205.532 265.106 205.837 264.897 206.229C264.688 206.621 264.583 207.07 264.583 207.576V207.719C264.583 208.242 264.697 208.704 264.923 209.105C265.158 209.497 265.481 209.807 265.89 210.033C266.309 210.251 266.784 210.36 267.315 210.36C267.734 210.36 268.121 210.286 268.479 210.138C268.845 209.99 269.158 209.763 269.42 209.458L269.943 210.059C269.638 210.425 269.254 210.704 268.792 210.896C268.339 211.088 267.838 211.184 267.289 211.184ZM274.106 211.184C273.54 211.184 273.004 211.105 272.499 210.948C271.993 210.783 271.597 210.578 271.309 210.334L271.727 209.602C272.006 209.811 272.363 209.994 272.799 210.151C273.235 210.299 273.692 210.373 274.172 210.373C274.825 210.373 275.296 210.273 275.584 210.072C275.871 209.863 276.015 209.589 276.015 209.249C276.015 208.996 275.932 208.8 275.767 208.661C275.61 208.512 275.401 208.404 275.139 208.334C274.878 208.255 274.586 208.19 274.263 208.138C273.941 208.085 273.618 208.024 273.296 207.955C272.982 207.885 272.695 207.785 272.433 207.654C272.172 207.515 271.958 207.327 271.793 207.092C271.636 206.857 271.557 206.543 271.557 206.151C271.557 205.776 271.662 205.441 271.871 205.144C272.08 204.848 272.385 204.617 272.786 204.451C273.196 204.277 273.692 204.19 274.276 204.19C274.721 204.19 275.165 204.251 275.61 204.373C276.054 204.486 276.42 204.639 276.708 204.831L276.303 205.576C275.998 205.366 275.671 205.218 275.322 205.131C274.974 205.035 274.625 204.987 274.276 204.987C273.658 204.987 273.2 205.096 272.904 205.314C272.616 205.523 272.472 205.794 272.472 206.125C272.472 206.386 272.551 206.591 272.708 206.739C272.873 206.887 273.087 207.005 273.348 207.092C273.618 207.17 273.91 207.236 274.224 207.288C274.547 207.34 274.865 207.406 275.178 207.484C275.501 207.554 275.793 207.654 276.054 207.785C276.324 207.907 276.538 208.085 276.695 208.321C276.86 208.547 276.943 208.848 276.943 209.223C276.943 209.624 276.83 209.972 276.603 210.268C276.385 210.556 276.063 210.783 275.636 210.948C275.218 211.105 274.708 211.184 274.106 211.184ZM282.149 204.19C282.707 204.19 283.195 204.299 283.613 204.517C284.04 204.726 284.372 205.048 284.607 205.484C284.851 205.92 284.973 206.469 284.973 207.131V211.118H284.045V207.223C284.045 206.499 283.862 205.955 283.496 205.589C283.139 205.214 282.633 205.027 281.979 205.027C281.491 205.027 281.064 205.127 280.698 205.327C280.341 205.519 280.062 205.802 279.862 206.177C279.67 206.543 279.574 206.987 279.574 207.51V211.118H278.646V201.419H279.574V206.138L279.391 205.785C279.609 205.288 279.958 204.9 280.437 204.621C280.916 204.334 281.487 204.19 282.149 204.19ZM290.983 204.19C291.541 204.19 292.029 204.299 292.447 204.517C292.874 204.726 293.205 205.048 293.441 205.484C293.685 205.92 293.807 206.469 293.807 207.131V211.118H292.879V207.223C292.879 206.499 292.696 205.955 292.33 205.589C291.972 205.214 291.467 205.027 290.813 205.027C290.325 205.027 289.898 205.127 289.532 205.327C289.175 205.519 288.896 205.802 288.696 206.177C288.504 206.543 288.408 206.987 288.408 207.51V211.118H287.48V204.255H288.369V206.138L288.225 205.785C288.443 205.288 288.791 204.9 289.271 204.621C289.75 204.334 290.321 204.19 290.983 204.19ZM299.229 211.184C298.514 211.184 297.887 211.035 297.346 210.739C296.806 210.434 296.383 210.02 296.078 209.497C295.773 208.966 295.621 208.36 295.621 207.68C295.621 207 295.765 206.399 296.052 205.876C296.349 205.353 296.749 204.944 297.255 204.648C297.769 204.343 298.344 204.19 298.98 204.19C299.625 204.19 300.196 204.338 300.693 204.634C301.198 204.922 301.595 205.332 301.882 205.863C302.17 206.386 302.314 206.992 302.314 207.68C302.314 207.724 302.309 207.772 302.301 207.824C302.301 207.868 302.301 207.916 302.301 207.968H296.327V207.275H301.804L301.438 207.55C301.438 207.053 301.329 206.613 301.111 206.229C300.902 205.837 300.614 205.532 300.248 205.314C299.882 205.096 299.46 204.987 298.98 204.987C298.51 204.987 298.087 205.096 297.712 205.314C297.338 205.532 297.046 205.837 296.837 206.229C296.627 206.621 296.523 207.07 296.523 207.576V207.719C296.523 208.242 296.636 208.704 296.863 209.105C297.098 209.497 297.42 209.807 297.83 210.033C298.248 210.251 298.723 210.36 299.255 210.36C299.673 210.36 300.061 210.286 300.418 210.138C300.784 209.99 301.098 209.763 301.36 209.458L301.882 210.059C301.577 210.425 301.194 210.704 300.732 210.896C300.279 211.088 299.778 211.184 299.229 211.184ZM306.046 211.184C305.48 211.184 304.944 211.105 304.438 210.948C303.933 210.783 303.536 210.578 303.249 210.334L303.667 209.602C303.946 209.811 304.303 209.994 304.739 210.151C305.175 210.299 305.632 210.373 306.111 210.373C306.765 210.373 307.236 210.273 307.523 210.072C307.811 209.863 307.955 209.589 307.955 209.249C307.955 208.996 307.872 208.8 307.706 208.661C307.549 208.512 307.34 208.404 307.079 208.334C306.817 208.255 306.525 208.19 306.203 208.138C305.88 208.085 305.558 208.024 305.236 207.955C304.922 207.885 304.634 207.785 304.373 207.654C304.111 207.515 303.898 207.327 303.732 207.092C303.575 206.857 303.497 206.543 303.497 206.151C303.497 205.776 303.602 205.441 303.811 205.144C304.02 204.848 304.325 204.617 304.726 204.451C305.135 204.277 305.632 204.19 306.216 204.19C306.66 204.19 307.105 204.251 307.549 204.373C307.994 204.486 308.36 204.639 308.647 204.831L308.242 205.576C307.937 205.366 307.61 205.218 307.262 205.131C306.913 205.035 306.565 204.987 306.216 204.987C305.597 204.987 305.14 205.096 304.843 205.314C304.556 205.523 304.412 205.794 304.412 206.125C304.412 206.386 304.49 206.591 304.647 206.739C304.813 206.887 305.026 207.005 305.288 207.092C305.558 207.17 305.85 207.236 306.164 207.288C306.486 207.34 306.804 207.406 307.118 207.484C307.44 207.554 307.732 207.654 307.994 207.785C308.264 207.907 308.477 208.085 308.634 208.321C308.8 208.547 308.883 208.848 308.883 209.223C308.883 209.624 308.769 209.972 308.543 210.268C308.325 210.556 308.002 210.783 307.575 210.948C307.157 211.105 306.647 211.184 306.046 211.184ZM312.429 211.184C311.862 211.184 311.326 211.105 310.821 210.948C310.316 210.783 309.919 210.578 309.631 210.334L310.05 209.602C310.329 209.811 310.686 209.994 311.122 210.151C311.557 210.299 312.015 210.373 312.494 210.373C313.148 210.373 313.618 210.273 313.906 210.072C314.194 209.863 314.337 209.589 314.337 209.249C314.337 208.996 314.255 208.8 314.089 208.661C313.932 208.512 313.723 208.404 313.462 208.334C313.2 208.255 312.908 208.19 312.586 208.138C312.263 208.085 311.941 208.024 311.618 207.955C311.305 207.885 311.017 207.785 310.756 207.654C310.494 207.515 310.281 207.327 310.115 207.092C309.958 206.857 309.88 206.543 309.88 206.151C309.88 205.776 309.984 205.441 310.194 205.144C310.403 204.848 310.708 204.617 311.109 204.451C311.518 204.277 312.015 204.19 312.599 204.19C313.043 204.19 313.488 204.251 313.932 204.373C314.377 204.486 314.743 204.639 315.03 204.831L314.625 205.576C314.32 205.366 313.993 205.218 313.645 205.131C313.296 205.035 312.947 204.987 312.599 204.987C311.98 204.987 311.523 205.096 311.226 205.314C310.939 205.523 310.795 205.794 310.795 206.125C310.795 206.386 310.873 206.591 311.03 206.739C311.196 206.887 311.409 207.005 311.671 207.092C311.941 207.17 312.233 207.236 312.546 207.288C312.869 207.34 313.187 207.406 313.501 207.484C313.823 207.554 314.115 207.654 314.377 207.785C314.647 207.907 314.86 208.085 315.017 208.321C315.183 208.547 315.265 208.848 315.265 209.223C315.265 209.624 315.152 209.972 314.926 210.268C314.708 210.556 314.385 210.783 313.958 210.948C313.54 211.105 313.03 211.184 312.429 211.184Z" fill="#D1D5DB"/>
</svg>
