<svg width="91" height="91" viewBox="0 0 91 91" fill="none" xmlns="http://www.w3.org/2000/svg">
<path d="M6.08447 35.0214C6.08447 25.0455 6.08447 20.0576 8.02591 16.2473C9.73366 12.8956 12.4586 10.1707 15.8103 8.46292C19.6206 6.52148 24.6085 6.52148 34.5844 6.52148H56.3346C66.3105 6.52148 71.2985 6.52148 75.1086 8.46292C78.4602 10.1707 81.1853 12.8956 82.893 16.2473C84.8345 20.0576 84.8345 25.0455 84.8345 35.0214V56.7716C84.8345 66.7475 84.8345 71.7355 82.893 75.5456C81.1853 78.8972 78.4602 81.6223 75.1086 83.33C71.2985 85.2715 66.3105 85.2715 56.3346 85.2715H34.5844C24.6085 85.2715 19.6206 85.2715 15.8103 83.33C12.4586 81.6223 9.73366 78.8972 8.02591 75.5456C6.08447 71.7355 6.08447 66.7475 6.08447 56.7716V35.0214Z" fill="#013301"/>
<path d="M42.0544 55.9196H29.8512L27.3683 63.8455C27.2994 64.1394 27.0287 64.3475 26.7344 64.3332H20.5535C20.201 64.3332 20.0778 64.1346 20.1837 63.7372L30.7492 32.6569C30.855 32.332 30.9605 32.0142 31.0662 31.5985C31.2046 30.8754 31.2752 30.1408 31.2777 29.4042C31.2473 29.1865 31.4352 28.9937 31.6473 29.0248H40.0471C40.2932 29.0248 40.4338 29.1151 40.4695 29.2956L52.4618 63.7912C52.5672 64.1529 52.4615 64.3335 52.1448 64.3332H45.2769C45.0362 64.3605 44.8061 64.1954 44.7487 63.9538L42.0544 55.9196ZM31.753 49.2368H40.1C38.7286 44.5506 37.1809 39.9263 35.9265 35.2036C34.5051 40.1024 33.1925 44.6457 31.753 49.2368Z" fill="#33FF66"/>
<path d="M55.9479 37.4101H61.7065C62.024 37.4129 62.3089 37.6379 62.393 37.952C62.8152 38.9131 62.8669 40.0718 62.8686 41.1093C63.8561 39.9301 65.0469 38.9474 66.3814 38.2108C67.813 37.38 69.4358 36.9589 71.0802 36.9916C71.3531 36.9516 71.5947 37.1994 71.5558 37.4792V44.0352C71.5558 44.2883 71.3789 44.4146 71.0274 44.4146C68.5901 44.2422 64.7954 44.8328 63.0244 46.7987V63.8456C63.0244 64.1707 62.8835 64.3333 62.602 64.3333H56.4235C56.12 64.3777 55.8522 64.0976 55.895 63.7913V45.2814C55.895 42.8013 55.9476 40.2465 55.5783 37.7895C55.5212 37.5633 55.7324 37.353 55.9479 37.4101Z" fill="#33FF66"/>
</svg>
