<svg width="91" height="91" viewBox="0 0 91 91" fill="none" xmlns="http://www.w3.org/2000/svg">
<path d="M6.01807 34.6708C6.01807 24.695 6.01807 19.707 7.95951 15.8967C9.66726 12.5451 12.3922 9.82009 15.7439 8.11234C19.5541 6.1709 24.5421 6.1709 34.518 6.1709H56.2682C66.2441 6.1709 71.2321 6.1709 75.0422 8.11234C78.3938 9.82009 81.1189 12.5451 82.8266 15.8967C84.7681 19.707 84.7681 24.695 84.7681 34.6708V56.421C84.7681 66.3969 84.7681 71.3849 82.8266 75.195C81.1189 78.5467 78.3938 81.2717 75.0422 82.9794C71.2321 84.9209 66.2441 84.9209 56.2682 84.9209H34.518C24.5421 84.9209 19.5541 84.9209 15.7439 82.9794C12.3922 81.2717 9.66726 78.5467 7.95951 75.195C6.01807 71.3849 6.01807 66.3969 6.01807 56.421V34.6708Z" fill="#470137"/>
<path d="M47.2113 29.3283L37.3853 45.9626L47.8979 63.6259C48.1164 64.0264 47.8979 64.115 47.5812 64.115H40.0797C39.5512 64.115 39.1814 64.0959 38.9702 63.7345C38.2651 62.3257 37.5608 60.9259 36.8569 59.5351C36.152 58.1449 35.4036 56.7271 34.6119 55.2818C33.8194 53.8376 33.0358 52.3748 32.2609 50.8931C31.5561 52.3382 30.7723 53.783 30.0157 55.2278C29.258 56.6728 28.5096 58.1086 27.7705 59.5351C27.031 60.9625 26.2738 62.3802 25.499 63.7885C25.3578 64.1136 25.111 64.1471 24.7593 64.1471H17.5219C17.2376 64.1471 17.2032 63.9333 17.3635 63.6802L27.5592 46.5042L17.6275 29.274C17.4471 29.0282 17.6024 28.7664 17.8917 28.7863H25.3404C25.6629 28.7683 25.948 28.8898 26.1328 29.1657C26.7668 30.6108 27.4711 32.0559 28.2459 33.5004C29.0201 34.9454 29.8039 36.3725 30.5968 37.7807C31.3894 39.1895 32.1729 40.6163 32.842 42.0613C33.546 40.5806 34.2592 39.1358 34.9815 37.7267C35.7032 36.3179 36.4426 34.9001 37.2003 33.4734C37.9574 32.0469 38.6881 30.6291 39.3926 29.22C39.4863 28.9109 39.7101 28.7543 40.0265 28.7863H46.947C47.2113 28.7863 47.3205 29.1472 47.2113 29.3283Z" fill="#FF61F6"/>
<path d="M62.3724 64.8186C57.7135 64.8914 52.8336 62.973 50.3805 58.723C49.183 56.6826 48.5842 54.1271 48.5845 51.0561C48.5645 48.5693 49.1841 46.1211 50.3805 43.9582C53.4678 38.4396 59.6874 36.3718 65.595 36.9146V26.2405C65.595 25.9882 65.7008 25.8612 65.912 25.8612H72.5683C72.7503 25.8346 72.9112 25.9997 72.8853 26.1863V58.2083C72.8853 59.5294 73.0164 60.8459 73.0968 62.1636C73.1097 62.3886 72.9795 62.6113 72.7795 62.7055C69.4909 64.1123 65.9322 64.8022 62.3724 64.8186ZM65.595 58.0998V43.308C60.7699 41.9676 56.0854 45.6426 56.086 50.731C55.9715 55.9918 60.5064 59.6264 65.595 58.0998Z" fill="#FF61F6"/>
</svg>
