<svg width="91" height="91" viewBox="0 0 91 91" fill="none" xmlns="http://www.w3.org/2000/svg">
<path d="M5.79346 34.6474C5.79346 24.6715 5.79346 19.6835 7.7349 15.8733C9.44265 12.5216 12.1676 9.79665 15.5193 8.0889C19.3295 6.14746 24.3175 6.14746 34.2934 6.14746H56.0435C66.0195 6.14746 71.0075 6.14746 74.8176 8.0889C78.1692 9.79665 80.8942 12.5216 82.602 15.8733C84.5435 19.6835 84.5435 24.6715 84.5435 34.6474V56.3976C84.5435 66.3735 84.5435 71.3615 82.602 75.1716C80.8942 78.5232 78.1692 81.2482 74.8176 82.956C71.0075 84.8975 66.0195 84.8975 56.0435 84.8975H34.2934C24.3175 84.8975 19.3295 84.8975 15.5193 82.956C12.1676 81.2482 9.44265 78.5232 7.7349 75.1716C5.79346 71.3615 5.79346 66.3735 5.79346 56.3976V34.6474Z" fill="#330000"/>
<path d="M43.9553 55.6367H31.7521L29.2692 63.5474C29.2003 63.8413 28.9298 64.0494 28.6353 64.0348H22.4544C22.1019 64.0348 21.9786 63.8362 22.0846 63.4388L32.6501 32.2296C32.7559 31.9045 32.8616 31.5344 32.9671 31.119C33.1055 30.3959 33.1761 29.6612 33.1786 28.9246C33.1482 28.707 33.3395 28.5147 33.5482 28.5452H41.948C42.1941 28.5452 42.3347 28.6355 42.3704 28.8161L54.3626 63.4931C54.4681 63.8545 54.3626 64.0351 54.0457 64.0348H47.1778C46.9371 64.0623 46.707 63.8972 46.6496 63.6557L43.9553 55.6367ZM33.6539 48.8096H42.0009C40.6295 44.1234 39.0818 39.4988 37.8274 34.7763C36.474 39.507 34.9974 44.2185 33.6539 48.8096Z" fill="#FF9A00"/>
<path d="M61.4937 34.2888C60.9548 34.311 60.4177 34.2162 59.9167 34.0109C59.4161 33.8056 58.9633 33.494 58.5881 33.0968C58.2141 32.6823 57.9232 32.1963 57.7328 31.6661C57.5424 31.1362 57.4561 30.5729 57.4786 30.0084C57.4595 29.4496 57.5554 28.893 57.7601 28.3748C57.9652 27.8566 58.2743 27.3886 58.6674 27.0013C59.0567 26.6179 59.5162 26.3176 60.0197 26.1177C60.5228 25.9177 61.0597 25.8221 61.5992 25.8363C62.8673 25.8363 63.8621 26.2247 64.5841 27.0013C64.9486 27.4048 65.2318 27.8782 65.4177 28.3942C65.6033 28.9102 65.6883 29.4589 65.6669 30.0084C65.6891 30.5749 65.6 31.1405 65.4048 31.6709C65.2099 32.2013 64.9126 32.6862 64.5312 33.0968C64.1327 33.4999 63.6568 33.8137 63.1342 34.0191C62.6114 34.2241 62.0528 34.3161 61.4937 34.2888ZM57.8484 63.4932V37.594C57.8484 37.2689 57.9888 37.1063 58.2712 37.1063H64.7692C65.0504 37.1063 65.1913 37.2689 65.1916 37.594V63.4932C65.1916 63.8549 65.0507 64.0355 64.7692 64.0352H58.324C58.0071 64.0352 57.8484 63.8546 57.8484 63.4932Z" fill="#FF9A00"/>
</svg>
