<svg width="87" height="88" viewBox="0 0 87 88" fill="none" xmlns="http://www.w3.org/2000/svg">
<path d="M40.6179 67.9268L58.8227 64.7078L58.9912 64.6697L49.6279 53.5283C46.4878 49.8125 43.3648 46.0824 40.2591 42.3379C40.2591 42.2835 49.9324 15.6452 49.9867 15.5528C55.3387 24.7151 60.6566 33.8973 65.9404 43.0991L81.981 70.912L82.1061 71.124L22.5763 71.1186L40.6179 67.9268ZM4.89355 64.5338C4.89355 64.5175 9.30337 56.856 14.6974 47.509L24.5066 30.5059L35.9362 20.9141C42.222 15.6452 47.3822 11.3115 47.3985 11.3115C47.358 11.4724 47.2977 11.6276 47.2191 11.7737L34.7998 38.3957L22.6198 64.5392L13.7567 64.5501C8.87924 64.5555 4.89355 64.5501 4.89355 64.5338Z" fill="#0089D6"/>
</svg>
