<svg width="33" height="32" viewBox="0 0 33 32" fill="none" xmlns="http://www.w3.org/2000/svg">
<g clip-path="url(#clip0_2911_1426)">
<path d="M21.8812 15.2814C21.5749 15.0189 21.1937 14.8877 20.7437 14.8877C20.2562 14.8877 19.8749 15.0252 19.5999 15.3064C19.3312 15.5877 19.1624 15.9627 19.0874 16.4377H22.3812C22.3562 15.9314 22.1812 15.5502 21.8812 15.2814Z" fill="white"/>
<path d="M13.7688 16.6316C13.5313 16.5254 13.2062 16.4691 12.7812 16.4629H10.3438V19.1004H12.75C13.1813 19.1004 13.5125 19.0441 13.75 18.9254C14.1875 18.7066 14.4 18.3004 14.4 17.6941C14.4 17.1816 14.1875 16.8254 13.7688 16.6316Z" fill="white"/>
<path d="M16.375 0C7.5375 0 0.375 7.1625 0.375 16C0.375 24.8375 7.5375 32 16.375 32C25.2125 32 32.375 24.8375 32.375 16C32.375 7.1625 25.2125 0 16.375 0ZM18.6 11.3938H22.8375V12.625H18.6V11.3938ZM16.0437 19.4125C15.8562 19.7188 15.625 19.9813 15.3438 20.1875C15.0312 20.4312 14.6562 20.5938 14.225 20.6875C13.7938 20.775 13.3313 20.8188 12.825 20.8188H8.375V10.9312H13.1562C14.3625 10.95 15.2188 11.3 15.7188 11.9875C16.0188 12.4062 16.1687 12.9125 16.1687 13.5C16.1687 14.1 16.0187 14.5875 15.7125 14.9563C15.5437 15.1625 15.2875 15.35 14.9563 15.5188C15.4625 15.7063 15.8438 15.9937 16.1 16.3937C16.3563 16.7937 16.4875 17.275 16.4875 17.8438C16.4875 18.4188 16.3375 18.9438 16.0437 19.4125ZM24.375 17.7H19.05C19.0812 18.4313 19.3312 18.95 19.8125 19.2437C20.1063 19.425 20.4562 19.5187 20.8687 19.5187C21.3 19.5187 21.6562 19.4062 21.9312 19.1812C22.0812 19.0625 22.2125 18.8937 22.325 18.675H24.275C24.225 19.1062 23.9875 19.55 23.5688 20C22.9125 20.7125 22 21.0688 20.8188 21.0688C19.8438 21.0688 18.9875 20.7688 18.2437 20.1688C17.5 19.5688 17.125 18.5938 17.125 17.2437C17.125 15.975 17.4625 15.0063 18.1313 14.3313C18.8062 13.6562 19.675 13.3188 20.7437 13.3188C21.3813 13.3188 21.9562 13.4313 22.4625 13.6625C22.975 13.8875 23.3938 14.25 23.725 14.7437C24.025 15.175 24.2188 15.6813 24.3062 16.2563C24.3625 16.5875 24.3813 17.0688 24.375 17.7Z" fill="white"/>
<path d="M13.8001 14.5811C14.0688 14.4186 14.2001 14.1248 14.2001 13.7123C14.2001 13.2498 14.0251 12.9498 13.6688 12.7998C13.3626 12.6998 12.9751 12.6436 12.5001 12.6436H10.3501V14.8248H12.7501C13.1813 14.8311 13.5251 14.7498 13.8001 14.5811Z" fill="white"/>
</g>
<defs>
<clipPath id="clip0_2911_1426">
<rect width="32" height="32" fill="white" transform="translate(0.375)"/>
</clipPath>
</defs>
</svg>
