<svg width="33" height="33" viewBox="0 0 33 33" fill="none" xmlns="http://www.w3.org/2000/svg">
<path fill-rule="evenodd" clip-rule="evenodd" d="M15.0257 2.54045C15.4163 2.93097 15.4163 3.56414 15.0257 3.95466C14.6799 4.30052 14.6799 4.86126 15.0257 5.20712C16.1527 6.33402 16.1527 8.16109 15.0257 9.288C14.6352 9.67852 14.002 9.67852 13.6115 9.288C13.221 8.89748 13.221 8.2643 13.6115 7.87378C13.9574 7.52793 13.9574 6.96718 13.6115 6.62133C12.4846 5.49442 12.4846 3.66736 13.6115 2.54045C14.002 2.14993 14.6352 2.14993 15.0257 2.54045ZM9.02552 4.54045C9.41606 4.93097 9.41606 5.56414 9.02552 5.95466L8.87071 6.10949C8.54638 6.43382 8.50988 6.94728 8.78508 7.31422C9.65747 8.47741 9.5418 10.1051 8.51368 11.1332L8.35886 11.288C7.96834 11.6785 7.33518 11.6785 6.94464 11.288C6.55412 10.8975 6.55412 10.2643 6.94464 9.87378L7.09947 9.71896C7.4238 9.39462 7.4603 8.88117 7.18508 8.51422C6.31271 7.35104 6.42838 5.72338 7.4565 4.69528L7.61131 4.54045C8.00184 4.14993 8.635 4.14993 9.02552 4.54045ZM21.6921 4.54045C22.0827 4.93097 22.0827 5.56414 21.6921 5.95466L21.5373 6.10949C21.2131 6.43382 21.1765 6.94728 21.4517 7.31422C22.3241 8.47741 22.2084 10.1051 21.1804 11.1332L21.0255 11.288C20.6349 11.6785 20.0019 11.6785 19.6113 11.288C19.2208 10.8975 19.2208 10.2643 19.6113 9.87378L19.7661 9.71896C20.0904 9.39462 20.1269 8.88117 19.8517 8.51422C18.9793 7.35104 19.0951 5.72338 20.1232 4.69528L20.278 4.54045C20.6685 4.14993 21.3016 4.14993 21.6921 4.54045ZM7.18163 12.9142C7.21174 12.9142 7.2423 12.9142 7.27328 12.9142H21.3636C21.3945 12.9142 21.4251 12.9142 21.4552 12.9142C21.9388 12.914 22.3097 12.9138 22.6304 12.9708C23.5127 13.1277 24.2772 13.5934 24.8171 14.2476H26.3184C29.0799 14.2476 31.3184 16.4861 31.3184 19.2476C31.3184 22.009 29.0799 24.2476 26.3184 24.2476H24.5155C23.9313 25.754 22.9167 27.0738 21.5764 28.0294C20.1611 29.0385 18.466 29.5809 16.7276 29.5809H11.9092C10.1708 29.5809 8.4758 29.0385 7.06036 28.0294C5.1393 26.6597 3.8871 24.5414 3.61319 22.1981L3.07895 17.6274C3.07535 17.5966 3.07179 17.5662 3.06828 17.5364C3.01194 17.0561 2.96871 16.6877 2.98811 16.3625C3.0891 14.6701 4.33719 13.2676 6.00642 12.9708C6.32714 12.9138 6.69808 12.914 7.18163 12.9142ZM22.9428 22.5424C22.7629 22.7232 22.6517 22.9724 22.6517 23.2476C22.6517 23.321 22.6596 23.3926 22.6747 23.4616C22.2345 24.6336 21.4533 25.6609 20.4155 26.4009C19.3389 27.1684 18.0497 27.5809 16.7276 27.5809H11.9092C10.5871 27.5809 9.29792 27.1684 8.22142 26.4009C6.76035 25.3592 5.80799 23.7482 5.59967 21.966L5.06543 17.3952C4.99366 16.7812 4.97715 16.6058 4.98456 16.4816C5.03046 15.7124 5.59778 15.0749 6.35651 14.94C6.47899 14.9182 6.65511 14.9142 7.27328 14.9142H21.3636C21.9817 14.9142 22.1579 14.9182 22.2803 14.94C23.0391 15.0749 23.6064 15.7124 23.6523 16.4816C23.6597 16.6058 23.6432 16.7812 23.5715 17.3952L23.0372 21.966C23.0144 22.1602 22.9829 22.3526 22.9428 22.5424ZM25.0177 22.2476H26.3184C27.9752 22.2476 29.3184 20.9044 29.3184 19.2476C29.3184 17.5908 27.9752 16.2476 26.3184 16.2476H25.64C25.6436 16.2857 25.6464 16.324 25.6487 16.3625C25.6681 16.6877 25.6249 17.0561 25.5685 17.5364C25.5651 17.5662 25.5615 17.5966 25.5579 17.6274L25.0236 22.1981C25.0217 22.2146 25.0197 22.231 25.0177 22.2476Z" fill="#D1D5DB"/>
</svg>
