<svg width="24" height="25" viewBox="0 0 24 25" fill="none" xmlns="http://www.w3.org/2000/svg">
<path d="M18.8679 9.51025H10.7942C9.80328 9.51025 9 10.4074 9 11.5142V20.5317C9 21.6385 9.80328 22.5356 10.7942 22.5356H18.8679C19.8588 22.5356 20.6621 21.6385 20.6621 20.5317V11.5142C20.6621 10.4074 19.8588 9.51025 18.8679 9.51025Z" stroke="#D1D5DB" stroke-width="1.5" stroke-linecap="round" stroke-linejoin="round"/>
<path d="M6.19441 15.5103H5.31385C4.84677 15.5103 4.39883 15.3108 4.06855 14.9557C3.73828 14.6006 3.55273 14.1191 3.55273 13.6169V5.09694C3.55273 4.5948 3.73828 4.11322 4.06855 3.75816C4.39883 3.40309 4.84677 3.20361 5.31385 3.20361H13.2389C13.706 3.20361 14.1539 3.40309 14.4842 3.75816C14.8145 4.11322 15 4.5948 15 5.09694V6.04361" stroke="#D1D5DB" stroke-width="1.5" stroke-linecap="round" stroke-linejoin="round"/>
</svg>
