<svg width="20" height="21" viewBox="0 0 20 21" fill="none" xmlns="http://www.w3.org/2000/svg">
<path d="M9.75684 0.751465C4.40656 0.751465 0.0693359 5.08869 0.0693359 10.439C0.0693359 15.7892 4.40656 20.1265 9.75684 20.1265C15.1071 20.1265 19.4443 15.7892 19.4443 10.439C19.4443 5.08869 15.1071 0.751465 9.75684 0.751465ZM9.75684 18.2515C5.43918 18.2515 1.94434 14.7573 1.94434 10.439C1.94434 6.12135 5.43852 2.62646 9.75684 2.62646C14.0745 2.62646 17.5693 6.12064 17.5693 10.439C17.5693 14.7566 14.0752 18.2515 9.75684 18.2515ZM13.9502 14.3037C13.5747 14.683 12.1717 15.9207 9.8852 15.9207C6.66527 15.9207 4.39754 13.5213 4.39754 10.3907C4.39754 7.29885 6.75203 4.94537 9.85699 4.94537C12.0262 4.94537 13.3233 5.98522 13.6692 6.30393C13.7505 6.37868 13.8027 6.47979 13.8165 6.58935C13.8304 6.6989 13.805 6.80982 13.7448 6.90244L13.0357 8.00061C12.8856 8.23303 12.5682 8.28506 12.3521 8.11471C12.0164 7.85002 11.1094 7.23432 9.94164 7.23432C8.0548 7.23432 6.89805 8.61439 6.89805 10.3625C6.89805 11.9871 7.94836 13.6317 9.95574 13.6317C11.2314 13.6317 12.1762 12.888 12.5232 12.5683C12.729 12.3785 13.0543 12.4105 13.2193 12.6362L13.9952 13.6975C14.0614 13.7872 14.0932 13.8977 14.085 14.0089C14.0767 14.1201 14.0289 14.2246 13.9502 14.3037Z" fill="#969696"/>
</svg>
