<svg width="43" height="97" viewBox="0 0 43 97" fill="none" xmlns="http://www.w3.org/2000/svg">
<g clip-path="url(#clip0_2902_1339)">
<g clip-path="url(#clip1_2902_1339)">
<path d="M21.3335 48.1022C21.3335 45.2732 22.4573 42.5601 24.4577 40.5597C26.4581 38.5594 29.1712 37.4355 32.0002 37.4355C34.8291 37.4355 37.5422 38.5594 39.5426 40.5597C41.543 42.5601 42.6668 45.2732 42.6668 48.1022C42.6668 50.9312 41.543 53.6443 39.5426 55.6447C37.5422 57.6451 34.8291 58.7689 32.0002 58.7689C29.1712 58.7689 26.4581 57.6451 24.4577 55.6447C22.4573 53.6443 21.3335 50.9312 21.3335 48.1022Z" fill="#1ABCFE"/>
<path d="M0 69.4362C0 66.6072 1.12381 63.8941 3.12419 61.8937C5.12458 59.8933 7.83769 58.7695 10.6667 58.7695H21.3333V69.4362C21.3333 72.2652 20.2095 74.9783 18.2091 76.9787C16.2087 78.9791 13.4956 80.1029 10.6667 80.1029C7.83769 80.1029 5.12458 78.9791 3.12419 76.9787C1.12381 74.9783 0 72.2652 0 69.4362Z" fill="#0ACF83"/>
<path d="M21.3335 16.1025V37.4359H32.0002C34.8291 37.4359 37.5422 36.3121 39.5426 34.3117C41.543 32.3113 42.6668 29.5982 42.6668 26.7692C42.6668 23.9402 41.543 21.2271 39.5426 19.2267C37.5422 17.2263 34.8291 16.1025 32.0002 16.1025H21.3335Z" fill="#FF7262"/>
<path d="M0 26.7692C0 29.5982 1.12381 32.3113 3.12419 34.3117C5.12458 36.3121 7.83769 37.4359 10.6667 37.4359H21.3333V16.1025H10.6667C7.83769 16.1025 5.12458 17.2263 3.12419 19.2267C1.12381 21.2271 0 23.9402 0 26.7692Z" fill="#F24E1E"/>
<path d="M0 48.1022C0 50.9312 1.12381 53.6443 3.12419 55.6447C5.12458 57.6451 7.83769 58.7689 10.6667 58.7689H21.3333V37.4355H10.6667C7.83769 37.4355 5.12458 38.5594 3.12419 40.5597C1.12381 42.5601 0 45.2732 0 48.1022Z" fill="#A259FF"/>
</g>
</g>
<defs>
<clipPath id="clip0_2902_1339">
<rect width="42.6667" height="96" fill="white" transform="translate(0 0.102539)"/>
</clipPath>
<clipPath id="clip1_2902_1339">
<rect width="42.6667" height="64" fill="white" transform="translate(0 16.1025)"/>
</clipPath>
</defs>
</svg>
