<svg width="30" height="30" viewBox="0 0 30 30" fill="none" xmlns="http://www.w3.org/2000/svg">
<path d="M18.359 27.2399V22.3441C18.5293 20.8108 18.0896 19.2721 17.135 18.0602C20.8069 18.0602 24.4788 15.6123 24.4788 11.3284C24.5767 9.7985 24.1483 8.29303 23.2548 7.0446C23.5975 5.63704 23.5975 4.16829 23.2548 2.76074C23.2548 2.76074 22.0309 2.76074 19.5829 4.59668C16.3517 3.9847 13.0225 3.9847 9.79127 4.59668C7.34335 2.76074 6.1194 2.76074 6.1194 2.76074C5.75221 4.16829 5.75221 5.63704 6.1194 7.0446C5.2282 8.288 4.79565 9.80191 4.89544 11.3284C4.89544 15.6123 8.56731 18.0602 12.2392 18.0602C11.7618 18.66 11.4069 19.3454 11.1988 20.0798C10.9907 20.8141 10.9296 21.5852 11.0152 22.3441V27.2399" stroke="#D1D5DB" stroke-width="2.44792" stroke-linecap="round" stroke-linejoin="round"/>
<path d="M11.0155 22.3434C5.49541 24.7913 4.89567 19.8955 2.44775 19.8955" stroke="#D1D5DB" stroke-width="2.44792" stroke-linecap="round" stroke-linejoin="round"/>
</svg>
