<svg width="33" height="32" viewBox="0 0 33 32" fill="none" xmlns="http://www.w3.org/2000/svg">
<path d="M9.0415 10.667C10.1461 10.667 11.0415 9.77157 11.0415 8.66699C11.0415 7.56242 10.1461 6.66699 9.0415 6.66699C7.93693 6.66699 7.0415 7.56242 7.0415 8.66699C7.0415 9.77157 7.93693 10.667 9.0415 10.667Z" fill="white"/>
<path d="M7.0415 13.3333C7.0415 12.597 7.63846 12 8.37484 12H9.70817C10.4445 12 11.0415 12.5969 11.0415 13.3333V24C11.0415 24.7364 10.4445 25.3333 9.70817 25.3333H8.37484C7.63846 25.3333 7.0415 24.7364 7.0415 24V13.3333Z" fill="white"/>
<path d="M15.0418 25.3333H16.3752C17.1116 25.3333 17.7085 24.7364 17.7085 24V18C17.7085 16 21.7085 14.6667 21.7085 17.3333V24.0005C21.7085 24.7369 22.3054 25.3333 23.0418 25.3333H24.3752C25.1116 25.3333 25.7085 24.7364 25.7085 24V16C25.7085 13.3333 23.7085 12 21.0418 12C18.3752 12 17.7085 14 17.7085 14V13.3333C17.7085 12.5969 17.1116 12 16.3752 12H15.0418C14.3054 12 13.7085 12.597 13.7085 13.3333V24C13.7085 24.7364 14.3054 25.3333 15.0418 25.3333Z" fill="white"/>
<path fill-rule="evenodd" clip-rule="evenodd" d="M27.0418 1.33301C29.251 1.33301 31.0418 3.12387 31.0418 5.33301V26.6663C31.0418 28.8755 29.251 30.6663 27.0418 30.6663H5.7085C3.49936 30.6663 1.7085 28.8755 1.7085 26.6663V5.33301C1.7085 3.12387 3.49936 1.33301 5.7085 1.33301H27.0418ZM27.0418 3.99967C27.7782 3.99967 28.3752 4.59663 28.3752 5.33301V26.6663C28.3752 27.4027 27.7782 27.9997 27.0418 27.9997H5.7085C4.97212 27.9997 4.37516 27.4027 4.37516 26.6663V5.33301C4.37516 4.59663 4.97212 3.99967 5.7085 3.99967H27.0418Z" fill="white"/>
</svg>
