<svg width="53" height="52" viewBox="0 0 53 52" fill="none" xmlns="http://www.w3.org/2000/svg">
<path d="M28.5415 26C28.5415 33.1797 22.7212 39 15.5415 39C8.3618 39 2.5415 33.1797 2.5415 26C2.5415 18.8203 8.3618 13 15.5415 13C22.7212 13 28.5415 18.8203 28.5415 26Z" fill="white"/>
<path d="M49.8748 26.0003C49.8748 31.9834 48.9048 36.8337 47.7082 36.8337C46.5115 36.8337 45.5415 31.9834 45.5415 26.0003C45.5415 20.0172 46.5115 15.167 47.7082 15.167C48.9048 15.167 49.8748 20.0172 49.8748 26.0003Z" fill="white"/>
<path d="M37.0415 39C40.6315 39 43.5415 33.1797 43.5415 26C43.5415 18.8203 40.6315 13 37.0415 13C33.4516 13 30.5415 18.8203 30.5415 26C30.5415 33.1797 33.4516 39 37.0415 39Z" fill="white"/>
</svg>
