<svg width="86" height="86" viewBox="0 0 86 86" fill="none" xmlns="http://www.w3.org/2000/svg">
<path fill-rule="evenodd" clip-rule="evenodd" d="M22.1237 12.7806L43.084 10.6816L64.0442 12.7806L80.2712 33.4138L43.084 74.4314L5.89648 33.4138L22.1237 12.7806Z" fill="#FDB300"/>
<path d="M20.9591 33.4141L43.0837 74.4319L5.89648 33.4141H20.9591ZM65.209 33.4141L43.0837 74.4319L80.2715 33.4141" fill="#EA6C00"/>
<path fill-rule="evenodd" clip-rule="evenodd" d="M20.96 33.4141H65.2091L43.0847 74.4319" fill="#FDAD00"/>
<path d="M43.0847 10.6816L22.1244 12.7802L20.96 33.4136L43.0847 10.6816ZM43.0847 10.6816L64.0451 12.7802L65.2096 33.4136" fill="#FDD231"/>
<path d="M80.2715 33.4137L64.0445 12.7803L65.209 33.4137H80.2715ZM5.89648 33.4137L22.1235 12.7803L20.9591 33.4137" fill="#FDAD00"/>
<path fill-rule="evenodd" clip-rule="evenodd" d="M43.0847 10.6816L20.96 33.4136H65.2091" fill="#FEEEB7"/>
</svg>
