<svg width="76" height="84" viewBox="0 0 76 84" fill="none" xmlns="http://www.w3.org/2000/svg">
<path d="M76.0005 19.008L49.1249 3.495C49.1249 3.495 44.8384 0.977539 38.0345 0.977539C30.9584 0.977539 26.876 3.56305 26.876 3.56305L1.97363 17.8513L39.8716 39.6239V83.6454L64.842 69.4252C64.842 69.4252 69.3326 66.9757 72.6666 61.1244C75.6603 55.9534 76.0005 50.9865 76.0005 50.9865V19.008ZM35.449 26.2202C35.449 26.2202 41.0282 25.1996 45.723 27.9211C50.4177 30.6427 53.2073 32.2076 53.2073 32.2076C53.2073 32.2076 53.2073 35.9498 53.2073 41.5971C53.2073 46.0877 49.3971 50.7824 49.3971 50.7824V34.1808L35.449 26.2202ZM57.4938 62.5532L49.3971 67.1799V62.8253L55.7247 59.2193C61.7122 54.8647 62.7328 48.469 62.7328 46.2918V26.6284L45.5188 16.6946C45.5188 16.6946 42.8653 14.9937 38.1706 14.9937C33.4759 14.9937 30.8904 16.5586 30.8904 16.5586L24.8349 20.0286L21.0247 17.8513L29.3935 13.0886C29.3935 13.0886 32.6594 11.2515 38.1706 11.2515C43.2055 11.2515 47.1518 13.2246 47.1518 13.2246L66.6111 24.4511V45.8835C66.6111 49.2175 65.1142 57.2461 57.4938 62.5532ZM0.0685266 32.1396L26.6719 47.3804V51.939L11.4991 43.23L1.97363 48.6051L26.6039 62.7573V67.1118L0.204606 52.0751C0.272645 53.8442 1.90559 59.3553 4.96736 63.5738C8.09718 67.8603 11.6352 69.6973 11.6352 69.6973L35.9933 83.7134V41.8692L0.000488281 21.1852L0.0685266 32.1396Z" fill="#005F9E"/>
</svg>
