<svg width="81" height="81" viewBox="0 0 81 81" fill="none" xmlns="http://www.w3.org/2000/svg">
<path d="M66.3345 38.373C69.786 38.373 72.584 35.575 72.584 32.1235C72.584 28.672 69.7857 25.874 66.3342 25.874C62.8825 25.874 60.084 28.6723 60.084 32.124V38.373H66.3345ZM48.834 38.373C52.2857 38.373 55.084 35.5748 55.084 32.123V14.624C55.084 11.1722 52.2857 8.37402 48.834 8.37402C45.3822 8.37402 42.584 11.1722 42.584 14.624V32.123C42.584 35.5748 45.3822 38.373 48.834 38.373Z" fill="#2EB67D"/>
<path d="M13.8335 43.375C10.382 43.375 7.58398 46.173 7.58398 49.6245C7.58398 53.076 10.3822 55.874 13.8337 55.874C17.2855 55.874 20.084 53.0757 20.084 49.624V43.375H13.8335ZM31.334 43.375C27.8822 43.375 25.084 46.1732 25.084 49.625V67.124C25.084 70.5757 27.8822 73.374 31.334 73.374C34.7857 73.374 37.584 70.5757 37.584 67.124V49.625C37.584 46.1732 34.7857 43.375 31.334 43.375Z" fill="#E01E5A"/>
<path d="M42.585 67.1245C42.585 70.576 45.383 73.374 48.8345 73.374C52.286 73.374 55.084 70.5758 55.084 67.1243C55.084 63.6725 52.2857 60.874 48.834 60.874H42.585V67.1245ZM42.585 49.624C42.585 53.0758 45.3832 55.874 48.835 55.874H66.334C69.7857 55.874 72.584 53.0758 72.584 49.624C72.584 46.1723 69.7857 43.374 66.334 43.374H48.835C45.3832 43.374 42.585 46.1723 42.585 49.624Z" fill="#ECB22E"/>
<path d="M37.583 14.6235C37.583 11.172 34.785 8.37402 31.3335 8.37402C27.882 8.37402 25.084 11.1723 25.084 14.6237C25.084 18.0755 27.8822 20.874 31.334 20.874H37.583V14.6235ZM37.583 32.124C37.583 28.6723 34.7847 25.874 31.333 25.874H13.834C10.3822 25.874 7.58398 28.6723 7.58398 32.124C7.58398 35.5758 10.3822 38.374 13.834 38.374H31.333C34.7847 38.374 37.583 35.5758 37.583 32.124Z" fill="#36C5F0"/>
</svg>
