<svg width="80" height="81" viewBox="0 0 80 81" fill="none" xmlns="http://www.w3.org/2000/svg">
<g clip-path="url(#clip0_2929_1397)">
<path d="M12.3307 52.4512L8.1456 53.98L7.9209 66.4303L22.4082 61.1379C17.4393 59.4688 13.8106 56.5321 12.3307 52.4512Z" fill="#FDBD39"/>
<path d="M14.5208 39.2832L0 44.5879L8.1456 53.9804L12.3307 52.4515C10.8551 48.3825 11.7651 43.7829 14.5208 39.2832Z" fill="#F69833"/>
<path d="M38.9568 21.3178C20.4659 28.0728 8.5449 42.0117 12.3306 52.4512L79.2923 27.9893C75.5065 17.5497 57.4478 14.5628 38.9568 21.3178Z" fill="#FECF33"/>
<path d="M52.666 59.1227C71.157 52.3677 83.1004 38.4906 79.2922 27.9893L12.3306 52.4512C16.1387 62.9526 34.1751 65.8776 52.666 59.1227Z" fill="#EE6723"/>
<path d="M79.2922 27.9893L12.3306 52.4512C13.6418 56.067 18.6419 57.8484 25.6577 57.8484C32.4975 57.8484 41.2531 56.1565 50.3811 52.8218C68.8721 46.0669 81.8817 35.1301 79.2922 27.9893Z" fill="#F69833"/>
<path d="M65.9654 22.5928C59.1256 22.5928 50.37 24.2847 41.2419 27.6193C22.751 34.3743 9.74133 45.311 12.3309 52.4519L79.2925 27.99C77.9813 24.3741 72.9812 22.5928 65.9654 22.5928Z" fill="#FDBD39"/>
<path d="M62.2669 67.0897H62.2665C60.2963 67.0897 57.3898 65.3101 53.6275 61.8004C49.1765 57.6482 44.0778 51.5665 39.2706 44.6758C34.4635 37.7853 30.5135 30.8964 28.1482 25.2781C25.5711 19.1555 25.2037 15.3909 27.0561 14.0889C27.4622 13.8037 27.9518 13.6592 28.5112 13.6592C30.0179 13.6592 32.9538 14.781 38.3828 20.1256L38.5016 20.2424L38.4855 20.4086C38.4484 20.7925 38.4142 21.1799 38.3837 21.5601L38.3232 22.3151L37.7906 21.7785C31.941 15.8854 29.366 15.2492 28.5304 15.2492C28.2921 15.2492 28.1023 15.2976 27.9662 15.3933C27.1627 15.9578 27.111 18.723 29.6095 24.6582C31.9326 30.1764 35.8252 36.9611 40.5702 43.7623C45.3154 50.5642 50.336 56.556 54.7074 60.634C59.4213 65.0314 61.5456 65.5062 62.2401 65.5062C62.4799 65.5062 62.6748 65.4547 62.8193 65.353C63.6669 64.7575 63.6679 61.7953 60.8817 55.407L60.7537 55.1138L61.0338 54.9605C61.3138 54.8072 61.5846 54.6562 61.8386 54.5118L62.174 54.3212L62.3287 54.6755C64.3043 59.2021 66.151 64.9552 63.7295 66.6575C63.3212 66.9443 62.8292 67.0897 62.2669 67.0897ZM62.2665 66.3914H62.267L62.2666 66.7405L62.2665 66.3914Z" fill="#EE6723"/>
<path d="M53.1151 58.9322L53.087 59.2801C52.6195 65.0645 51.3886 72.0187 48.1793 72.3002C48.1147 72.306 48.0478 72.3089 47.9808 72.3089C45.8006 72.3089 43.738 69.1852 41.8503 63.0244C40.0643 57.1959 38.6783 49.3703 37.9478 40.989C37.2172 32.6096 37.2282 24.6613 37.9786 18.6085C38.7966 12.0128 40.3539 8.56835 42.6069 8.37063C42.6735 8.36449 42.7425 8.36133 42.8107 8.36133C44.3923 8.36133 46.7759 10.1522 49.2161 18.4937L47.6228 18.8013C46.8081 16.0137 45.9202 13.7466 45.0387 12.1887C44.2233 10.7477 43.4305 9.9542 42.8062 9.9542C42.7857 9.9542 42.765 9.95505 42.7446 9.95679C41.7681 10.0426 40.3459 12.4114 39.553 18.8052C38.8159 24.7494 38.807 32.5785 39.5279 40.8505C40.2493 49.1236 41.6126 56.8323 43.3666 62.5564C44.1521 65.12 45.0137 67.2328 45.8582 68.6665C46.637 69.9886 47.3906 70.7167 47.9803 70.7167C48.0006 70.7167 48.0208 70.7158 48.0409 70.7141C48.9753 70.6322 50.7362 68.1671 51.4774 59.4942L53.1151 58.9322Z" fill="#EE6723"/>
</g>
<defs>
<clipPath id="clip0_2929_1397">
<rect width="80" height="80" fill="white" transform="translate(0 0.392578)"/>
</clipPath>
</defs>
</svg>
